<?xml version="1.0" encoding="utf-8" standalone="no"?>
<!DOCTYPE svg PUBLIC "-//W3C//DTD SVG 1.1//EN"
  "http://www.w3.org/Graphics/SVG/1.1/DTD/svg11.dtd">
<svg xmlns:xlink="http://www.w3.org/1999/xlink" width="432pt" height="360pt" viewBox="0 0 432 360" xmlns="http://www.w3.org/2000/svg" version="1.1">
 <metadata>
  <rdf:RDF xmlns:dc="http://purl.org/dc/elements/1.1/" xmlns:cc="http://creativecommons.org/ns#" xmlns:rdf="http://www.w3.org/1999/02/22-rdf-syntax-ns#">
   <cc:Work>
    <dc:type rdf:resource="http://purl.org/dc/dcmitype/StillImage"/>
    <dc:date>2023-10-16T13:14:42.479586</dc:date>
    <dc:format>image/svg+xml</dc:format>
    <dc:creator>
     <cc:Agent>
      <dc:title>Matplotlib v3.7.1, https://matplotlib.org/</dc:title>
     </cc:Agent>
    </dc:creator>
   </cc:Work>
  </rdf:RDF>
 </metadata>
 <defs>
  <style type="text/css">*{stroke-linejoin: round; stroke-linecap: butt}</style>
 </defs>
 <g id="figure_1">
  <g id="patch_1">
   <path d="M 0 360 
L 432 360 
L 432 0 
L 0 0 
L 0 360 
z
" style="fill: none"/>
  </g>
  <g id="axes_1">
   <g id="patch_2">
    <path d="M 51.5 305.8 
L 411.66 305.8 
L 411.66 29.76 
L 51.5 29.76 
L 51.5 305.8 
z
" style="fill: none"/>
   </g>
   <g id="matplotlib.axis_1">
    <g id="xtick_1">
     <g id="line2d_1">
      <path d="M 51.5 305.8 
L 51.5 29.76 
" clip-path="url(#p813e3488e2)" style="fill: none; stroke: #b0b0b0; stroke-width: 0.8; stroke-linecap: square"/>
     </g>
     <g id="line2d_2">
      <defs>
       <path id="m331fce45c3" d="M 0 0 
L 0 3.5 
" style="stroke: #000000; stroke-width: 0.8"/>
      </defs>
      <g>
       <use xlink:href="#m331fce45c3" x="51.5" y="305.8" style="stroke: #000000; stroke-width: 0.8"/>
      </g>
     </g>
     <g id="text_1">
      <!-- 0.0 -->
      <g transform="translate(41.958125 321.918125) scale(0.12 -0.12)">
       <defs>
        <path id="DejaVuSans-30" d="M 2034 4250 
Q 1547 4250 1301 3770 
Q 1056 3291 1056 2328 
Q 1056 1369 1301 889 
Q 1547 409 2034 409 
Q 2525 409 2770 889 
Q 3016 1369 3016 2328 
Q 3016 3291 2770 3770 
Q 2525 4250 2034 4250 
z
M 2034 4750 
Q 2819 4750 3233 4129 
Q 3647 3509 3647 2328 
Q 3647 1150 3233 529 
Q 2819 -91 2034 -91 
Q 1250 -91 836 529 
Q 422 1150 422 2328 
Q 422 3509 836 4129 
Q 1250 4750 2034 4750 
z
" transform="scale(0.015625)"/>
        <path id="DejaVuSans-2e" d="M 684 794 
L 1344 794 
L 1344 0 
L 684 0 
L 684 794 
z
" transform="scale(0.015625)"/>
       </defs>
       <use xlink:href="#DejaVuSans-30"/>
       <use xlink:href="#DejaVuSans-2e" x="63.623047"/>
       <use xlink:href="#DejaVuSans-30" x="95.410156"/>
      </g>
     </g>
    </g>
    <g id="xtick_2">
     <g id="line2d_3">
      <path d="M 111.526667 305.8 
L 111.526667 29.76 
" clip-path="url(#p813e3488e2)" style="fill: none; stroke: #b0b0b0; stroke-width: 0.8; stroke-linecap: square"/>
     </g>
     <g id="line2d_4">
      <g>
       <use xlink:href="#m331fce45c3" x="111.526667" y="305.8" style="stroke: #000000; stroke-width: 0.8"/>
      </g>
     </g>
     <g id="text_2">
      <!-- 0.1 -->
      <g transform="translate(101.984792 321.918125) scale(0.12 -0.12)">
       <defs>
        <path id="DejaVuSans-31" d="M 794 531 
L 1825 531 
L 1825 4091 
L 703 3866 
L 703 4441 
L 1819 4666 
L 2450 4666 
L 2450 531 
L 3481 531 
L 3481 0 
L 794 0 
L 794 531 
z
" transform="scale(0.015625)"/>
       </defs>
       <use xlink:href="#DejaVuSans-30"/>
       <use xlink:href="#DejaVuSans-2e" x="63.623047"/>
       <use xlink:href="#DejaVuSans-31" x="95.410156"/>
      </g>
     </g>
    </g>
    <g id="xtick_3">
     <g id="line2d_5">
      <path d="M 171.553333 305.8 
L 171.553333 29.76 
" clip-path="url(#p813e3488e2)" style="fill: none; stroke: #b0b0b0; stroke-width: 0.8; stroke-linecap: square"/>
     </g>
     <g id="line2d_6">
      <g>
       <use xlink:href="#m331fce45c3" x="171.553333" y="305.8" style="stroke: #000000; stroke-width: 0.8"/>
      </g>
     </g>
     <g id="text_3">
      <!-- 0.2 -->
      <g transform="translate(162.011458 321.918125) scale(0.12 -0.12)">
       <defs>
        <path id="DejaVuSans-32" d="M 1228 531 
L 3431 531 
L 3431 0 
L 469 0 
L 469 531 
Q 828 903 1448 1529 
Q 2069 2156 2228 2338 
Q 2531 2678 2651 2914 
Q 2772 3150 2772 3378 
Q 2772 3750 2511 3984 
Q 2250 4219 1831 4219 
Q 1534 4219 1204 4116 
Q 875 4013 500 3803 
L 500 4441 
Q 881 4594 1212 4672 
Q 1544 4750 1819 4750 
Q 2544 4750 2975 4387 
Q 3406 4025 3406 3419 
Q 3406 3131 3298 2873 
Q 3191 2616 2906 2266 
Q 2828 2175 2409 1742 
Q 1991 1309 1228 531 
z
" transform="scale(0.015625)"/>
       </defs>
       <use xlink:href="#DejaVuSans-30"/>
       <use xlink:href="#DejaVuSans-2e" x="63.623047"/>
       <use xlink:href="#DejaVuSans-32" x="95.410156"/>
      </g>
     </g>
    </g>
    <g id="xtick_4">
     <g id="line2d_7">
      <path d="M 231.58 305.8 
L 231.58 29.76 
" clip-path="url(#p813e3488e2)" style="fill: none; stroke: #b0b0b0; stroke-width: 0.8; stroke-linecap: square"/>
     </g>
     <g id="line2d_8">
      <g>
       <use xlink:href="#m331fce45c3" x="231.58" y="305.8" style="stroke: #000000; stroke-width: 0.8"/>
      </g>
     </g>
     <g id="text_4">
      <!-- 0.3 -->
      <g transform="translate(222.038125 321.918125) scale(0.12 -0.12)">
       <defs>
        <path id="DejaVuSans-33" d="M 2597 2516 
Q 3050 2419 3304 2112 
Q 3559 1806 3559 1356 
Q 3559 666 3084 287 
Q 2609 -91 1734 -91 
Q 1441 -91 1130 -33 
Q 819 25 488 141 
L 488 750 
Q 750 597 1062 519 
Q 1375 441 1716 441 
Q 2309 441 2620 675 
Q 2931 909 2931 1356 
Q 2931 1769 2642 2001 
Q 2353 2234 1838 2234 
L 1294 2234 
L 1294 2753 
L 1863 2753 
Q 2328 2753 2575 2939 
Q 2822 3125 2822 3475 
Q 2822 3834 2567 4026 
Q 2313 4219 1838 4219 
Q 1578 4219 1281 4162 
Q 984 4106 628 3988 
L 628 4550 
Q 988 4650 1302 4700 
Q 1616 4750 1894 4750 
Q 2613 4750 3031 4423 
Q 3450 4097 3450 3541 
Q 3450 3153 3228 2886 
Q 3006 2619 2597 2516 
z
" transform="scale(0.015625)"/>
       </defs>
       <use xlink:href="#DejaVuSans-30"/>
       <use xlink:href="#DejaVuSans-2e" x="63.623047"/>
       <use xlink:href="#DejaVuSans-33" x="95.410156"/>
      </g>
     </g>
    </g>
    <g id="xtick_5">
     <g id="line2d_9">
      <path d="M 291.606667 305.8 
L 291.606667 29.76 
" clip-path="url(#p813e3488e2)" style="fill: none; stroke: #b0b0b0; stroke-width: 0.8; stroke-linecap: square"/>
     </g>
     <g id="line2d_10">
      <g>
       <use xlink:href="#m331fce45c3" x="291.606667" y="305.8" style="stroke: #000000; stroke-width: 0.8"/>
      </g>
     </g>
     <g id="text_5">
      <!-- 0.4 -->
      <g transform="translate(282.064792 321.918125) scale(0.12 -0.12)">
       <defs>
        <path id="DejaVuSans-34" d="M 2419 4116 
L 825 1625 
L 2419 1625 
L 2419 4116 
z
M 2253 4666 
L 3047 4666 
L 3047 1625 
L 3713 1625 
L 3713 1100 
L 3047 1100 
L 3047 0 
L 2419 0 
L 2419 1100 
L 313 1100 
L 313 1709 
L 2253 4666 
z
" transform="scale(0.015625)"/>
       </defs>
       <use xlink:href="#DejaVuSans-30"/>
       <use xlink:href="#DejaVuSans-2e" x="63.623047"/>
       <use xlink:href="#DejaVuSans-34" x="95.410156"/>
      </g>
     </g>
    </g>
    <g id="xtick_6">
     <g id="line2d_11">
      <path d="M 351.633333 305.8 
L 351.633333 29.76 
" clip-path="url(#p813e3488e2)" style="fill: none; stroke: #b0b0b0; stroke-width: 0.8; stroke-linecap: square"/>
     </g>
     <g id="line2d_12">
      <g>
       <use xlink:href="#m331fce45c3" x="351.633333" y="305.8" style="stroke: #000000; stroke-width: 0.8"/>
      </g>
     </g>
     <g id="text_6">
      <!-- 0.5 -->
      <g transform="translate(342.091458 321.918125) scale(0.12 -0.12)">
       <defs>
        <path id="DejaVuSans-35" d="M 691 4666 
L 3169 4666 
L 3169 4134 
L 1269 4134 
L 1269 2991 
Q 1406 3038 1543 3061 
Q 1681 3084 1819 3084 
Q 2600 3084 3056 2656 
Q 3513 2228 3513 1497 
Q 3513 744 3044 326 
Q 2575 -91 1722 -91 
Q 1428 -91 1123 -41 
Q 819 9 494 109 
L 494 744 
Q 775 591 1075 516 
Q 1375 441 1709 441 
Q 2250 441 2565 725 
Q 2881 1009 2881 1497 
Q 2881 1984 2565 2268 
Q 2250 2553 1709 2553 
Q 1456 2553 1204 2497 
Q 953 2441 691 2322 
L 691 4666 
z
" transform="scale(0.015625)"/>
       </defs>
       <use xlink:href="#DejaVuSans-30"/>
       <use xlink:href="#DejaVuSans-2e" x="63.623047"/>
       <use xlink:href="#DejaVuSans-35" x="95.410156"/>
      </g>
     </g>
    </g>
    <g id="xtick_7">
     <g id="line2d_13">
      <path d="M 411.66 305.8 
L 411.66 29.76 
" clip-path="url(#p813e3488e2)" style="fill: none; stroke: #b0b0b0; stroke-width: 0.8; stroke-linecap: square"/>
     </g>
     <g id="line2d_14">
      <g>
       <use xlink:href="#m331fce45c3" x="411.66" y="305.8" style="stroke: #000000; stroke-width: 0.8"/>
      </g>
     </g>
     <g id="text_7">
      <!-- 0.6 -->
      <g transform="translate(402.118125 321.918125) scale(0.12 -0.12)">
       <defs>
        <path id="DejaVuSans-36" d="M 2113 2584 
Q 1688 2584 1439 2293 
Q 1191 2003 1191 1497 
Q 1191 994 1439 701 
Q 1688 409 2113 409 
Q 2538 409 2786 701 
Q 3034 994 3034 1497 
Q 3034 2003 2786 2293 
Q 2538 2584 2113 2584 
z
M 3366 4563 
L 3366 3988 
Q 3128 4100 2886 4159 
Q 2644 4219 2406 4219 
Q 1781 4219 1451 3797 
Q 1122 3375 1075 2522 
Q 1259 2794 1537 2939 
Q 1816 3084 2150 3084 
Q 2853 3084 3261 2657 
Q 3669 2231 3669 1497 
Q 3669 778 3244 343 
Q 2819 -91 2113 -91 
Q 1303 -91 875 529 
Q 447 1150 447 2328 
Q 447 3434 972 4092 
Q 1497 4750 2381 4750 
Q 2619 4750 2861 4703 
Q 3103 4656 3366 4563 
z
" transform="scale(0.015625)"/>
       </defs>
       <use xlink:href="#DejaVuSans-30"/>
       <use xlink:href="#DejaVuSans-2e" x="63.623047"/>
       <use xlink:href="#DejaVuSans-36" x="95.410156"/>
      </g>
     </g>
    </g>
    <g id="text_8">
     <!-- $\sigma_{f}^{max} (ev/Å)$ -->
     <g transform="translate(192.28 342.36375) scale(0.15 -0.15)">
      <defs>
       <path id="DejaVuSans-Oblique-3c3" d="M 2219 3044 
Q 1744 3044 1422 2700 
Q 1081 2341 969 1747 
Q 844 1119 1044 756 
Q 1241 397 1706 397 
Q 2166 397 2503 759 
Q 2844 1122 2966 1747 
Q 3075 2319 2881 2700 
Q 2700 3044 2219 3044 
z
M 2309 3503 
L 4219 3500 
L 4106 2925 
L 3463 2925 
Q 3706 2438 3575 1747 
Q 3406 888 2884 400 
Q 2359 -91 1609 -91 
Q 856 -91 525 400 
Q 194 888 363 1747 
Q 528 2609 1050 3097 
Q 1484 3503 2309 3503 
z
" transform="scale(0.015625)"/>
       <path id="DejaVuSans-Oblique-6d" d="M 5747 2113 
L 5338 0 
L 4763 0 
L 5166 2094 
Q 5191 2228 5203 2325 
Q 5216 2422 5216 2491 
Q 5216 2772 5059 2928 
Q 4903 3084 4622 3084 
Q 4203 3084 3875 2770 
Q 3547 2456 3450 1953 
L 3066 0 
L 2491 0 
L 2900 2094 
Q 2925 2209 2937 2307 
Q 2950 2406 2950 2484 
Q 2950 2769 2794 2926 
Q 2638 3084 2363 3084 
Q 1938 3084 1609 2770 
Q 1281 2456 1184 1953 
L 800 0 
L 225 0 
L 909 3500 
L 1484 3500 
L 1375 2956 
Q 1609 3263 1923 3423 
Q 2238 3584 2597 3584 
Q 2978 3584 3223 3384 
Q 3469 3184 3519 2828 
Q 3781 3197 4126 3390 
Q 4472 3584 4856 3584 
Q 5306 3584 5551 3325 
Q 5797 3066 5797 2591 
Q 5797 2488 5784 2364 
Q 5772 2241 5747 2113 
z
" transform="scale(0.015625)"/>
       <path id="DejaVuSans-Oblique-61" d="M 3438 1997 
L 3047 0 
L 2472 0 
L 2578 531 
Q 2325 219 2001 64 
Q 1678 -91 1281 -91 
Q 834 -91 548 182 
Q 263 456 263 884 
Q 263 1497 752 1853 
Q 1241 2209 2100 2209 
L 2900 2209 
L 2931 2363 
Q 2938 2388 2941 2417 
Q 2944 2447 2944 2509 
Q 2944 2788 2717 2942 
Q 2491 3097 2081 3097 
Q 1800 3097 1504 3025 
Q 1209 2953 897 2809 
L 997 3341 
Q 1322 3463 1633 3523 
Q 1944 3584 2234 3584 
Q 2853 3584 3176 3315 
Q 3500 3047 3500 2534 
Q 3500 2431 3484 2292 
Q 3469 2153 3438 1997 
z
M 2816 1759 
L 2241 1759 
Q 1534 1759 1195 1570 
Q 856 1381 856 984 
Q 856 709 1029 553 
Q 1203 397 1509 397 
Q 1978 397 2328 733 
Q 2678 1069 2791 1631 
L 2816 1759 
z
" transform="scale(0.015625)"/>
       <path id="DejaVuSans-Oblique-78" d="M 3841 3500 
L 2234 1784 
L 3219 0 
L 2559 0 
L 1819 1388 
L 531 0 
L -166 0 
L 1556 1844 
L 641 3500 
L 1300 3500 
L 1972 2234 
L 3144 3500 
L 3841 3500 
z
" transform="scale(0.015625)"/>
       <path id="DejaVuSans-Oblique-66" d="M 3059 4863 
L 2969 4384 
L 2419 4384 
Q 2106 4384 1964 4261 
Q 1822 4138 1753 3809 
L 1691 3500 
L 2638 3500 
L 2553 3053 
L 1606 3053 
L 1013 0 
L 434 0 
L 1031 3053 
L 481 3053 
L 563 3500 
L 1113 3500 
L 1159 3744 
Q 1278 4363 1576 4613 
Q 1875 4863 2516 4863 
L 3059 4863 
z
" transform="scale(0.015625)"/>
       <path id="DejaVuSans-28" d="M 1984 4856 
Q 1566 4138 1362 3434 
Q 1159 2731 1159 2009 
Q 1159 1288 1364 580 
Q 1569 -128 1984 -844 
L 1484 -844 
Q 1016 -109 783 600 
Q 550 1309 550 2009 
Q 550 2706 781 3412 
Q 1013 4119 1484 4856 
L 1984 4856 
z
" transform="scale(0.015625)"/>
       <path id="DejaVuSans-Oblique-65" d="M 3078 2063 
Q 3088 2113 3092 2166 
Q 3097 2219 3097 2272 
Q 3097 2653 2873 2875 
Q 2650 3097 2266 3097 
Q 1838 3097 1509 2826 
Q 1181 2556 1013 2059 
L 3078 2063 
z
M 3578 1613 
L 903 1613 
Q 884 1494 878 1425 
Q 872 1356 872 1306 
Q 872 872 1139 634 
Q 1406 397 1894 397 
Q 2269 397 2603 481 
Q 2938 566 3225 728 
L 3116 159 
Q 2806 34 2476 -28 
Q 2147 -91 1806 -91 
Q 1078 -91 686 257 
Q 294 606 294 1247 
Q 294 1794 489 2264 
Q 684 2734 1063 3103 
Q 1306 3334 1642 3459 
Q 1978 3584 2356 3584 
Q 2950 3584 3301 3228 
Q 3653 2872 3653 2272 
Q 3653 2128 3634 1964 
Q 3616 1800 3578 1613 
z
" transform="scale(0.015625)"/>
       <path id="DejaVuSans-Oblique-76" d="M 459 3500 
L 1069 3500 
L 1581 525 
L 3256 3500 
L 3866 3500 
L 1875 0 
L 1100 0 
L 459 3500 
z
" transform="scale(0.015625)"/>
       <path id="DejaVuSans-2f" d="M 1625 4666 
L 2156 4666 
L 531 -594 
L 0 -594 
L 1625 4666 
z
" transform="scale(0.015625)"/>
       <path id="DejaVuSans-Oblique-c5" d="M 3188 5081 
Q 3188 5278 3048 5417 
Q 2909 5556 2713 5556 
Q 2513 5556 2377 5420 
Q 2241 5284 2241 5081 
Q 2241 4884 2377 4746 
Q 2513 4609 2713 4609 
Q 2909 4609 3048 4746 
Q 3188 4884 3188 5081 
z
M 2203 4397 
Q 2034 4513 1945 4689 
Q 1856 4866 1856 5081 
Q 1856 5438 2106 5689 
Q 2356 5941 2713 5941 
Q 3069 5941 3320 5689 
Q 3572 5438 3572 5081 
Q 3572 4834 3458 4643 
Q 3344 4453 3128 4341 
L 3938 0 
L 3278 0 
L 3084 1197 
L 984 1197 
L 325 0 
L -341 0 
L 2203 4397 
z
M 2584 4044 
L 1275 1722 
L 2988 1722 
L 2584 4044 
z
" transform="scale(0.015625)"/>
       <path id="DejaVuSans-29" d="M 513 4856 
L 1013 4856 
Q 1481 4119 1714 3412 
Q 1947 2706 1947 2009 
Q 1947 1309 1714 600 
Q 1481 -109 1013 -844 
L 513 -844 
Q 928 -128 1133 580 
Q 1338 1288 1338 2009 
Q 1338 2731 1133 3434 
Q 928 4138 513 4856 
z
" transform="scale(0.015625)"/>
      </defs>
      <use xlink:href="#DejaVuSans-Oblique-3c3" transform="translate(0 0.171875)"/>
      <use xlink:href="#DejaVuSans-Oblique-6d" transform="translate(67.851615 39.5125) scale(0.7)"/>
      <use xlink:href="#DejaVuSans-Oblique-61" transform="translate(136.040091 39.5125) scale(0.7)"/>
      <use xlink:href="#DejaVuSans-Oblique-78" transform="translate(178.935599 39.5125) scale(0.7)"/>
      <use xlink:href="#DejaVuSans-Oblique-66" transform="translate(63.378906 -27.171875) scale(0.7)"/>
      <use xlink:href="#DejaVuSans-28" transform="translate(223.095755 0.171875)"/>
      <use xlink:href="#DejaVuSans-Oblique-65" transform="translate(262.109427 0.171875)"/>
      <use xlink:href="#DejaVuSans-Oblique-76" transform="translate(323.632865 0.171875)"/>
      <use xlink:href="#DejaVuSans-2f" transform="translate(382.812552 0.171875)"/>
      <use xlink:href="#DejaVuSans-Oblique-c5" transform="translate(416.503958 0.171875)"/>
      <use xlink:href="#DejaVuSans-29" transform="translate(484.912161 0.171875)"/>
     </g>
    </g>
   </g>
   <g id="matplotlib.axis_2">
    <g id="ytick_1">
     <g id="line2d_15">
      <path d="M 51.5 305.8 
L 411.66 305.8 
" clip-path="url(#p813e3488e2)" style="fill: none; stroke: #b0b0b0; stroke-width: 0.8; stroke-linecap: square"/>
     </g>
     <g id="line2d_16">
      <defs>
       <path id="ma674cb5aa3" d="M 0 0 
L -3.5 0 
" style="stroke: #000000; stroke-width: 0.8"/>
      </defs>
      <g>
       <use xlink:href="#ma674cb5aa3" x="51.5" y="305.8" style="stroke: #000000; stroke-width: 0.8"/>
      </g>
     </g>
     <g id="text_9">
      <!-- 0 -->
      <g transform="translate(36.865 310.359062) scale(0.12 -0.12)">
       <use xlink:href="#DejaVuSans-30"/>
      </g>
     </g>
    </g>
    <g id="ytick_2">
     <g id="line2d_17">
      <path d="M 51.5 271.295 
L 411.66 271.295 
" clip-path="url(#p813e3488e2)" style="fill: none; stroke: #b0b0b0; stroke-width: 0.8; stroke-linecap: square"/>
     </g>
     <g id="line2d_18">
      <g>
       <use xlink:href="#ma674cb5aa3" x="51.5" y="271.295" style="stroke: #000000; stroke-width: 0.8"/>
      </g>
     </g>
     <g id="text_10">
      <!-- 5 -->
      <g transform="translate(36.865 275.854062) scale(0.12 -0.12)">
       <use xlink:href="#DejaVuSans-35"/>
      </g>
     </g>
    </g>
    <g id="ytick_3">
     <g id="line2d_19">
      <path d="M 51.5 236.79 
L 411.66 236.79 
" clip-path="url(#p813e3488e2)" style="fill: none; stroke: #b0b0b0; stroke-width: 0.8; stroke-linecap: square"/>
     </g>
     <g id="line2d_20">
      <g>
       <use xlink:href="#ma674cb5aa3" x="51.5" y="236.79" style="stroke: #000000; stroke-width: 0.8"/>
      </g>
     </g>
     <g id="text_11">
      <!-- 10 -->
      <g transform="translate(29.23 241.349063) scale(0.12 -0.12)">
       <use xlink:href="#DejaVuSans-31"/>
       <use xlink:href="#DejaVuSans-30" x="63.623047"/>
      </g>
     </g>
    </g>
    <g id="ytick_4">
     <g id="line2d_21">
      <path d="M 51.5 202.285 
L 411.66 202.285 
" clip-path="url(#p813e3488e2)" style="fill: none; stroke: #b0b0b0; stroke-width: 0.8; stroke-linecap: square"/>
     </g>
     <g id="line2d_22">
      <g>
       <use xlink:href="#ma674cb5aa3" x="51.5" y="202.285" style="stroke: #000000; stroke-width: 0.8"/>
      </g>
     </g>
     <g id="text_12">
      <!-- 15 -->
      <g transform="translate(29.23 206.844062) scale(0.12 -0.12)">
       <use xlink:href="#DejaVuSans-31"/>
       <use xlink:href="#DejaVuSans-35" x="63.623047"/>
      </g>
     </g>
    </g>
    <g id="ytick_5">
     <g id="line2d_23">
      <path d="M 51.5 167.78 
L 411.66 167.78 
" clip-path="url(#p813e3488e2)" style="fill: none; stroke: #b0b0b0; stroke-width: 0.8; stroke-linecap: square"/>
     </g>
     <g id="line2d_24">
      <g>
       <use xlink:href="#ma674cb5aa3" x="51.5" y="167.78" style="stroke: #000000; stroke-width: 0.8"/>
      </g>
     </g>
     <g id="text_13">
      <!-- 20 -->
      <g transform="translate(29.23 172.339062) scale(0.12 -0.12)">
       <use xlink:href="#DejaVuSans-32"/>
       <use xlink:href="#DejaVuSans-30" x="63.623047"/>
      </g>
     </g>
    </g>
    <g id="ytick_6">
     <g id="line2d_25">
      <path d="M 51.5 133.275 
L 411.66 133.275 
" clip-path="url(#p813e3488e2)" style="fill: none; stroke: #b0b0b0; stroke-width: 0.8; stroke-linecap: square"/>
     </g>
     <g id="line2d_26">
      <g>
       <use xlink:href="#ma674cb5aa3" x="51.5" y="133.275" style="stroke: #000000; stroke-width: 0.8"/>
      </g>
     </g>
     <g id="text_14">
      <!-- 25 -->
      <g transform="translate(29.23 137.834062) scale(0.12 -0.12)">
       <use xlink:href="#DejaVuSans-32"/>
       <use xlink:href="#DejaVuSans-35" x="63.623047"/>
      </g>
     </g>
    </g>
    <g id="ytick_7">
     <g id="line2d_27">
      <path d="M 51.5 98.77 
L 411.66 98.77 
" clip-path="url(#p813e3488e2)" style="fill: none; stroke: #b0b0b0; stroke-width: 0.8; stroke-linecap: square"/>
     </g>
     <g id="line2d_28">
      <g>
       <use xlink:href="#ma674cb5aa3" x="51.5" y="98.77" style="stroke: #000000; stroke-width: 0.8"/>
      </g>
     </g>
     <g id="text_15">
      <!-- 30 -->
      <g transform="translate(29.23 103.329062) scale(0.12 -0.12)">
       <use xlink:href="#DejaVuSans-33"/>
       <use xlink:href="#DejaVuSans-30" x="63.623047"/>
      </g>
     </g>
    </g>
    <g id="ytick_8">
     <g id="line2d_29">
      <path d="M 51.5 64.265 
L 411.66 64.265 
" clip-path="url(#p813e3488e2)" style="fill: none; stroke: #b0b0b0; stroke-width: 0.8; stroke-linecap: square"/>
     </g>
     <g id="line2d_30">
      <g>
       <use xlink:href="#ma674cb5aa3" x="51.5" y="64.265" style="stroke: #000000; stroke-width: 0.8"/>
      </g>
     </g>
     <g id="text_16">
      <!-- 35 -->
      <g transform="translate(29.23 68.824062) scale(0.12 -0.12)">
       <use xlink:href="#DejaVuSans-33"/>
       <use xlink:href="#DejaVuSans-35" x="63.623047"/>
      </g>
     </g>
    </g>
    <g id="ytick_9">
     <g id="line2d_31">
      <path d="M 51.5 29.76 
L 411.66 29.76 
" clip-path="url(#p813e3488e2)" style="fill: none; stroke: #b0b0b0; stroke-width: 0.8; stroke-linecap: square"/>
     </g>
     <g id="line2d_32">
      <g>
       <use xlink:href="#ma674cb5aa3" x="51.5" y="29.76" style="stroke: #000000; stroke-width: 0.8"/>
      </g>
     </g>
     <g id="text_17">
      <!-- 40 -->
      <g transform="translate(29.23 34.319062) scale(0.12 -0.12)">
       <use xlink:href="#DejaVuSans-34"/>
       <use xlink:href="#DejaVuSans-30" x="63.623047"/>
      </g>
     </g>
    </g>
    <g id="text_18">
     <!-- Distribution(%) -->
     <g transform="translate(22.110469 224.511641) rotate(-90) scale(0.15 -0.15)">
      <defs>
       <path id="DejaVuSans-44" d="M 1259 4147 
L 1259 519 
L 2022 519 
Q 2988 519 3436 956 
Q 3884 1394 3884 2338 
Q 3884 3275 3436 3711 
Q 2988 4147 2022 4147 
L 1259 4147 
z
M 628 4666 
L 1925 4666 
Q 3281 4666 3915 4102 
Q 4550 3538 4550 2338 
Q 4550 1131 3912 565 
Q 3275 0 1925 0 
L 628 0 
L 628 4666 
z
" transform="scale(0.015625)"/>
       <path id="DejaVuSans-69" d="M 603 3500 
L 1178 3500 
L 1178 0 
L 603 0 
L 603 3500 
z
M 603 4863 
L 1178 4863 
L 1178 4134 
L 603 4134 
L 603 4863 
z
" transform="scale(0.015625)"/>
       <path id="DejaVuSans-73" d="M 2834 3397 
L 2834 2853 
Q 2591 2978 2328 3040 
Q 2066 3103 1784 3103 
Q 1356 3103 1142 2972 
Q 928 2841 928 2578 
Q 928 2378 1081 2264 
Q 1234 2150 1697 2047 
L 1894 2003 
Q 2506 1872 2764 1633 
Q 3022 1394 3022 966 
Q 3022 478 2636 193 
Q 2250 -91 1575 -91 
Q 1294 -91 989 -36 
Q 684 19 347 128 
L 347 722 
Q 666 556 975 473 
Q 1284 391 1588 391 
Q 1994 391 2212 530 
Q 2431 669 2431 922 
Q 2431 1156 2273 1281 
Q 2116 1406 1581 1522 
L 1381 1569 
Q 847 1681 609 1914 
Q 372 2147 372 2553 
Q 372 3047 722 3315 
Q 1072 3584 1716 3584 
Q 2034 3584 2315 3537 
Q 2597 3491 2834 3397 
z
" transform="scale(0.015625)"/>
       <path id="DejaVuSans-74" d="M 1172 4494 
L 1172 3500 
L 2356 3500 
L 2356 3053 
L 1172 3053 
L 1172 1153 
Q 1172 725 1289 603 
Q 1406 481 1766 481 
L 2356 481 
L 2356 0 
L 1766 0 
Q 1100 0 847 248 
Q 594 497 594 1153 
L 594 3053 
L 172 3053 
L 172 3500 
L 594 3500 
L 594 4494 
L 1172 4494 
z
" transform="scale(0.015625)"/>
       <path id="DejaVuSans-72" d="M 2631 2963 
Q 2534 3019 2420 3045 
Q 2306 3072 2169 3072 
Q 1681 3072 1420 2755 
Q 1159 2438 1159 1844 
L 1159 0 
L 581 0 
L 581 3500 
L 1159 3500 
L 1159 2956 
Q 1341 3275 1631 3429 
Q 1922 3584 2338 3584 
Q 2397 3584 2469 3576 
Q 2541 3569 2628 3553 
L 2631 2963 
z
" transform="scale(0.015625)"/>
       <path id="DejaVuSans-62" d="M 3116 1747 
Q 3116 2381 2855 2742 
Q 2594 3103 2138 3103 
Q 1681 3103 1420 2742 
Q 1159 2381 1159 1747 
Q 1159 1113 1420 752 
Q 1681 391 2138 391 
Q 2594 391 2855 752 
Q 3116 1113 3116 1747 
z
M 1159 2969 
Q 1341 3281 1617 3432 
Q 1894 3584 2278 3584 
Q 2916 3584 3314 3078 
Q 3713 2572 3713 1747 
Q 3713 922 3314 415 
Q 2916 -91 2278 -91 
Q 1894 -91 1617 61 
Q 1341 213 1159 525 
L 1159 0 
L 581 0 
L 581 4863 
L 1159 4863 
L 1159 2969 
z
" transform="scale(0.015625)"/>
       <path id="DejaVuSans-75" d="M 544 1381 
L 544 3500 
L 1119 3500 
L 1119 1403 
Q 1119 906 1312 657 
Q 1506 409 1894 409 
Q 2359 409 2629 706 
Q 2900 1003 2900 1516 
L 2900 3500 
L 3475 3500 
L 3475 0 
L 2900 0 
L 2900 538 
Q 2691 219 2414 64 
Q 2138 -91 1772 -91 
Q 1169 -91 856 284 
Q 544 659 544 1381 
z
M 1991 3584 
L 1991 3584 
z
" transform="scale(0.015625)"/>
       <path id="DejaVuSans-6f" d="M 1959 3097 
Q 1497 3097 1228 2736 
Q 959 2375 959 1747 
Q 959 1119 1226 758 
Q 1494 397 1959 397 
Q 2419 397 2687 759 
Q 2956 1122 2956 1747 
Q 2956 2369 2687 2733 
Q 2419 3097 1959 3097 
z
M 1959 3584 
Q 2709 3584 3137 3096 
Q 3566 2609 3566 1747 
Q 3566 888 3137 398 
Q 2709 -91 1959 -91 
Q 1206 -91 779 398 
Q 353 888 353 1747 
Q 353 2609 779 3096 
Q 1206 3584 1959 3584 
z
" transform="scale(0.015625)"/>
       <path id="DejaVuSans-6e" d="M 3513 2113 
L 3513 0 
L 2938 0 
L 2938 2094 
Q 2938 2591 2744 2837 
Q 2550 3084 2163 3084 
Q 1697 3084 1428 2787 
Q 1159 2491 1159 1978 
L 1159 0 
L 581 0 
L 581 3500 
L 1159 3500 
L 1159 2956 
Q 1366 3272 1645 3428 
Q 1925 3584 2291 3584 
Q 2894 3584 3203 3211 
Q 3513 2838 3513 2113 
z
" transform="scale(0.015625)"/>
       <path id="DejaVuSans-25" d="M 4653 2053 
Q 4381 2053 4226 1822 
Q 4072 1591 4072 1178 
Q 4072 772 4226 539 
Q 4381 306 4653 306 
Q 4919 306 5073 539 
Q 5228 772 5228 1178 
Q 5228 1588 5073 1820 
Q 4919 2053 4653 2053 
z
M 4653 2450 
Q 5147 2450 5437 2106 
Q 5728 1763 5728 1178 
Q 5728 594 5436 251 
Q 5144 -91 4653 -91 
Q 4153 -91 3862 251 
Q 3572 594 3572 1178 
Q 3572 1766 3864 2108 
Q 4156 2450 4653 2450 
z
M 1428 4353 
Q 1159 4353 1004 4120 
Q 850 3888 850 3481 
Q 850 3069 1003 2837 
Q 1156 2606 1428 2606 
Q 1700 2606 1854 2837 
Q 2009 3069 2009 3481 
Q 2009 3884 1853 4118 
Q 1697 4353 1428 4353 
z
M 4250 4750 
L 4750 4750 
L 1831 -91 
L 1331 -91 
L 4250 4750 
z
M 1428 4750 
Q 1922 4750 2215 4408 
Q 2509 4066 2509 3481 
Q 2509 2891 2217 2550 
Q 1925 2209 1428 2209 
Q 931 2209 642 2551 
Q 353 2894 353 3481 
Q 353 4063 643 4406 
Q 934 4750 1428 4750 
z
" transform="scale(0.015625)"/>
      </defs>
      <use xlink:href="#DejaVuSans-44"/>
      <use xlink:href="#DejaVuSans-69" x="77.001953"/>
      <use xlink:href="#DejaVuSans-73" x="104.785156"/>
      <use xlink:href="#DejaVuSans-74" x="156.884766"/>
      <use xlink:href="#DejaVuSans-72" x="196.09375"/>
      <use xlink:href="#DejaVuSans-69" x="237.207031"/>
      <use xlink:href="#DejaVuSans-62" x="264.990234"/>
      <use xlink:href="#DejaVuSans-75" x="328.466797"/>
      <use xlink:href="#DejaVuSans-74" x="391.845703"/>
      <use xlink:href="#DejaVuSans-69" x="431.054688"/>
      <use xlink:href="#DejaVuSans-6f" x="458.837891"/>
      <use xlink:href="#DejaVuSans-6e" x="520.019531"/>
      <use xlink:href="#DejaVuSans-28" x="583.398438"/>
      <use xlink:href="#DejaVuSans-25" x="622.412109"/>
      <use xlink:href="#DejaVuSans-29" x="717.431641"/>
     </g>
    </g>
   </g>
   <g id="line2d_33">
    <path d="M 93.442663 305.731088 
L 99.745918 305.541798 
L 103.948088 305.241895 
L 107.099716 304.858893 
L 110.251343 304.284105 
L 113.40297 303.462601 
L 116.554598 302.34072 
L 118.655683 301.401743 
L 120.756768 300.29484 
L 122.857853 299.008083 
L 124.958938 297.529526 
L 127.060023 295.846022 
L 129.161108 293.941978 
L 131.262193 291.798376 
L 133.363277 289.392483 
L 135.464362 286.698624 
L 137.565447 283.690308 
L 139.666532 280.343798 
L 141.767617 276.642971 
L 143.868702 272.585023 
L 147.02033 265.870903 
L 150.171957 258.557665 
L 157.525754 241.119814 
L 159.626839 236.693999 
L 161.727924 232.811395 
L 163.829009 229.621467 
L 164.879552 228.326812 
L 165.930094 227.25026 
L 166.980637 226.402501 
L 168.031179 225.79184 
L 169.081722 225.42409 
L 170.132264 225.302521 
L 171.182807 225.427857 
L 172.233349 225.798324 
L 173.283891 226.409744 
L 174.334434 227.255666 
L 175.384976 228.327534 
L 176.435519 229.61488 
L 178.536604 232.785889 
L 180.637689 236.655215 
L 182.738774 241.093501 
L 185.890401 248.515415 
L 196.395826 274.540486 
L 199.547453 281.348707 
L 201.648538 285.408453 
L 203.749623 289.045231 
L 205.850708 292.244247 
L 207.951793 295.006373 
L 210.052878 297.346184 
L 212.153963 299.28948 
L 214.255048 300.870425 
L 216.356133 302.128494 
L 218.457218 303.105448 
L 220.558303 303.842552 
L 222.659388 304.378214 
L 225.811015 304.876322 
L 228.962643 305.084962 
L 232.11427 305.062546 
L 235.265897 304.84161 
L 238.417525 304.439309 
L 242.619695 303.649279 
L 247.872407 302.37217 
L 254.175662 300.846482 
L 257.327289 300.30614 
L 260.478917 300.026707 
L 263.630544 300.051724 
L 266.782172 300.377305 
L 269.933799 300.953201 
L 275.186511 302.234641 
L 281.489766 303.776325 
L 285.691936 304.569503 
L 289.894106 305.120245 
L 294.096276 305.458842 
L 300.399531 305.698671 
L 302.500616 305.73556 
L 302.500616 305.73556 
" clip-path="url(#p813e3488e2)" style="fill: none; stroke: #b40426; stroke-width: 2; stroke-linecap: square"/>
   </g>
   <g id="line2d_34">
    <path d="M 97.048545 305.78826 
L 103.077179 305.649956 
L 106.091496 305.397261 
L 109.105813 304.8943 
L 112.12013 304.059965 
L 115.134447 302.859569 
L 118.148764 301.270385 
L 121.163081 299.239572 
L 124.177398 296.731787 
L 127.191715 293.792196 
L 130.206032 290.415815 
L 131.71319 288.47336 
L 133.220349 286.24952 
L 134.727507 283.623567 
L 136.234666 280.459004 
L 137.741824 276.622197 
L 139.248983 272.005156 
L 140.756141 266.549703 
L 142.2633 260.268853 
L 143.770458 253.259962 
L 146.784775 237.852399 
L 149.799092 222.42297 
L 151.306251 215.414585 
L 152.813409 209.201925 
L 154.320568 203.977288 
L 155.827726 199.898753 
L 157.334885 197.098197 
L 158.842043 195.681803 
L 160.349202 195.71966 
L 161.85636 197.227674 
L 163.363519 200.150001 
L 164.870677 204.351175 
L 166.377836 209.6237 
L 167.884994 215.710772 
L 170.899311 229.245179 
L 175.420786 249.648033 
L 178.435103 261.719091 
L 179.942262 267.057154 
L 181.44942 271.85489 
L 182.956579 276.070031 
L 184.463737 279.679462 
L 185.970896 282.687215 
L 187.478054 285.129914 
L 188.985213 287.077047 
L 190.492371 288.624849 
L 191.99953 289.884399 
L 195.013847 291.966049 
L 199.535322 295.013855 
L 207.071115 300.269009 
L 210.085432 301.958003 
L 211.59259 302.614794 
L 213.099749 303.114743 
L 214.606907 303.444184 
L 216.114066 303.603738 
L 217.621224 303.611063 
L 220.635541 303.317392 
L 223.649858 302.940096 
L 226.664175 302.818988 
L 229.678492 303.072683 
L 234.199968 303.865392 
L 238.721443 304.56496 
L 243.242919 304.942119 
L 258.314504 305.702094 
L 264.343138 305.71458 
L 270.371772 305.466459 
L 279.414723 304.965785 
L 283.936198 305.000956 
L 289.964832 305.351113 
L 295.993466 305.6733 
L 303.529259 305.786858 
L 312.57221 305.677596 
L 324.629478 305.300769 
L 330.658112 305.520461 
L 338.193904 305.759335 
L 350.251172 305.799799 
L 365.322757 305.709518 
L 380.394342 305.344061 
L 393.958769 305.779774 
L 396.973086 305.794378 
L 396.973086 305.794378 
" clip-path="url(#p813e3488e2)" style="fill: none; stroke: #e26953; stroke-width: 2; stroke-linecap: square"/>
   </g>
   <g id="line2d_35">
    <path d="M 98.43898 305.796387 
L 100.87425 305.718487 
L 102.091885 305.528183 
L 103.30952 305.067248 
L 104.527155 304.153958 
L 105.74479 302.573873 
L 106.962425 299.963281 
L 108.18006 295.614563 
L 109.397695 288.503305 
L 110.61533 277.707565 
L 111.832965 262.887631 
L 113.0506 244.388318 
L 115.48587 200.418007 
L 116.703505 178.442524 
L 117.92114 159.391622 
L 119.138775 144.827877 
L 120.35641 135.139541 
L 121.574045 129.744899 
L 122.79168 127.849511 
L 124.009315 129.160599 
L 125.22695 133.828126 
L 126.444585 141.699356 
L 127.66222 151.895388 
L 132.53276 197.000834 
L 136.185665 224.724067 
L 138.620935 242.553354 
L 139.83857 250.673325 
L 141.056205 257.682545 
L 142.27384 263.162729 
L 143.491475 267.205463 
L 148.362015 279.745196 
L 150.797285 285.498973 
L 153.232555 290.735681 
L 154.45019 292.860962 
L 155.667825 294.544732 
L 158.103095 297.185658 
L 160.538365 299.595155 
L 161.756 300.518818 
L 162.973635 300.990075 
L 164.19127 301.033836 
L 165.408905 300.918763 
L 166.62654 300.94477 
L 167.844175 301.247055 
L 171.49708 302.886709 
L 172.714715 303.200294 
L 178.80289 304.0797 
L 181.23816 304.327099 
L 183.67343 304.892319 
L 184.891065 305.057373 
L 189.761605 305.220522 
L 192.196875 305.504643 
L 194.632145 305.577508 
L 206.808495 305.373716 
L 212.89667 305.759007 
L 218.984845 305.69573 
L 222.63775 305.663436 
L 226.290655 305.581631 
L 242.11991 305.8 
L 332.224899 305.692475 
L 335.877804 305.696214 
L 340.748344 305.798367 
L 340.748344 305.798367 
" clip-path="url(#p813e3488e2)" style="fill: none; stroke: #f7a789; stroke-width: 2; stroke-linecap: square"/>
   </g>
   <g id="line2d_36">
    <path d="M 97.859561 305.799385 
L 101.52797 305.683846 
L 102.445072 305.498369 
L 103.362174 305.105946 
L 104.279276 304.377682 
L 105.196378 303.14124 
L 106.11348 301.116432 
L 107.030582 297.864219 
L 107.947684 292.847433 
L 108.864786 285.562794 
L 109.781888 275.663141 
L 110.69899 263.104394 
L 112.533195 231.766823 
L 116.201603 163.64086 
L 117.118705 149.762184 
L 118.035807 138.03259 
L 118.952909 128.480373 
L 119.870011 121.697457 
L 120.787113 118.58253 
L 121.704215 119.264914 
L 122.621317 122.804329 
L 123.538419 127.979194 
L 125.372624 140.634537 
L 127.206828 155.51607 
L 129.041032 172.485531 
L 131.792338 200.51003 
L 134.543644 229.082844 
L 135.460746 237.246299 
L 136.377848 244.056908 
L 137.29495 249.385941 
L 139.129155 257.351975 
L 142.797563 272.578691 
L 144.631767 278.174762 
L 145.548869 280.561293 
L 146.465971 282.581339 
L 147.383073 284.117963 
L 150.134379 287.801901 
L 151.968584 290.555535 
L 154.71989 293.74556 
L 156.554094 296.130861 
L 157.471196 297.057761 
L 158.388298 297.783223 
L 159.3054 298.354163 
L 160.222502 298.774162 
L 164.808013 300.190643 
L 166.642217 300.983152 
L 170.310625 303.016232 
L 171.227727 303.318646 
L 172.144829 303.424377 
L 175.813237 303.368199 
L 180.398748 304.366693 
L 183.150054 304.627142 
L 186.818462 305.115521 
L 193.238177 305.370545 
L 197.823687 305.3805 
L 205.160504 305.557823 
L 210.663116 305.708521 
L 228.088055 305.741477 
L 231.756464 305.632656 
L 236.341974 305.76808 
L 241.844586 305.796182 
L 269.357648 305.777835 
L 275.777363 305.751138 
L 280.362873 305.799457 
L 280.362873 305.799457 
" clip-path="url(#p813e3488e2)" style="fill: none; stroke: #edd1c2; stroke-width: 2; stroke-linecap: square"/>
   </g>
   <g id="line2d_37">
    <path d="M -1 305.777864 
L 433 305.776584 
L 433 305.776584 
" clip-path="url(#p813e3488e2)" style="fill: none; stroke: #c9d8ef; stroke-width: 2; stroke-linecap: square"/>
   </g>
   <g id="line2d_38">
    <path d="M 98.36553 305.794349 
L 100.975776 305.698307 
L 102.280899 305.469336 
L 103.586022 304.887505 
L 104.891145 303.6335 
L 106.196268 301.297868 
L 107.501391 297.445264 
L 108.806514 291.659063 
L 110.111637 283.549943 
L 111.41676 272.794276 
L 112.721883 259.266725 
L 114.027006 243.232213 
L 117.942375 190.668942 
L 119.247498 176.549936 
L 120.552622 165.649269 
L 121.857745 157.838862 
L 123.162868 152.831228 
L 124.467991 150.623832 
L 125.773114 151.422071 
L 127.078237 155.201803 
L 128.38336 161.462501 
L 129.688483 169.443703 
L 137.519221 222.783629 
L 140.129467 239.362543 
L 141.43459 246.398982 
L 142.739713 252.029323 
L 144.044836 256.467575 
L 146.655082 263.859628 
L 153.180697 281.633019 
L 154.48582 284.858099 
L 155.790943 287.735754 
L 157.096066 290.123767 
L 158.401189 291.95689 
L 159.706312 293.343138 
L 163.621682 296.799815 
L 164.926805 297.670333 
L 168.842174 299.504371 
L 171.45242 301.10092 
L 172.757543 301.742201 
L 174.062666 302.178414 
L 181.893404 304.008473 
L 185.808773 304.453282 
L 193.639511 304.906943 
L 196.249757 305.061182 
L 200.165126 305.08033 
L 204.080496 305.388168 
L 213.216357 305.560005 
L 215.826603 305.596536 
L 221.047095 305.562998 
L 230.182956 305.690252 
L 236.708571 305.707707 
L 240.62394 305.768852 
L 252.370048 305.646677 
L 260.200786 305.798924 
L 277.167385 305.722344 
L 281.082754 305.655633 
L 291.523739 305.799961 
L 346.338906 305.732449 
L 350.254275 305.651976 
L 358.085013 305.798335 
L 358.085013 305.798335 
" clip-path="url(#p813e3488e2)" style="fill: none; stroke: #9abaff; stroke-width: 2; stroke-linecap: square"/>
   </g>
   <g id="line2d_39">
    <path d="M 95.687766 305.794141 
L 97.918742 305.715329 
L 99.406059 305.447923 
L 100.149718 305.147982 
L 100.893377 304.660531 
L 101.637035 303.910172 
L 102.380694 302.806786 
L 103.124353 301.243351 
L 103.868011 299.092904 
L 104.61167 296.208745 
L 105.355328 292.433653 
L 106.098987 287.621209 
L 106.842646 281.665328 
L 107.586304 274.527449 
L 109.073622 256.954604 
L 110.560939 236.095444 
L 113.535574 192.713721 
L 115.022891 174.165698 
L 116.510208 159.269064 
L 117.253867 153.446375 
L 117.997525 148.856055 
L 118.741184 145.57967 
L 119.484843 143.637099 
L 120.228501 142.973015 
L 120.97216 143.465283 
L 121.715819 144.946589 
L 122.459477 147.228259 
L 123.203136 150.122442 
L 124.690453 157.144902 
L 126.17777 165.410709 
L 127.665088 175.252134 
L 129.152405 186.988619 
L 132.870698 218.790261 
L 134.358015 229.427602 
L 135.845333 238.160924 
L 137.33265 245.436492 
L 141.050943 262.637151 
L 143.281919 272.919134 
L 144.769236 278.413862 
L 145.512895 280.563042 
L 147.000212 283.835753 
L 151.462164 291.662144 
L 152.949481 293.676689 
L 154.436799 295.013337 
L 155.924116 295.876106 
L 159.642409 297.532313 
L 164.104361 300.126644 
L 166.335337 301.005912 
L 167.822654 301.390946 
L 170.05363 301.642979 
L 172.284606 301.84674 
L 173.771923 302.219922 
L 176.746558 303.389778 
L 178.977534 304.245899 
L 180.464851 304.617082 
L 181.952168 304.669119 
L 186.41412 304.183889 
L 187.901438 304.388157 
L 190.876072 304.966662 
L 193.107048 305.140657 
L 196.825341 305.120334 
L 202.77461 304.907484 
L 206.492904 305.406304 
L 209.467538 305.693922 
L 211.698514 305.705266 
L 216.904125 305.569746 
L 222.109735 305.769673 
L 226.571687 305.60123 
L 232.520956 305.413498 
L 236.982908 305.607668 
L 241.44486 305.784446 
L 243.675836 305.798489 
L 243.675836 305.798489 
" clip-path="url(#p813e3488e2)" style="fill: none; stroke: #6889ee; stroke-width: 2; stroke-linecap: square"/>
   </g>
   <g id="line2d_40">
    <path d="M 93.188776 305.796563 
L 95.194971 305.744584 
L 96.198069 305.629667 
L 97.201166 305.352026 
L 98.204264 304.770689 
L 99.207361 303.68531 
L 100.210459 301.825749 
L 101.213557 298.841261 
L 102.216654 294.320923 
L 103.219752 287.861618 
L 104.222849 279.125758 
L 105.225947 267.825023 
L 106.229045 253.703975 
L 107.232142 236.678939 
L 109.238337 196.107199 
L 111.244533 156.148764 
L 112.24763 140.089021 
L 113.250728 127.614188 
L 114.253825 118.971663 
L 115.256923 114.435349 
L 116.260021 114.188677 
L 117.263118 117.80095 
L 118.266216 123.999852 
L 122.278606 153.389524 
L 123.281704 161.852046 
L 124.284801 171.534748 
L 125.287899 182.733249 
L 128.297192 220.030955 
L 129.300289 229.75082 
L 130.303387 237.184835 
L 131.306484 243.013305 
L 133.31268 253.039271 
L 135.318875 261.867524 
L 137.32507 268.707681 
L 139.331265 275.514037 
L 141.33746 283.187391 
L 142.340558 286.590736 
L 143.343656 289.330802 
L 144.346753 291.392768 
L 145.349851 292.938987 
L 148.359144 296.965454 
L 149.362241 298.361177 
L 150.365339 299.538876 
L 151.368436 300.35217 
L 152.371534 300.796694 
L 156.383924 301.644605 
L 159.393217 302.552421 
L 163.405608 303.357567 
L 170.427291 304.3771 
L 174.439681 304.650203 
L 177.448974 304.863624 
L 181.461364 305.548791 
L 184.470657 305.681252 
L 187.47995 305.502401 
L 189.486145 305.433694 
L 193.498535 305.666007 
L 197.510926 305.795969 
L 202.526414 305.711166 
L 205.535707 305.651212 
L 210.551195 305.735142 
L 214.563585 305.6635 
L 219.579073 305.798067 
L 245.65961 305.749847 
L 249.672001 305.653832 
L 255.690586 305.799327 
L 262.71227 305.700835 
L 265.721562 305.657922 
L 271.740148 305.799466 
L 283.777319 305.735883 
L 286.786612 305.641638 
L 292.805197 305.798232 
L 292.805197 305.798232 
" clip-path="url(#p813e3488e2)" style="fill: none; stroke: #3b4cc0; stroke-width: 2; stroke-linecap: square"/>
   </g>
   <g id="line2d_41">
    <path d="M 171.553333 305.8 
L 171.553333 29.76 
" clip-path="url(#p813e3488e2)" style="fill: none; stroke-dasharray: 5.55,2.4; stroke-dashoffset: 0; stroke: #000000; stroke-width: 1.5"/>
   </g>
   <g id="line2d_42">
    <path d="M 291.606667 305.8 
L 291.606667 29.76 
" clip-path="url(#p813e3488e2)" style="fill: none; stroke-dasharray: 5.55,2.4; stroke-dashoffset: 0; stroke: #000000; stroke-width: 1.5"/>
   </g>
   <g id="patch_3">
    <path d="M 51.5 305.8 
L 51.5 29.76 
" style="fill: none; stroke: #000000; stroke-width: 0.8; stroke-linejoin: miter; stroke-linecap: square"/>
   </g>
   <g id="patch_4">
    <path d="M 411.66 305.8 
L 411.66 29.76 
" style="fill: none; stroke: #000000; stroke-width: 0.8; stroke-linejoin: miter; stroke-linecap: square"/>
   </g>
   <g id="patch_5">
    <path d="M 51.5 305.8 
L 411.66 305.8 
" style="fill: none; stroke: #000000; stroke-width: 0.8; stroke-linejoin: miter; stroke-linecap: square"/>
   </g>
   <g id="patch_6">
    <path d="M 51.5 29.76 
L 411.66 29.76 
" style="fill: none; stroke: #000000; stroke-width: 0.8; stroke-linejoin: miter; stroke-linecap: square"/>
   </g>
   <g id="text_19">
    <!-- Active Learning in 300K for CNT(6,6) in Water -->
    <g transform="translate(49.12875 23.76) scale(0.16 -0.16)">
     <defs>
      <path id="DejaVuSans-41" d="M 2188 4044 
L 1331 1722 
L 3047 1722 
L 2188 4044 
z
M 1831 4666 
L 2547 4666 
L 4325 0 
L 3669 0 
L 3244 1197 
L 1141 1197 
L 716 0 
L 50 0 
L 1831 4666 
z
" transform="scale(0.015625)"/>
      <path id="DejaVuSans-63" d="M 3122 3366 
L 3122 2828 
Q 2878 2963 2633 3030 
Q 2388 3097 2138 3097 
Q 1578 3097 1268 2742 
Q 959 2388 959 1747 
Q 959 1106 1268 751 
Q 1578 397 2138 397 
Q 2388 397 2633 464 
Q 2878 531 3122 666 
L 3122 134 
Q 2881 22 2623 -34 
Q 2366 -91 2075 -91 
Q 1284 -91 818 406 
Q 353 903 353 1747 
Q 353 2603 823 3093 
Q 1294 3584 2113 3584 
Q 2378 3584 2631 3529 
Q 2884 3475 3122 3366 
z
" transform="scale(0.015625)"/>
      <path id="DejaVuSans-76" d="M 191 3500 
L 800 3500 
L 1894 563 
L 2988 3500 
L 3597 3500 
L 2284 0 
L 1503 0 
L 191 3500 
z
" transform="scale(0.015625)"/>
      <path id="DejaVuSans-65" d="M 3597 1894 
L 3597 1613 
L 953 1613 
Q 991 1019 1311 708 
Q 1631 397 2203 397 
Q 2534 397 2845 478 
Q 3156 559 3463 722 
L 3463 178 
Q 3153 47 2828 -22 
Q 2503 -91 2169 -91 
Q 1331 -91 842 396 
Q 353 884 353 1716 
Q 353 2575 817 3079 
Q 1281 3584 2069 3584 
Q 2775 3584 3186 3129 
Q 3597 2675 3597 1894 
z
M 3022 2063 
Q 3016 2534 2758 2815 
Q 2500 3097 2075 3097 
Q 1594 3097 1305 2825 
Q 1016 2553 972 2059 
L 3022 2063 
z
" transform="scale(0.015625)"/>
      <path id="DejaVuSans-20" transform="scale(0.015625)"/>
      <path id="DejaVuSans-4c" d="M 628 4666 
L 1259 4666 
L 1259 531 
L 3531 531 
L 3531 0 
L 628 0 
L 628 4666 
z
" transform="scale(0.015625)"/>
      <path id="DejaVuSans-61" d="M 2194 1759 
Q 1497 1759 1228 1600 
Q 959 1441 959 1056 
Q 959 750 1161 570 
Q 1363 391 1709 391 
Q 2188 391 2477 730 
Q 2766 1069 2766 1631 
L 2766 1759 
L 2194 1759 
z
M 3341 1997 
L 3341 0 
L 2766 0 
L 2766 531 
Q 2569 213 2275 61 
Q 1981 -91 1556 -91 
Q 1019 -91 701 211 
Q 384 513 384 1019 
Q 384 1609 779 1909 
Q 1175 2209 1959 2209 
L 2766 2209 
L 2766 2266 
Q 2766 2663 2505 2880 
Q 2244 3097 1772 3097 
Q 1472 3097 1187 3025 
Q 903 2953 641 2809 
L 641 3341 
Q 956 3463 1253 3523 
Q 1550 3584 1831 3584 
Q 2591 3584 2966 3190 
Q 3341 2797 3341 1997 
z
" transform="scale(0.015625)"/>
      <path id="DejaVuSans-67" d="M 2906 1791 
Q 2906 2416 2648 2759 
Q 2391 3103 1925 3103 
Q 1463 3103 1205 2759 
Q 947 2416 947 1791 
Q 947 1169 1205 825 
Q 1463 481 1925 481 
Q 2391 481 2648 825 
Q 2906 1169 2906 1791 
z
M 3481 434 
Q 3481 -459 3084 -895 
Q 2688 -1331 1869 -1331 
Q 1566 -1331 1297 -1286 
Q 1028 -1241 775 -1147 
L 775 -588 
Q 1028 -725 1275 -790 
Q 1522 -856 1778 -856 
Q 2344 -856 2625 -561 
Q 2906 -266 2906 331 
L 2906 616 
Q 2728 306 2450 153 
Q 2172 0 1784 0 
Q 1141 0 747 490 
Q 353 981 353 1791 
Q 353 2603 747 3093 
Q 1141 3584 1784 3584 
Q 2172 3584 2450 3431 
Q 2728 3278 2906 2969 
L 2906 3500 
L 3481 3500 
L 3481 434 
z
" transform="scale(0.015625)"/>
      <path id="DejaVuSans-4b" d="M 628 4666 
L 1259 4666 
L 1259 2694 
L 3353 4666 
L 4166 4666 
L 1850 2491 
L 4331 0 
L 3500 0 
L 1259 2247 
L 1259 0 
L 628 0 
L 628 4666 
z
" transform="scale(0.015625)"/>
      <path id="DejaVuSans-66" d="M 2375 4863 
L 2375 4384 
L 1825 4384 
Q 1516 4384 1395 4259 
Q 1275 4134 1275 3809 
L 1275 3500 
L 2222 3500 
L 2222 3053 
L 1275 3053 
L 1275 0 
L 697 0 
L 697 3053 
L 147 3053 
L 147 3500 
L 697 3500 
L 697 3744 
Q 697 4328 969 4595 
Q 1241 4863 1831 4863 
L 2375 4863 
z
" transform="scale(0.015625)"/>
      <path id="DejaVuSans-43" d="M 4122 4306 
L 4122 3641 
Q 3803 3938 3442 4084 
Q 3081 4231 2675 4231 
Q 1875 4231 1450 3742 
Q 1025 3253 1025 2328 
Q 1025 1406 1450 917 
Q 1875 428 2675 428 
Q 3081 428 3442 575 
Q 3803 722 4122 1019 
L 4122 359 
Q 3791 134 3420 21 
Q 3050 -91 2638 -91 
Q 1578 -91 968 557 
Q 359 1206 359 2328 
Q 359 3453 968 4101 
Q 1578 4750 2638 4750 
Q 3056 4750 3426 4639 
Q 3797 4528 4122 4306 
z
" transform="scale(0.015625)"/>
      <path id="DejaVuSans-4e" d="M 628 4666 
L 1478 4666 
L 3547 763 
L 3547 4666 
L 4159 4666 
L 4159 0 
L 3309 0 
L 1241 3903 
L 1241 0 
L 628 0 
L 628 4666 
z
" transform="scale(0.015625)"/>
      <path id="DejaVuSans-54" d="M -19 4666 
L 3928 4666 
L 3928 4134 
L 2272 4134 
L 2272 0 
L 1638 0 
L 1638 4134 
L -19 4134 
L -19 4666 
z
" transform="scale(0.015625)"/>
      <path id="DejaVuSans-2c" d="M 750 794 
L 1409 794 
L 1409 256 
L 897 -744 
L 494 -744 
L 750 256 
L 750 794 
z
" transform="scale(0.015625)"/>
      <path id="DejaVuSans-57" d="M 213 4666 
L 850 4666 
L 1831 722 
L 2809 4666 
L 3519 4666 
L 4500 722 
L 5478 4666 
L 6119 4666 
L 4947 0 
L 4153 0 
L 3169 4050 
L 2175 0 
L 1381 0 
L 213 4666 
z
" transform="scale(0.015625)"/>
     </defs>
     <use xlink:href="#DejaVuSans-41"/>
     <use xlink:href="#DejaVuSans-63" x="66.658203"/>
     <use xlink:href="#DejaVuSans-74" x="121.638672"/>
     <use xlink:href="#DejaVuSans-69" x="160.847656"/>
     <use xlink:href="#DejaVuSans-76" x="188.630859"/>
     <use xlink:href="#DejaVuSans-65" x="247.810547"/>
     <use xlink:href="#DejaVuSans-20" x="309.333984"/>
     <use xlink:href="#DejaVuSans-4c" x="341.121094"/>
     <use xlink:href="#DejaVuSans-65" x="395.083984"/>
     <use xlink:href="#DejaVuSans-61" x="456.607422"/>
     <use xlink:href="#DejaVuSans-72" x="517.886719"/>
     <use xlink:href="#DejaVuSans-6e" x="557.25"/>
     <use xlink:href="#DejaVuSans-69" x="620.628906"/>
     <use xlink:href="#DejaVuSans-6e" x="648.412109"/>
     <use xlink:href="#DejaVuSans-67" x="711.791016"/>
     <use xlink:href="#DejaVuSans-20" x="775.267578"/>
     <use xlink:href="#DejaVuSans-69" x="807.054688"/>
     <use xlink:href="#DejaVuSans-6e" x="834.837891"/>
     <use xlink:href="#DejaVuSans-20" x="898.216797"/>
     <use xlink:href="#DejaVuSans-33" x="930.003906"/>
     <use xlink:href="#DejaVuSans-30" x="993.626953"/>
     <use xlink:href="#DejaVuSans-30" x="1057.25"/>
     <use xlink:href="#DejaVuSans-4b" x="1120.873047"/>
     <use xlink:href="#DejaVuSans-20" x="1186.449219"/>
     <use xlink:href="#DejaVuSans-66" x="1218.236328"/>
     <use xlink:href="#DejaVuSans-6f" x="1253.441406"/>
     <use xlink:href="#DejaVuSans-72" x="1314.623047"/>
     <use xlink:href="#DejaVuSans-20" x="1355.736328"/>
     <use xlink:href="#DejaVuSans-43" x="1387.523438"/>
     <use xlink:href="#DejaVuSans-4e" x="1457.347656"/>
     <use xlink:href="#DejaVuSans-54" x="1532.152344"/>
     <use xlink:href="#DejaVuSans-28" x="1593.236328"/>
     <use xlink:href="#DejaVuSans-36" x="1632.25"/>
     <use xlink:href="#DejaVuSans-2c" x="1695.873047"/>
     <use xlink:href="#DejaVuSans-36" x="1727.660156"/>
     <use xlink:href="#DejaVuSans-29" x="1791.283203"/>
     <use xlink:href="#DejaVuSans-20" x="1830.296875"/>
     <use xlink:href="#DejaVuSans-69" x="1862.083984"/>
     <use xlink:href="#DejaVuSans-6e" x="1889.867188"/>
     <use xlink:href="#DejaVuSans-20" x="1953.246094"/>
     <use xlink:href="#DejaVuSans-57" x="1985.033203"/>
     <use xlink:href="#DejaVuSans-61" x="2077.535156"/>
     <use xlink:href="#DejaVuSans-74" x="2138.814453"/>
     <use xlink:href="#DejaVuSans-65" x="2178.023438"/>
     <use xlink:href="#DejaVuSans-72" x="2239.546875"/>
    </g>
   </g>
   <g id="legend_1">
    <g id="patch_7">
     <path d="M 314.339687 155.185 
L 404.66 155.185 
Q 406.66 155.185 406.66 153.185 
L 406.66 36.76 
Q 406.66 34.76 404.66 34.76 
L 314.339687 34.76 
Q 312.339687 34.76 312.339687 36.76 
L 312.339687 153.185 
Q 312.339687 155.185 314.339687 155.185 
z
" style="fill: #ffffff; opacity: 0.8; stroke: #cccccc; stroke-linejoin: miter"/>
    </g>
    <g id="line2d_43">
     <path d="M 316.339687 42.858437 
L 326.339687 42.858437 
L 336.339687 42.858437 
" style="fill: none; stroke: #b40426; stroke-width: 2; stroke-linecap: square"/>
    </g>
    <g id="text_20">
     <!-- Iteration 28 -->
     <g transform="translate(344.339687 46.358437) scale(0.1 -0.1)">
      <defs>
       <path id="DejaVuSans-49" d="M 628 4666 
L 1259 4666 
L 1259 0 
L 628 0 
L 628 4666 
z
" transform="scale(0.015625)"/>
       <path id="DejaVuSans-38" d="M 2034 2216 
Q 1584 2216 1326 1975 
Q 1069 1734 1069 1313 
Q 1069 891 1326 650 
Q 1584 409 2034 409 
Q 2484 409 2743 651 
Q 3003 894 3003 1313 
Q 3003 1734 2745 1975 
Q 2488 2216 2034 2216 
z
M 1403 2484 
Q 997 2584 770 2862 
Q 544 3141 544 3541 
Q 544 4100 942 4425 
Q 1341 4750 2034 4750 
Q 2731 4750 3128 4425 
Q 3525 4100 3525 3541 
Q 3525 3141 3298 2862 
Q 3072 2584 2669 2484 
Q 3125 2378 3379 2068 
Q 3634 1759 3634 1313 
Q 3634 634 3220 271 
Q 2806 -91 2034 -91 
Q 1263 -91 848 271 
Q 434 634 434 1313 
Q 434 1759 690 2068 
Q 947 2378 1403 2484 
z
M 1172 3481 
Q 1172 3119 1398 2916 
Q 1625 2713 2034 2713 
Q 2441 2713 2670 2916 
Q 2900 3119 2900 3481 
Q 2900 3844 2670 4047 
Q 2441 4250 2034 4250 
Q 1625 4250 1398 4047 
Q 1172 3844 1172 3481 
z
" transform="scale(0.015625)"/>
      </defs>
      <use xlink:href="#DejaVuSans-49"/>
      <use xlink:href="#DejaVuSans-74" x="29.492188"/>
      <use xlink:href="#DejaVuSans-65" x="68.701172"/>
      <use xlink:href="#DejaVuSans-72" x="130.224609"/>
      <use xlink:href="#DejaVuSans-61" x="171.337891"/>
      <use xlink:href="#DejaVuSans-74" x="232.617188"/>
      <use xlink:href="#DejaVuSans-69" x="271.826172"/>
      <use xlink:href="#DejaVuSans-6f" x="299.609375"/>
      <use xlink:href="#DejaVuSans-6e" x="360.791016"/>
      <use xlink:href="#DejaVuSans-20" x="424.169922"/>
      <use xlink:href="#DejaVuSans-32" x="455.957031"/>
      <use xlink:href="#DejaVuSans-38" x="519.580078"/>
     </g>
    </g>
    <g id="line2d_44">
     <path d="M 316.339687 57.536563 
L 326.339687 57.536563 
L 336.339687 57.536563 
" style="fill: none; stroke: #e26953; stroke-width: 2; stroke-linecap: square"/>
    </g>
    <g id="text_21">
     <!-- Iteration 30 -->
     <g transform="translate(344.339687 61.036563) scale(0.1 -0.1)">
      <use xlink:href="#DejaVuSans-49"/>
      <use xlink:href="#DejaVuSans-74" x="29.492188"/>
      <use xlink:href="#DejaVuSans-65" x="68.701172"/>
      <use xlink:href="#DejaVuSans-72" x="130.224609"/>
      <use xlink:href="#DejaVuSans-61" x="171.337891"/>
      <use xlink:href="#DejaVuSans-74" x="232.617188"/>
      <use xlink:href="#DejaVuSans-69" x="271.826172"/>
      <use xlink:href="#DejaVuSans-6f" x="299.609375"/>
      <use xlink:href="#DejaVuSans-6e" x="360.791016"/>
      <use xlink:href="#DejaVuSans-20" x="424.169922"/>
      <use xlink:href="#DejaVuSans-33" x="455.957031"/>
      <use xlink:href="#DejaVuSans-30" x="519.580078"/>
     </g>
    </g>
    <g id="line2d_45">
     <path d="M 316.339687 72.214687 
L 326.339687 72.214687 
L 336.339687 72.214687 
" style="fill: none; stroke: #f7a789; stroke-width: 2; stroke-linecap: square"/>
    </g>
    <g id="text_22">
     <!-- Iteration 32 -->
     <g transform="translate(344.339687 75.714687) scale(0.1 -0.1)">
      <use xlink:href="#DejaVuSans-49"/>
      <use xlink:href="#DejaVuSans-74" x="29.492188"/>
      <use xlink:href="#DejaVuSans-65" x="68.701172"/>
      <use xlink:href="#DejaVuSans-72" x="130.224609"/>
      <use xlink:href="#DejaVuSans-61" x="171.337891"/>
      <use xlink:href="#DejaVuSans-74" x="232.617188"/>
      <use xlink:href="#DejaVuSans-69" x="271.826172"/>
      <use xlink:href="#DejaVuSans-6f" x="299.609375"/>
      <use xlink:href="#DejaVuSans-6e" x="360.791016"/>
      <use xlink:href="#DejaVuSans-20" x="424.169922"/>
      <use xlink:href="#DejaVuSans-33" x="455.957031"/>
      <use xlink:href="#DejaVuSans-32" x="519.580078"/>
     </g>
    </g>
    <g id="line2d_46">
     <path d="M 316.339687 86.892812 
L 326.339687 86.892812 
L 336.339687 86.892812 
" style="fill: none; stroke: #edd1c2; stroke-width: 2; stroke-linecap: square"/>
    </g>
    <g id="text_23">
     <!-- Iteration 34 -->
     <g transform="translate(344.339687 90.392812) scale(0.1 -0.1)">
      <use xlink:href="#DejaVuSans-49"/>
      <use xlink:href="#DejaVuSans-74" x="29.492188"/>
      <use xlink:href="#DejaVuSans-65" x="68.701172"/>
      <use xlink:href="#DejaVuSans-72" x="130.224609"/>
      <use xlink:href="#DejaVuSans-61" x="171.337891"/>
      <use xlink:href="#DejaVuSans-74" x="232.617188"/>
      <use xlink:href="#DejaVuSans-69" x="271.826172"/>
      <use xlink:href="#DejaVuSans-6f" x="299.609375"/>
      <use xlink:href="#DejaVuSans-6e" x="360.791016"/>
      <use xlink:href="#DejaVuSans-20" x="424.169922"/>
      <use xlink:href="#DejaVuSans-33" x="455.957031"/>
      <use xlink:href="#DejaVuSans-34" x="519.580078"/>
     </g>
    </g>
    <g id="line2d_47">
     <path d="M 316.339687 101.570937 
L 326.339687 101.570937 
L 336.339687 101.570937 
" style="fill: none; stroke: #c9d8ef; stroke-width: 2; stroke-linecap: square"/>
    </g>
    <g id="text_24">
     <!-- Iteration 36 -->
     <g transform="translate(344.339687 105.070937) scale(0.1 -0.1)">
      <use xlink:href="#DejaVuSans-49"/>
      <use xlink:href="#DejaVuSans-74" x="29.492188"/>
      <use xlink:href="#DejaVuSans-65" x="68.701172"/>
      <use xlink:href="#DejaVuSans-72" x="130.224609"/>
      <use xlink:href="#DejaVuSans-61" x="171.337891"/>
      <use xlink:href="#DejaVuSans-74" x="232.617188"/>
      <use xlink:href="#DejaVuSans-69" x="271.826172"/>
      <use xlink:href="#DejaVuSans-6f" x="299.609375"/>
      <use xlink:href="#DejaVuSans-6e" x="360.791016"/>
      <use xlink:href="#DejaVuSans-20" x="424.169922"/>
      <use xlink:href="#DejaVuSans-33" x="455.957031"/>
      <use xlink:href="#DejaVuSans-36" x="519.580078"/>
     </g>
    </g>
    <g id="line2d_48">
     <path d="M 316.339687 116.249062 
L 326.339687 116.249062 
L 336.339687 116.249062 
" style="fill: none; stroke: #9abaff; stroke-width: 2; stroke-linecap: square"/>
    </g>
    <g id="text_25">
     <!-- Iteration 38 -->
     <g transform="translate(344.339687 119.749062) scale(0.1 -0.1)">
      <use xlink:href="#DejaVuSans-49"/>
      <use xlink:href="#DejaVuSans-74" x="29.492188"/>
      <use xlink:href="#DejaVuSans-65" x="68.701172"/>
      <use xlink:href="#DejaVuSans-72" x="130.224609"/>
      <use xlink:href="#DejaVuSans-61" x="171.337891"/>
      <use xlink:href="#DejaVuSans-74" x="232.617188"/>
      <use xlink:href="#DejaVuSans-69" x="271.826172"/>
      <use xlink:href="#DejaVuSans-6f" x="299.609375"/>
      <use xlink:href="#DejaVuSans-6e" x="360.791016"/>
      <use xlink:href="#DejaVuSans-20" x="424.169922"/>
      <use xlink:href="#DejaVuSans-33" x="455.957031"/>
      <use xlink:href="#DejaVuSans-38" x="519.580078"/>
     </g>
    </g>
    <g id="line2d_49">
     <path d="M 316.339687 130.927187 
L 326.339687 130.927187 
L 336.339687 130.927187 
" style="fill: none; stroke: #6889ee; stroke-width: 2; stroke-linecap: square"/>
    </g>
    <g id="text_26">
     <!-- Iteration 40 -->
     <g transform="translate(344.339687 134.427187) scale(0.1 -0.1)">
      <use xlink:href="#DejaVuSans-49"/>
      <use xlink:href="#DejaVuSans-74" x="29.492188"/>
      <use xlink:href="#DejaVuSans-65" x="68.701172"/>
      <use xlink:href="#DejaVuSans-72" x="130.224609"/>
      <use xlink:href="#DejaVuSans-61" x="171.337891"/>
      <use xlink:href="#DejaVuSans-74" x="232.617188"/>
      <use xlink:href="#DejaVuSans-69" x="271.826172"/>
      <use xlink:href="#DejaVuSans-6f" x="299.609375"/>
      <use xlink:href="#DejaVuSans-6e" x="360.791016"/>
      <use xlink:href="#DejaVuSans-20" x="424.169922"/>
      <use xlink:href="#DejaVuSans-34" x="455.957031"/>
      <use xlink:href="#DejaVuSans-30" x="519.580078"/>
     </g>
    </g>
    <g id="line2d_50">
     <path d="M 316.339687 145.605312 
L 326.339687 145.605312 
L 336.339687 145.605312 
" style="fill: none; stroke: #3b4cc0; stroke-width: 2; stroke-linecap: square"/>
    </g>
    <g id="text_27">
     <!-- Iteration 42 -->
     <g transform="translate(344.339687 149.105312) scale(0.1 -0.1)">
      <use xlink:href="#DejaVuSans-49"/>
      <use xlink:href="#DejaVuSans-74" x="29.492188"/>
      <use xlink:href="#DejaVuSans-65" x="68.701172"/>
      <use xlink:href="#DejaVuSans-72" x="130.224609"/>
      <use xlink:href="#DejaVuSans-61" x="171.337891"/>
      <use xlink:href="#DejaVuSans-74" x="232.617188"/>
      <use xlink:href="#DejaVuSans-69" x="271.826172"/>
      <use xlink:href="#DejaVuSans-6f" x="299.609375"/>
      <use xlink:href="#DejaVuSans-6e" x="360.791016"/>
      <use xlink:href="#DejaVuSans-20" x="424.169922"/>
      <use xlink:href="#DejaVuSans-34" x="455.957031"/>
      <use xlink:href="#DejaVuSans-32" x="519.580078"/>
     </g>
    </g>
   </g>
  </g>
 </g>
 <defs>
  <clipPath id="p813e3488e2">
   <rect x="51.5" y="29.76" width="360.16" height="276.04"/>
  </clipPath>
 </defs>
</svg>
