<?xml version="1.0" encoding="utf-8" standalone="no"?>
<!DOCTYPE svg PUBLIC "-//W3C//DTD SVG 1.1//EN"
  "http://www.w3.org/Graphics/SVG/1.1/DTD/svg11.dtd">
<svg xmlns:xlink="http://www.w3.org/1999/xlink" width="432pt" height="360pt" viewBox="0 0 432 360" xmlns="http://www.w3.org/2000/svg" version="1.1">
 <metadata>
  <rdf:RDF xmlns:dc="http://purl.org/dc/elements/1.1/" xmlns:cc="http://creativecommons.org/ns#" xmlns:rdf="http://www.w3.org/1999/02/22-rdf-syntax-ns#">
   <cc:Work>
    <dc:type rdf:resource="http://purl.org/dc/dcmitype/StillImage"/>
    <dc:date>2023-10-16T13:14:46.760465</dc:date>
    <dc:format>image/svg+xml</dc:format>
    <dc:creator>
     <cc:Agent>
      <dc:title>Matplotlib v3.7.1, https://matplotlib.org/</dc:title>
     </cc:Agent>
    </dc:creator>
   </cc:Work>
  </rdf:RDF>
 </metadata>
 <defs>
  <style type="text/css">*{stroke-linejoin: round; stroke-linecap: butt}</style>
 </defs>
 <g id="figure_1">
  <g id="patch_1">
   <path d="M 0 360 
L 432 360 
L 432 0 
L 0 0 
L 0 360 
z
" style="fill: none"/>
  </g>
  <g id="axes_1">
   <g id="patch_2">
    <path d="M 51.5 305.8 
L 411.66 305.8 
L 411.66 29.76 
L 51.5 29.76 
L 51.5 305.8 
z
" style="fill: none"/>
   </g>
   <g id="matplotlib.axis_1">
    <g id="xtick_1">
     <g id="line2d_1">
      <path d="M 51.5 305.8 
L 51.5 29.76 
" clip-path="url(#pc226b191ef)" style="fill: none; stroke: #b0b0b0; stroke-width: 0.8; stroke-linecap: square"/>
     </g>
     <g id="line2d_2">
      <defs>
       <path id="mb92844b63e" d="M 0 0 
L 0 3.5 
" style="stroke: #000000; stroke-width: 0.8"/>
      </defs>
      <g>
       <use xlink:href="#mb92844b63e" x="51.5" y="305.8" style="stroke: #000000; stroke-width: 0.8"/>
      </g>
     </g>
     <g id="text_1">
      <!-- 0.0 -->
      <g transform="translate(41.958125 321.918125) scale(0.12 -0.12)">
       <defs>
        <path id="DejaVuSans-30" d="M 2034 4250 
Q 1547 4250 1301 3770 
Q 1056 3291 1056 2328 
Q 1056 1369 1301 889 
Q 1547 409 2034 409 
Q 2525 409 2770 889 
Q 3016 1369 3016 2328 
Q 3016 3291 2770 3770 
Q 2525 4250 2034 4250 
z
M 2034 4750 
Q 2819 4750 3233 4129 
Q 3647 3509 3647 2328 
Q 3647 1150 3233 529 
Q 2819 -91 2034 -91 
Q 1250 -91 836 529 
Q 422 1150 422 2328 
Q 422 3509 836 4129 
Q 1250 4750 2034 4750 
z
" transform="scale(0.015625)"/>
        <path id="DejaVuSans-2e" d="M 684 794 
L 1344 794 
L 1344 0 
L 684 0 
L 684 794 
z
" transform="scale(0.015625)"/>
       </defs>
       <use xlink:href="#DejaVuSans-30"/>
       <use xlink:href="#DejaVuSans-2e" x="63.623047"/>
       <use xlink:href="#DejaVuSans-30" x="95.410156"/>
      </g>
     </g>
    </g>
    <g id="xtick_2">
     <g id="line2d_3">
      <path d="M 111.526667 305.8 
L 111.526667 29.76 
" clip-path="url(#pc226b191ef)" style="fill: none; stroke: #b0b0b0; stroke-width: 0.8; stroke-linecap: square"/>
     </g>
     <g id="line2d_4">
      <g>
       <use xlink:href="#mb92844b63e" x="111.526667" y="305.8" style="stroke: #000000; stroke-width: 0.8"/>
      </g>
     </g>
     <g id="text_2">
      <!-- 0.1 -->
      <g transform="translate(101.984792 321.918125) scale(0.12 -0.12)">
       <defs>
        <path id="DejaVuSans-31" d="M 794 531 
L 1825 531 
L 1825 4091 
L 703 3866 
L 703 4441 
L 1819 4666 
L 2450 4666 
L 2450 531 
L 3481 531 
L 3481 0 
L 794 0 
L 794 531 
z
" transform="scale(0.015625)"/>
       </defs>
       <use xlink:href="#DejaVuSans-30"/>
       <use xlink:href="#DejaVuSans-2e" x="63.623047"/>
       <use xlink:href="#DejaVuSans-31" x="95.410156"/>
      </g>
     </g>
    </g>
    <g id="xtick_3">
     <g id="line2d_5">
      <path d="M 171.553333 305.8 
L 171.553333 29.76 
" clip-path="url(#pc226b191ef)" style="fill: none; stroke: #b0b0b0; stroke-width: 0.8; stroke-linecap: square"/>
     </g>
     <g id="line2d_6">
      <g>
       <use xlink:href="#mb92844b63e" x="171.553333" y="305.8" style="stroke: #000000; stroke-width: 0.8"/>
      </g>
     </g>
     <g id="text_3">
      <!-- 0.2 -->
      <g transform="translate(162.011458 321.918125) scale(0.12 -0.12)">
       <defs>
        <path id="DejaVuSans-32" d="M 1228 531 
L 3431 531 
L 3431 0 
L 469 0 
L 469 531 
Q 828 903 1448 1529 
Q 2069 2156 2228 2338 
Q 2531 2678 2651 2914 
Q 2772 3150 2772 3378 
Q 2772 3750 2511 3984 
Q 2250 4219 1831 4219 
Q 1534 4219 1204 4116 
Q 875 4013 500 3803 
L 500 4441 
Q 881 4594 1212 4672 
Q 1544 4750 1819 4750 
Q 2544 4750 2975 4387 
Q 3406 4025 3406 3419 
Q 3406 3131 3298 2873 
Q 3191 2616 2906 2266 
Q 2828 2175 2409 1742 
Q 1991 1309 1228 531 
z
" transform="scale(0.015625)"/>
       </defs>
       <use xlink:href="#DejaVuSans-30"/>
       <use xlink:href="#DejaVuSans-2e" x="63.623047"/>
       <use xlink:href="#DejaVuSans-32" x="95.410156"/>
      </g>
     </g>
    </g>
    <g id="xtick_4">
     <g id="line2d_7">
      <path d="M 231.58 305.8 
L 231.58 29.76 
" clip-path="url(#pc226b191ef)" style="fill: none; stroke: #b0b0b0; stroke-width: 0.8; stroke-linecap: square"/>
     </g>
     <g id="line2d_8">
      <g>
       <use xlink:href="#mb92844b63e" x="231.58" y="305.8" style="stroke: #000000; stroke-width: 0.8"/>
      </g>
     </g>
     <g id="text_4">
      <!-- 0.3 -->
      <g transform="translate(222.038125 321.918125) scale(0.12 -0.12)">
       <defs>
        <path id="DejaVuSans-33" d="M 2597 2516 
Q 3050 2419 3304 2112 
Q 3559 1806 3559 1356 
Q 3559 666 3084 287 
Q 2609 -91 1734 -91 
Q 1441 -91 1130 -33 
Q 819 25 488 141 
L 488 750 
Q 750 597 1062 519 
Q 1375 441 1716 441 
Q 2309 441 2620 675 
Q 2931 909 2931 1356 
Q 2931 1769 2642 2001 
Q 2353 2234 1838 2234 
L 1294 2234 
L 1294 2753 
L 1863 2753 
Q 2328 2753 2575 2939 
Q 2822 3125 2822 3475 
Q 2822 3834 2567 4026 
Q 2313 4219 1838 4219 
Q 1578 4219 1281 4162 
Q 984 4106 628 3988 
L 628 4550 
Q 988 4650 1302 4700 
Q 1616 4750 1894 4750 
Q 2613 4750 3031 4423 
Q 3450 4097 3450 3541 
Q 3450 3153 3228 2886 
Q 3006 2619 2597 2516 
z
" transform="scale(0.015625)"/>
       </defs>
       <use xlink:href="#DejaVuSans-30"/>
       <use xlink:href="#DejaVuSans-2e" x="63.623047"/>
       <use xlink:href="#DejaVuSans-33" x="95.410156"/>
      </g>
     </g>
    </g>
    <g id="xtick_5">
     <g id="line2d_9">
      <path d="M 291.606667 305.8 
L 291.606667 29.76 
" clip-path="url(#pc226b191ef)" style="fill: none; stroke: #b0b0b0; stroke-width: 0.8; stroke-linecap: square"/>
     </g>
     <g id="line2d_10">
      <g>
       <use xlink:href="#mb92844b63e" x="291.606667" y="305.8" style="stroke: #000000; stroke-width: 0.8"/>
      </g>
     </g>
     <g id="text_5">
      <!-- 0.4 -->
      <g transform="translate(282.064792 321.918125) scale(0.12 -0.12)">
       <defs>
        <path id="DejaVuSans-34" d="M 2419 4116 
L 825 1625 
L 2419 1625 
L 2419 4116 
z
M 2253 4666 
L 3047 4666 
L 3047 1625 
L 3713 1625 
L 3713 1100 
L 3047 1100 
L 3047 0 
L 2419 0 
L 2419 1100 
L 313 1100 
L 313 1709 
L 2253 4666 
z
" transform="scale(0.015625)"/>
       </defs>
       <use xlink:href="#DejaVuSans-30"/>
       <use xlink:href="#DejaVuSans-2e" x="63.623047"/>
       <use xlink:href="#DejaVuSans-34" x="95.410156"/>
      </g>
     </g>
    </g>
    <g id="xtick_6">
     <g id="line2d_11">
      <path d="M 351.633333 305.8 
L 351.633333 29.76 
" clip-path="url(#pc226b191ef)" style="fill: none; stroke: #b0b0b0; stroke-width: 0.8; stroke-linecap: square"/>
     </g>
     <g id="line2d_12">
      <g>
       <use xlink:href="#mb92844b63e" x="351.633333" y="305.8" style="stroke: #000000; stroke-width: 0.8"/>
      </g>
     </g>
     <g id="text_6">
      <!-- 0.5 -->
      <g transform="translate(342.091458 321.918125) scale(0.12 -0.12)">
       <defs>
        <path id="DejaVuSans-35" d="M 691 4666 
L 3169 4666 
L 3169 4134 
L 1269 4134 
L 1269 2991 
Q 1406 3038 1543 3061 
Q 1681 3084 1819 3084 
Q 2600 3084 3056 2656 
Q 3513 2228 3513 1497 
Q 3513 744 3044 326 
Q 2575 -91 1722 -91 
Q 1428 -91 1123 -41 
Q 819 9 494 109 
L 494 744 
Q 775 591 1075 516 
Q 1375 441 1709 441 
Q 2250 441 2565 725 
Q 2881 1009 2881 1497 
Q 2881 1984 2565 2268 
Q 2250 2553 1709 2553 
Q 1456 2553 1204 2497 
Q 953 2441 691 2322 
L 691 4666 
z
" transform="scale(0.015625)"/>
       </defs>
       <use xlink:href="#DejaVuSans-30"/>
       <use xlink:href="#DejaVuSans-2e" x="63.623047"/>
       <use xlink:href="#DejaVuSans-35" x="95.410156"/>
      </g>
     </g>
    </g>
    <g id="xtick_7">
     <g id="line2d_13">
      <path d="M 411.66 305.8 
L 411.66 29.76 
" clip-path="url(#pc226b191ef)" style="fill: none; stroke: #b0b0b0; stroke-width: 0.8; stroke-linecap: square"/>
     </g>
     <g id="line2d_14">
      <g>
       <use xlink:href="#mb92844b63e" x="411.66" y="305.8" style="stroke: #000000; stroke-width: 0.8"/>
      </g>
     </g>
     <g id="text_7">
      <!-- 0.6 -->
      <g transform="translate(402.118125 321.918125) scale(0.12 -0.12)">
       <defs>
        <path id="DejaVuSans-36" d="M 2113 2584 
Q 1688 2584 1439 2293 
Q 1191 2003 1191 1497 
Q 1191 994 1439 701 
Q 1688 409 2113 409 
Q 2538 409 2786 701 
Q 3034 994 3034 1497 
Q 3034 2003 2786 2293 
Q 2538 2584 2113 2584 
z
M 3366 4563 
L 3366 3988 
Q 3128 4100 2886 4159 
Q 2644 4219 2406 4219 
Q 1781 4219 1451 3797 
Q 1122 3375 1075 2522 
Q 1259 2794 1537 2939 
Q 1816 3084 2150 3084 
Q 2853 3084 3261 2657 
Q 3669 2231 3669 1497 
Q 3669 778 3244 343 
Q 2819 -91 2113 -91 
Q 1303 -91 875 529 
Q 447 1150 447 2328 
Q 447 3434 972 4092 
Q 1497 4750 2381 4750 
Q 2619 4750 2861 4703 
Q 3103 4656 3366 4563 
z
" transform="scale(0.015625)"/>
       </defs>
       <use xlink:href="#DejaVuSans-30"/>
       <use xlink:href="#DejaVuSans-2e" x="63.623047"/>
       <use xlink:href="#DejaVuSans-36" x="95.410156"/>
      </g>
     </g>
    </g>
    <g id="text_8">
     <!-- $\sigma_{f}^{max} (ev/Å)$ -->
     <g transform="translate(192.28 342.36375) scale(0.15 -0.15)">
      <defs>
       <path id="DejaVuSans-Oblique-3c3" d="M 2219 3044 
Q 1744 3044 1422 2700 
Q 1081 2341 969 1747 
Q 844 1119 1044 756 
Q 1241 397 1706 397 
Q 2166 397 2503 759 
Q 2844 1122 2966 1747 
Q 3075 2319 2881 2700 
Q 2700 3044 2219 3044 
z
M 2309 3503 
L 4219 3500 
L 4106 2925 
L 3463 2925 
Q 3706 2438 3575 1747 
Q 3406 888 2884 400 
Q 2359 -91 1609 -91 
Q 856 -91 525 400 
Q 194 888 363 1747 
Q 528 2609 1050 3097 
Q 1484 3503 2309 3503 
z
" transform="scale(0.015625)"/>
       <path id="DejaVuSans-Oblique-6d" d="M 5747 2113 
L 5338 0 
L 4763 0 
L 5166 2094 
Q 5191 2228 5203 2325 
Q 5216 2422 5216 2491 
Q 5216 2772 5059 2928 
Q 4903 3084 4622 3084 
Q 4203 3084 3875 2770 
Q 3547 2456 3450 1953 
L 3066 0 
L 2491 0 
L 2900 2094 
Q 2925 2209 2937 2307 
Q 2950 2406 2950 2484 
Q 2950 2769 2794 2926 
Q 2638 3084 2363 3084 
Q 1938 3084 1609 2770 
Q 1281 2456 1184 1953 
L 800 0 
L 225 0 
L 909 3500 
L 1484 3500 
L 1375 2956 
Q 1609 3263 1923 3423 
Q 2238 3584 2597 3584 
Q 2978 3584 3223 3384 
Q 3469 3184 3519 2828 
Q 3781 3197 4126 3390 
Q 4472 3584 4856 3584 
Q 5306 3584 5551 3325 
Q 5797 3066 5797 2591 
Q 5797 2488 5784 2364 
Q 5772 2241 5747 2113 
z
" transform="scale(0.015625)"/>
       <path id="DejaVuSans-Oblique-61" d="M 3438 1997 
L 3047 0 
L 2472 0 
L 2578 531 
Q 2325 219 2001 64 
Q 1678 -91 1281 -91 
Q 834 -91 548 182 
Q 263 456 263 884 
Q 263 1497 752 1853 
Q 1241 2209 2100 2209 
L 2900 2209 
L 2931 2363 
Q 2938 2388 2941 2417 
Q 2944 2447 2944 2509 
Q 2944 2788 2717 2942 
Q 2491 3097 2081 3097 
Q 1800 3097 1504 3025 
Q 1209 2953 897 2809 
L 997 3341 
Q 1322 3463 1633 3523 
Q 1944 3584 2234 3584 
Q 2853 3584 3176 3315 
Q 3500 3047 3500 2534 
Q 3500 2431 3484 2292 
Q 3469 2153 3438 1997 
z
M 2816 1759 
L 2241 1759 
Q 1534 1759 1195 1570 
Q 856 1381 856 984 
Q 856 709 1029 553 
Q 1203 397 1509 397 
Q 1978 397 2328 733 
Q 2678 1069 2791 1631 
L 2816 1759 
z
" transform="scale(0.015625)"/>
       <path id="DejaVuSans-Oblique-78" d="M 3841 3500 
L 2234 1784 
L 3219 0 
L 2559 0 
L 1819 1388 
L 531 0 
L -166 0 
L 1556 1844 
L 641 3500 
L 1300 3500 
L 1972 2234 
L 3144 3500 
L 3841 3500 
z
" transform="scale(0.015625)"/>
       <path id="DejaVuSans-Oblique-66" d="M 3059 4863 
L 2969 4384 
L 2419 4384 
Q 2106 4384 1964 4261 
Q 1822 4138 1753 3809 
L 1691 3500 
L 2638 3500 
L 2553 3053 
L 1606 3053 
L 1013 0 
L 434 0 
L 1031 3053 
L 481 3053 
L 563 3500 
L 1113 3500 
L 1159 3744 
Q 1278 4363 1576 4613 
Q 1875 4863 2516 4863 
L 3059 4863 
z
" transform="scale(0.015625)"/>
       <path id="DejaVuSans-28" d="M 1984 4856 
Q 1566 4138 1362 3434 
Q 1159 2731 1159 2009 
Q 1159 1288 1364 580 
Q 1569 -128 1984 -844 
L 1484 -844 
Q 1016 -109 783 600 
Q 550 1309 550 2009 
Q 550 2706 781 3412 
Q 1013 4119 1484 4856 
L 1984 4856 
z
" transform="scale(0.015625)"/>
       <path id="DejaVuSans-Oblique-65" d="M 3078 2063 
Q 3088 2113 3092 2166 
Q 3097 2219 3097 2272 
Q 3097 2653 2873 2875 
Q 2650 3097 2266 3097 
Q 1838 3097 1509 2826 
Q 1181 2556 1013 2059 
L 3078 2063 
z
M 3578 1613 
L 903 1613 
Q 884 1494 878 1425 
Q 872 1356 872 1306 
Q 872 872 1139 634 
Q 1406 397 1894 397 
Q 2269 397 2603 481 
Q 2938 566 3225 728 
L 3116 159 
Q 2806 34 2476 -28 
Q 2147 -91 1806 -91 
Q 1078 -91 686 257 
Q 294 606 294 1247 
Q 294 1794 489 2264 
Q 684 2734 1063 3103 
Q 1306 3334 1642 3459 
Q 1978 3584 2356 3584 
Q 2950 3584 3301 3228 
Q 3653 2872 3653 2272 
Q 3653 2128 3634 1964 
Q 3616 1800 3578 1613 
z
" transform="scale(0.015625)"/>
       <path id="DejaVuSans-Oblique-76" d="M 459 3500 
L 1069 3500 
L 1581 525 
L 3256 3500 
L 3866 3500 
L 1875 0 
L 1100 0 
L 459 3500 
z
" transform="scale(0.015625)"/>
       <path id="DejaVuSans-2f" d="M 1625 4666 
L 2156 4666 
L 531 -594 
L 0 -594 
L 1625 4666 
z
" transform="scale(0.015625)"/>
       <path id="DejaVuSans-Oblique-c5" d="M 3188 5081 
Q 3188 5278 3048 5417 
Q 2909 5556 2713 5556 
Q 2513 5556 2377 5420 
Q 2241 5284 2241 5081 
Q 2241 4884 2377 4746 
Q 2513 4609 2713 4609 
Q 2909 4609 3048 4746 
Q 3188 4884 3188 5081 
z
M 2203 4397 
Q 2034 4513 1945 4689 
Q 1856 4866 1856 5081 
Q 1856 5438 2106 5689 
Q 2356 5941 2713 5941 
Q 3069 5941 3320 5689 
Q 3572 5438 3572 5081 
Q 3572 4834 3458 4643 
Q 3344 4453 3128 4341 
L 3938 0 
L 3278 0 
L 3084 1197 
L 984 1197 
L 325 0 
L -341 0 
L 2203 4397 
z
M 2584 4044 
L 1275 1722 
L 2988 1722 
L 2584 4044 
z
" transform="scale(0.015625)"/>
       <path id="DejaVuSans-29" d="M 513 4856 
L 1013 4856 
Q 1481 4119 1714 3412 
Q 1947 2706 1947 2009 
Q 1947 1309 1714 600 
Q 1481 -109 1013 -844 
L 513 -844 
Q 928 -128 1133 580 
Q 1338 1288 1338 2009 
Q 1338 2731 1133 3434 
Q 928 4138 513 4856 
z
" transform="scale(0.015625)"/>
      </defs>
      <use xlink:href="#DejaVuSans-Oblique-3c3" transform="translate(0 0.171875)"/>
      <use xlink:href="#DejaVuSans-Oblique-6d" transform="translate(67.851615 39.5125) scale(0.7)"/>
      <use xlink:href="#DejaVuSans-Oblique-61" transform="translate(136.040091 39.5125) scale(0.7)"/>
      <use xlink:href="#DejaVuSans-Oblique-78" transform="translate(178.935599 39.5125) scale(0.7)"/>
      <use xlink:href="#DejaVuSans-Oblique-66" transform="translate(63.378906 -27.171875) scale(0.7)"/>
      <use xlink:href="#DejaVuSans-28" transform="translate(223.095755 0.171875)"/>
      <use xlink:href="#DejaVuSans-Oblique-65" transform="translate(262.109427 0.171875)"/>
      <use xlink:href="#DejaVuSans-Oblique-76" transform="translate(323.632865 0.171875)"/>
      <use xlink:href="#DejaVuSans-2f" transform="translate(382.812552 0.171875)"/>
      <use xlink:href="#DejaVuSans-Oblique-c5" transform="translate(416.503958 0.171875)"/>
      <use xlink:href="#DejaVuSans-29" transform="translate(484.912161 0.171875)"/>
     </g>
    </g>
   </g>
   <g id="matplotlib.axis_2">
    <g id="ytick_1">
     <g id="line2d_15">
      <path d="M 51.5 305.8 
L 411.66 305.8 
" clip-path="url(#pc226b191ef)" style="fill: none; stroke: #b0b0b0; stroke-width: 0.8; stroke-linecap: square"/>
     </g>
     <g id="line2d_16">
      <defs>
       <path id="m5f1192efec" d="M 0 0 
L -3.5 0 
" style="stroke: #000000; stroke-width: 0.8"/>
      </defs>
      <g>
       <use xlink:href="#m5f1192efec" x="51.5" y="305.8" style="stroke: #000000; stroke-width: 0.8"/>
      </g>
     </g>
     <g id="text_9">
      <!-- 0 -->
      <g transform="translate(36.865 310.359062) scale(0.12 -0.12)">
       <use xlink:href="#DejaVuSans-30"/>
      </g>
     </g>
    </g>
    <g id="ytick_2">
     <g id="line2d_17">
      <path d="M 51.5 271.295 
L 411.66 271.295 
" clip-path="url(#pc226b191ef)" style="fill: none; stroke: #b0b0b0; stroke-width: 0.8; stroke-linecap: square"/>
     </g>
     <g id="line2d_18">
      <g>
       <use xlink:href="#m5f1192efec" x="51.5" y="271.295" style="stroke: #000000; stroke-width: 0.8"/>
      </g>
     </g>
     <g id="text_10">
      <!-- 5 -->
      <g transform="translate(36.865 275.854062) scale(0.12 -0.12)">
       <use xlink:href="#DejaVuSans-35"/>
      </g>
     </g>
    </g>
    <g id="ytick_3">
     <g id="line2d_19">
      <path d="M 51.5 236.79 
L 411.66 236.79 
" clip-path="url(#pc226b191ef)" style="fill: none; stroke: #b0b0b0; stroke-width: 0.8; stroke-linecap: square"/>
     </g>
     <g id="line2d_20">
      <g>
       <use xlink:href="#m5f1192efec" x="51.5" y="236.79" style="stroke: #000000; stroke-width: 0.8"/>
      </g>
     </g>
     <g id="text_11">
      <!-- 10 -->
      <g transform="translate(29.23 241.349063) scale(0.12 -0.12)">
       <use xlink:href="#DejaVuSans-31"/>
       <use xlink:href="#DejaVuSans-30" x="63.623047"/>
      </g>
     </g>
    </g>
    <g id="ytick_4">
     <g id="line2d_21">
      <path d="M 51.5 202.285 
L 411.66 202.285 
" clip-path="url(#pc226b191ef)" style="fill: none; stroke: #b0b0b0; stroke-width: 0.8; stroke-linecap: square"/>
     </g>
     <g id="line2d_22">
      <g>
       <use xlink:href="#m5f1192efec" x="51.5" y="202.285" style="stroke: #000000; stroke-width: 0.8"/>
      </g>
     </g>
     <g id="text_12">
      <!-- 15 -->
      <g transform="translate(29.23 206.844062) scale(0.12 -0.12)">
       <use xlink:href="#DejaVuSans-31"/>
       <use xlink:href="#DejaVuSans-35" x="63.623047"/>
      </g>
     </g>
    </g>
    <g id="ytick_5">
     <g id="line2d_23">
      <path d="M 51.5 167.78 
L 411.66 167.78 
" clip-path="url(#pc226b191ef)" style="fill: none; stroke: #b0b0b0; stroke-width: 0.8; stroke-linecap: square"/>
     </g>
     <g id="line2d_24">
      <g>
       <use xlink:href="#m5f1192efec" x="51.5" y="167.78" style="stroke: #000000; stroke-width: 0.8"/>
      </g>
     </g>
     <g id="text_13">
      <!-- 20 -->
      <g transform="translate(29.23 172.339062) scale(0.12 -0.12)">
       <use xlink:href="#DejaVuSans-32"/>
       <use xlink:href="#DejaVuSans-30" x="63.623047"/>
      </g>
     </g>
    </g>
    <g id="ytick_6">
     <g id="line2d_25">
      <path d="M 51.5 133.275 
L 411.66 133.275 
" clip-path="url(#pc226b191ef)" style="fill: none; stroke: #b0b0b0; stroke-width: 0.8; stroke-linecap: square"/>
     </g>
     <g id="line2d_26">
      <g>
       <use xlink:href="#m5f1192efec" x="51.5" y="133.275" style="stroke: #000000; stroke-width: 0.8"/>
      </g>
     </g>
     <g id="text_14">
      <!-- 25 -->
      <g transform="translate(29.23 137.834062) scale(0.12 -0.12)">
       <use xlink:href="#DejaVuSans-32"/>
       <use xlink:href="#DejaVuSans-35" x="63.623047"/>
      </g>
     </g>
    </g>
    <g id="ytick_7">
     <g id="line2d_27">
      <path d="M 51.5 98.77 
L 411.66 98.77 
" clip-path="url(#pc226b191ef)" style="fill: none; stroke: #b0b0b0; stroke-width: 0.8; stroke-linecap: square"/>
     </g>
     <g id="line2d_28">
      <g>
       <use xlink:href="#m5f1192efec" x="51.5" y="98.77" style="stroke: #000000; stroke-width: 0.8"/>
      </g>
     </g>
     <g id="text_15">
      <!-- 30 -->
      <g transform="translate(29.23 103.329062) scale(0.12 -0.12)">
       <use xlink:href="#DejaVuSans-33"/>
       <use xlink:href="#DejaVuSans-30" x="63.623047"/>
      </g>
     </g>
    </g>
    <g id="ytick_8">
     <g id="line2d_29">
      <path d="M 51.5 64.265 
L 411.66 64.265 
" clip-path="url(#pc226b191ef)" style="fill: none; stroke: #b0b0b0; stroke-width: 0.8; stroke-linecap: square"/>
     </g>
     <g id="line2d_30">
      <g>
       <use xlink:href="#m5f1192efec" x="51.5" y="64.265" style="stroke: #000000; stroke-width: 0.8"/>
      </g>
     </g>
     <g id="text_16">
      <!-- 35 -->
      <g transform="translate(29.23 68.824062) scale(0.12 -0.12)">
       <use xlink:href="#DejaVuSans-33"/>
       <use xlink:href="#DejaVuSans-35" x="63.623047"/>
      </g>
     </g>
    </g>
    <g id="ytick_9">
     <g id="line2d_31">
      <path d="M 51.5 29.76 
L 411.66 29.76 
" clip-path="url(#pc226b191ef)" style="fill: none; stroke: #b0b0b0; stroke-width: 0.8; stroke-linecap: square"/>
     </g>
     <g id="line2d_32">
      <g>
       <use xlink:href="#m5f1192efec" x="51.5" y="29.76" style="stroke: #000000; stroke-width: 0.8"/>
      </g>
     </g>
     <g id="text_17">
      <!-- 40 -->
      <g transform="translate(29.23 34.319062) scale(0.12 -0.12)">
       <use xlink:href="#DejaVuSans-34"/>
       <use xlink:href="#DejaVuSans-30" x="63.623047"/>
      </g>
     </g>
    </g>
    <g id="text_18">
     <!-- Distribution(%) -->
     <g transform="translate(22.110469 224.511641) rotate(-90) scale(0.15 -0.15)">
      <defs>
       <path id="DejaVuSans-44" d="M 1259 4147 
L 1259 519 
L 2022 519 
Q 2988 519 3436 956 
Q 3884 1394 3884 2338 
Q 3884 3275 3436 3711 
Q 2988 4147 2022 4147 
L 1259 4147 
z
M 628 4666 
L 1925 4666 
Q 3281 4666 3915 4102 
Q 4550 3538 4550 2338 
Q 4550 1131 3912 565 
Q 3275 0 1925 0 
L 628 0 
L 628 4666 
z
" transform="scale(0.015625)"/>
       <path id="DejaVuSans-69" d="M 603 3500 
L 1178 3500 
L 1178 0 
L 603 0 
L 603 3500 
z
M 603 4863 
L 1178 4863 
L 1178 4134 
L 603 4134 
L 603 4863 
z
" transform="scale(0.015625)"/>
       <path id="DejaVuSans-73" d="M 2834 3397 
L 2834 2853 
Q 2591 2978 2328 3040 
Q 2066 3103 1784 3103 
Q 1356 3103 1142 2972 
Q 928 2841 928 2578 
Q 928 2378 1081 2264 
Q 1234 2150 1697 2047 
L 1894 2003 
Q 2506 1872 2764 1633 
Q 3022 1394 3022 966 
Q 3022 478 2636 193 
Q 2250 -91 1575 -91 
Q 1294 -91 989 -36 
Q 684 19 347 128 
L 347 722 
Q 666 556 975 473 
Q 1284 391 1588 391 
Q 1994 391 2212 530 
Q 2431 669 2431 922 
Q 2431 1156 2273 1281 
Q 2116 1406 1581 1522 
L 1381 1569 
Q 847 1681 609 1914 
Q 372 2147 372 2553 
Q 372 3047 722 3315 
Q 1072 3584 1716 3584 
Q 2034 3584 2315 3537 
Q 2597 3491 2834 3397 
z
" transform="scale(0.015625)"/>
       <path id="DejaVuSans-74" d="M 1172 4494 
L 1172 3500 
L 2356 3500 
L 2356 3053 
L 1172 3053 
L 1172 1153 
Q 1172 725 1289 603 
Q 1406 481 1766 481 
L 2356 481 
L 2356 0 
L 1766 0 
Q 1100 0 847 248 
Q 594 497 594 1153 
L 594 3053 
L 172 3053 
L 172 3500 
L 594 3500 
L 594 4494 
L 1172 4494 
z
" transform="scale(0.015625)"/>
       <path id="DejaVuSans-72" d="M 2631 2963 
Q 2534 3019 2420 3045 
Q 2306 3072 2169 3072 
Q 1681 3072 1420 2755 
Q 1159 2438 1159 1844 
L 1159 0 
L 581 0 
L 581 3500 
L 1159 3500 
L 1159 2956 
Q 1341 3275 1631 3429 
Q 1922 3584 2338 3584 
Q 2397 3584 2469 3576 
Q 2541 3569 2628 3553 
L 2631 2963 
z
" transform="scale(0.015625)"/>
       <path id="DejaVuSans-62" d="M 3116 1747 
Q 3116 2381 2855 2742 
Q 2594 3103 2138 3103 
Q 1681 3103 1420 2742 
Q 1159 2381 1159 1747 
Q 1159 1113 1420 752 
Q 1681 391 2138 391 
Q 2594 391 2855 752 
Q 3116 1113 3116 1747 
z
M 1159 2969 
Q 1341 3281 1617 3432 
Q 1894 3584 2278 3584 
Q 2916 3584 3314 3078 
Q 3713 2572 3713 1747 
Q 3713 922 3314 415 
Q 2916 -91 2278 -91 
Q 1894 -91 1617 61 
Q 1341 213 1159 525 
L 1159 0 
L 581 0 
L 581 4863 
L 1159 4863 
L 1159 2969 
z
" transform="scale(0.015625)"/>
       <path id="DejaVuSans-75" d="M 544 1381 
L 544 3500 
L 1119 3500 
L 1119 1403 
Q 1119 906 1312 657 
Q 1506 409 1894 409 
Q 2359 409 2629 706 
Q 2900 1003 2900 1516 
L 2900 3500 
L 3475 3500 
L 3475 0 
L 2900 0 
L 2900 538 
Q 2691 219 2414 64 
Q 2138 -91 1772 -91 
Q 1169 -91 856 284 
Q 544 659 544 1381 
z
M 1991 3584 
L 1991 3584 
z
" transform="scale(0.015625)"/>
       <path id="DejaVuSans-6f" d="M 1959 3097 
Q 1497 3097 1228 2736 
Q 959 2375 959 1747 
Q 959 1119 1226 758 
Q 1494 397 1959 397 
Q 2419 397 2687 759 
Q 2956 1122 2956 1747 
Q 2956 2369 2687 2733 
Q 2419 3097 1959 3097 
z
M 1959 3584 
Q 2709 3584 3137 3096 
Q 3566 2609 3566 1747 
Q 3566 888 3137 398 
Q 2709 -91 1959 -91 
Q 1206 -91 779 398 
Q 353 888 353 1747 
Q 353 2609 779 3096 
Q 1206 3584 1959 3584 
z
" transform="scale(0.015625)"/>
       <path id="DejaVuSans-6e" d="M 3513 2113 
L 3513 0 
L 2938 0 
L 2938 2094 
Q 2938 2591 2744 2837 
Q 2550 3084 2163 3084 
Q 1697 3084 1428 2787 
Q 1159 2491 1159 1978 
L 1159 0 
L 581 0 
L 581 3500 
L 1159 3500 
L 1159 2956 
Q 1366 3272 1645 3428 
Q 1925 3584 2291 3584 
Q 2894 3584 3203 3211 
Q 3513 2838 3513 2113 
z
" transform="scale(0.015625)"/>
       <path id="DejaVuSans-25" d="M 4653 2053 
Q 4381 2053 4226 1822 
Q 4072 1591 4072 1178 
Q 4072 772 4226 539 
Q 4381 306 4653 306 
Q 4919 306 5073 539 
Q 5228 772 5228 1178 
Q 5228 1588 5073 1820 
Q 4919 2053 4653 2053 
z
M 4653 2450 
Q 5147 2450 5437 2106 
Q 5728 1763 5728 1178 
Q 5728 594 5436 251 
Q 5144 -91 4653 -91 
Q 4153 -91 3862 251 
Q 3572 594 3572 1178 
Q 3572 1766 3864 2108 
Q 4156 2450 4653 2450 
z
M 1428 4353 
Q 1159 4353 1004 4120 
Q 850 3888 850 3481 
Q 850 3069 1003 2837 
Q 1156 2606 1428 2606 
Q 1700 2606 1854 2837 
Q 2009 3069 2009 3481 
Q 2009 3884 1853 4118 
Q 1697 4353 1428 4353 
z
M 4250 4750 
L 4750 4750 
L 1831 -91 
L 1331 -91 
L 4250 4750 
z
M 1428 4750 
Q 1922 4750 2215 4408 
Q 2509 4066 2509 3481 
Q 2509 2891 2217 2550 
Q 1925 2209 1428 2209 
Q 931 2209 642 2551 
Q 353 2894 353 3481 
Q 353 4063 643 4406 
Q 934 4750 1428 4750 
z
" transform="scale(0.015625)"/>
      </defs>
      <use xlink:href="#DejaVuSans-44"/>
      <use xlink:href="#DejaVuSans-69" x="77.001953"/>
      <use xlink:href="#DejaVuSans-73" x="104.785156"/>
      <use xlink:href="#DejaVuSans-74" x="156.884766"/>
      <use xlink:href="#DejaVuSans-72" x="196.09375"/>
      <use xlink:href="#DejaVuSans-69" x="237.207031"/>
      <use xlink:href="#DejaVuSans-62" x="264.990234"/>
      <use xlink:href="#DejaVuSans-75" x="328.466797"/>
      <use xlink:href="#DejaVuSans-74" x="391.845703"/>
      <use xlink:href="#DejaVuSans-69" x="431.054688"/>
      <use xlink:href="#DejaVuSans-6f" x="458.837891"/>
      <use xlink:href="#DejaVuSans-6e" x="520.019531"/>
      <use xlink:href="#DejaVuSans-28" x="583.398438"/>
      <use xlink:href="#DejaVuSans-25" x="622.412109"/>
      <use xlink:href="#DejaVuSans-29" x="717.431641"/>
     </g>
    </g>
   </g>
   <g id="line2d_33">
    <path d="M 38.588054 305.763596 
L 59.077213 305.580374 
L 71.882937 305.228381 
L 79.566371 304.842797 
L 87.249806 304.26261 
L 94.93324 303.426982 
L 100.05553 302.696502 
L 105.177819 301.80567 
L 110.300109 300.737324 
L 115.422399 299.476474 
L 120.544688 298.01124 
L 125.666978 296.333922 
L 130.789268 294.442263 
L 135.911557 292.340954 
L 141.033847 290.043403 
L 148.717281 286.285082 
L 158.961861 280.920242 
L 166.645295 276.915607 
L 171.767585 274.414036 
L 176.889874 272.1607 
L 182.012164 270.255522 
L 184.573309 269.463377 
L 187.134453 268.792728 
L 189.695598 268.253162 
L 192.256743 267.852927 
L 194.817888 267.598721 
L 197.379033 267.495504 
L 199.940177 267.546355 
L 202.501322 267.752357 
L 205.062467 268.112545 
L 207.623612 268.623892 
L 210.184757 269.281348 
L 212.745902 270.077932 
L 215.307046 271.00487 
L 220.429336 273.206852 
L 225.551626 275.788912 
L 230.673915 278.638657 
L 251.163074 290.462978 
L 256.285363 293.062939 
L 261.407653 295.400511 
L 266.529943 297.451683 
L 271.652232 299.210513 
L 276.774522 300.685772 
L 281.896811 301.897174 
L 287.019101 302.871627 
L 292.141391 303.639866 
L 297.26368 304.233666 
L 304.947115 304.863801 
L 312.630549 305.262022 
L 322.875128 305.557667 
L 338.241997 305.728756 
L 361.292301 305.723728 
L 381.781459 305.498857 
L 397.148328 305.105452 
L 415.076342 304.396022 
L 433 303.684654 
L 433 303.684654 
" clip-path="url(#pc226b191ef)" style="fill: none; stroke: #b40426; stroke-width: 2; stroke-linecap: square"/>
   </g>
   <g id="line2d_34">
    <path d="M 95.196557 305.763364 
L 97.091788 305.63024 
L 98.039404 305.460327 
L 98.98702 305.151693 
L 99.934636 304.618178 
L 100.882252 303.739371 
L 101.829868 302.35796 
L 102.777483 300.282203 
L 103.725099 297.294799 
L 104.672715 293.168013 
L 105.620331 287.683502 
L 106.567947 280.654373 
L 107.515563 271.947183 
L 108.463178 261.502834 
L 109.410794 249.356578 
L 111.306026 220.687207 
L 115.096489 158.51924 
L 116.044105 145.831956 
L 116.991721 135.629247 
L 117.939337 128.336986 
L 118.886952 124.136948 
L 119.834568 122.957518 
L 120.782184 124.510507 
L 121.7298 128.363088 
L 122.677416 134.024552 
L 123.625031 141.025333 
L 125.520263 157.560753 
L 128.363111 185.304877 
L 131.205958 213.023795 
L 133.10119 229.622314 
L 134.996421 243.848759 
L 136.891653 255.636859 
L 138.786885 265.333282 
L 140.682116 273.384193 
L 142.577348 280.084498 
L 144.47258 285.449385 
L 145.420195 287.588452 
L 146.367811 289.357513 
L 147.315427 290.780915 
L 148.263043 291.91197 
L 150.158275 293.608175 
L 156.791585 298.613211 
L 158.686817 299.626453 
L 160.582049 300.368289 
L 164.372512 301.568258 
L 166.267743 301.963336 
L 167.215359 302.012607 
L 168.162975 301.931179 
L 170.058207 301.414074 
L 171.953438 300.749058 
L 172.901054 300.533786 
L 173.84867 300.473517 
L 174.796286 300.592885 
L 175.743902 300.88461 
L 177.639133 301.830434 
L 180.481981 303.370133 
L 182.377212 304.066606 
L 184.272444 304.488664 
L 190.905755 305.492536 
L 193.748602 305.718015 
L 198.486681 305.797131 
L 259.134094 305.796272 
L 263.872173 305.703651 
L 266.715021 305.464236 
L 271.4531 304.966501 
L 273.348331 305.004241 
L 277.138795 305.440856 
L 279.981642 305.693088 
L 283.772105 305.790641 
L 283.772105 305.790641 
" clip-path="url(#pc226b191ef)" style="fill: none; stroke: #e26953; stroke-width: 2; stroke-linecap: square"/>
   </g>
   <g id="line2d_35">
    <path d="M 93.09137 305.797762 
L 95.404368 305.739287 
L 96.560867 305.618626 
L 97.717366 305.347368 
L 98.873865 304.658486 
L 100.030364 302.833346 
L 101.186862 298.690043 
L 102.343361 290.9996 
L 103.49986 278.613632 
L 104.656359 259.873757 
L 105.812858 233.474915 
L 109.282354 138.691693 
L 110.438853 109.316051 
L 111.595352 84.848312 
L 112.751851 70.300116 
L 113.90835 65.887012 
L 115.064849 68.358655 
L 116.221347 76.667544 
L 117.377846 92.167903 
L 119.690844 133.944853 
L 123.160341 187.363285 
L 124.316839 206.067902 
L 125.473338 222.187654 
L 126.629837 235.266885 
L 128.942835 256.145114 
L 130.099334 265.003732 
L 131.255833 271.549123 
L 133.56883 280.554542 
L 134.725329 284.835325 
L 135.881828 288.332345 
L 137.038327 290.859863 
L 138.194826 292.880595 
L 139.351324 294.554163 
L 140.507823 295.777624 
L 141.664322 296.647825 
L 143.97732 298.167519 
L 146.290318 300.41648 
L 147.446816 301.246283 
L 148.603315 301.819758 
L 150.916313 302.582601 
L 152.072812 303.210361 
L 153.229311 304.064819 
L 154.38581 304.662449 
L 155.542308 304.804272 
L 157.855306 304.726544 
L 168.263796 305.077826 
L 171.733292 305.496269 
L 174.04629 305.764203 
L 178.672285 305.790158 
L 184.45478 305.679564 
L 186.767777 305.767417 
L 191.393773 305.638946 
L 194.863269 305.794821 
L 223.775741 305.8 
L 259.627205 305.702015 
L 261.940203 305.607077 
L 267.722697 305.799737 
L 315.13915 305.76233 
L 318.608646 305.609231 
L 323.234642 305.797815 
L 323.234642 305.797815 
" clip-path="url(#pc226b191ef)" style="fill: none; stroke: #f7a789; stroke-width: 2; stroke-linecap: square"/>
   </g>
   <g id="line2d_36">
    <path d="M 94.526117 305.798614 
L 97.629628 305.659506 
L 99.181384 305.127247 
L 100.733139 303.485291 
L 102.284895 299.267665 
L 103.83665 289.723171 
L 105.388405 271.628788 
L 106.940161 243.825851 
L 110.043672 173.938821 
L 111.595427 144.097423 
L 113.147183 122.70203 
L 114.698938 111.337943 
L 116.250693 109.742877 
L 117.802449 115.527672 
L 119.354204 127.212727 
L 120.90596 143.399519 
L 125.561226 197.060063 
L 127.112981 212.749503 
L 128.664737 225.743256 
L 131.768248 247.540759 
L 133.320003 256.868836 
L 134.871759 264.638962 
L 136.423514 271.263733 
L 137.97527 276.884876 
L 139.527025 281.281878 
L 141.07878 284.366321 
L 142.630536 286.793735 
L 144.182291 288.965462 
L 150.389313 295.710686 
L 153.492824 297.880817 
L 155.044579 298.859816 
L 156.596335 299.397176 
L 159.699846 299.742521 
L 161.251601 300.395957 
L 162.803356 301.405646 
L 164.355112 302.145915 
L 165.906867 302.635202 
L 170.562134 303.611267 
L 172.113889 303.760436 
L 173.665644 303.777801 
L 175.2174 304.041451 
L 176.769155 304.508625 
L 178.320911 304.840564 
L 179.872666 304.952927 
L 184.527932 304.759624 
L 187.631443 304.998067 
L 190.734954 305.405322 
L 203.148998 305.691428 
L 223.321818 305.665993 
L 226.425329 305.613169 
L 231.080595 305.690396 
L 252.805171 305.678309 
L 255.908682 305.650237 
L 262.115704 305.79905 
L 277.633258 305.698317 
L 282.288525 305.776088 
L 291.599057 305.8 
L 403.325448 305.79949 
L 403.325448 305.79949 
" clip-path="url(#pc226b191ef)" style="fill: none; stroke: #edd1c2; stroke-width: 2; stroke-linecap: square"/>
   </g>
   <g id="line2d_37">
    <path d="M -1 305.751522 
L 433 305.751275 
L 433 305.751275 
" clip-path="url(#pc226b191ef)" style="fill: none; stroke: #c9d8ef; stroke-width: 2; stroke-linecap: square"/>
   </g>
   <g id="line2d_38">
    <path d="M 93.63879 305.79423 
L 96.066407 305.696075 
L 97.280215 305.459855 
L 98.494024 304.848208 
L 99.707832 303.486492 
L 100.921641 300.823216 
L 102.135449 296.137817 
L 103.349257 288.577155 
L 104.563066 277.285904 
L 105.776874 261.724104 
L 106.990683 242.12886 
L 110.632108 176.553855 
L 111.845917 159.658684 
L 113.059725 146.936621 
L 114.273534 138.111114 
L 115.487342 132.86147 
L 116.70115 130.947559 
L 117.914959 131.951294 
L 119.128767 135.353609 
L 120.342576 140.921212 
L 121.556384 148.711037 
L 122.770193 158.599133 
L 125.19781 182.236401 
L 128.839235 218.832595 
L 130.053043 229.442284 
L 131.266852 238.508504 
L 132.48066 245.919802 
L 133.694469 251.818108 
L 134.908277 256.616035 
L 137.335894 265.39431 
L 140.977319 279.443052 
L 142.191128 283.100243 
L 143.404936 285.684766 
L 144.618745 287.309194 
L 147.046362 289.556836 
L 148.26017 291.056077 
L 151.901595 296.714655 
L 153.115404 298.219056 
L 154.329212 299.378727 
L 155.543021 300.179736 
L 156.756829 300.609972 
L 157.970638 300.730788 
L 160.398255 300.791793 
L 161.612063 301.070958 
L 166.467297 302.956699 
L 168.894914 303.414626 
L 178.605381 304.429356 
L 183.460615 304.406304 
L 190.743466 305.085876 
L 198.026316 305.607886 
L 235.654378 305.728457 
L 240.509612 305.798988 
L 249.006271 305.720855 
L 252.647697 305.642124 
L 259.930547 305.76628 
L 265.99959 305.663525 
L 272.068632 305.798032 
L 323.048587 305.765891 
L 329.117629 305.665939 
L 335.186671 305.798198 
L 335.186671 305.798198 
" clip-path="url(#pc226b191ef)" style="fill: none; stroke: #9abaff; stroke-width: 2; stroke-linecap: square"/>
   </g>
   <g id="line2d_39">
    <path d="M 91.226272 305.797316 
L 94.281085 305.669522 
L 95.299356 305.441745 
L 96.317627 304.910908 
L 97.335898 303.779902 
L 98.354169 301.579402 
L 99.372439 297.67579 
L 100.39071 291.354879 
L 101.408981 282.008866 
L 102.427252 269.386863 
L 103.445523 253.701058 
L 104.463794 235.412815 
L 106.500336 192.61451 
L 108.536878 146.167401 
L 109.555149 125.505553 
L 110.57342 109.431433 
L 111.591691 99.562033 
L 112.609962 96.249878 
L 113.628233 98.401889 
L 114.646504 104.056763 
L 115.664775 111.445574 
L 116.683046 119.84162 
L 117.701317 129.536745 
L 118.719588 140.958993 
L 120.75613 167.48628 
L 123.810943 208.262691 
L 124.829214 220.467673 
L 125.847484 230.631087 
L 126.865755 238.390678 
L 127.884026 244.269135 
L 129.920568 254.65213 
L 132.975381 271.826771 
L 133.993652 276.153264 
L 135.011923 279.364284 
L 140.103278 291.75865 
L 141.121549 294.102792 
L 142.13982 296.023151 
L 143.158091 297.375365 
L 144.176362 298.208874 
L 147.231175 299.702657 
L 148.249446 300.126446 
L 150.285988 300.633949 
L 152.322529 301.140741 
L 155.377342 302.281262 
L 158.432155 303.832484 
L 159.450426 304.084313 
L 160.468697 304.076723 
L 163.52351 303.664723 
L 165.560052 303.747468 
L 170.651407 304.573336 
L 176.761033 304.993766 
L 178.797574 305.240846 
L 182.870658 305.550258 
L 184.9072 305.728057 
L 187.962013 305.707649 
L 195.08991 305.4582 
L 199.162994 305.459944 
L 206.29089 305.708174 
L 209.345703 305.653882 
L 215.455329 305.799289 
L 226.65631 305.73669 
L 230.729394 305.664439 
L 233.784206 305.714276 
L 237.85729 305.670386 
L 242.948645 305.798461 
L 274.515045 305.734044 
L 279.6064 305.566683 
L 285.716025 305.685644 
L 288.770838 305.667103 
L 293.862193 305.798255 
L 293.862193 305.798255 
" clip-path="url(#pc226b191ef)" style="fill: none; stroke: #6889ee; stroke-width: 2; stroke-linecap: square"/>
   </g>
   <g id="line2d_40">
    <path d="M 89.829984 305.793983 
L 91.717608 305.701611 
L 92.661421 305.497102 
L 93.605233 305.004913 
L 94.549045 303.983747 
L 95.492858 302.106112 
L 96.43667 298.947657 
L 97.380482 293.936785 
L 98.324295 286.307763 
L 99.268107 275.214716 
L 100.211919 260.130203 
L 101.155732 241.337578 
L 104.930981 155.176981 
L 105.874793 137.362304 
L 106.818606 123.93128 
L 107.762418 115.565028 
L 108.70623 111.227179 
L 109.650043 109.010976 
L 110.593855 107.870453 
L 111.537667 108.288558 
L 112.48148 111.290549 
L 113.425292 117.200587 
L 114.369104 125.495574 
L 116.256729 146.439827 
L 120.031978 192.056932 
L 121.919603 212.370549 
L 123.807228 230.268576 
L 125.694852 246.309382 
L 127.582477 260.141087 
L 128.526289 265.371253 
L 129.470102 269.334183 
L 131.357726 276.024887 
L 133.245351 283.287613 
L 134.189163 285.938802 
L 135.132976 287.586587 
L 137.0206 290.091754 
L 139.852037 295.139163 
L 140.79585 296.284556 
L 146.458724 301.418391 
L 147.402536 301.955821 
L 148.346348 302.295361 
L 152.121598 303.098453 
L 154.009222 303.192743 
L 155.896847 303.201745 
L 156.840659 303.410002 
L 159.672096 304.480692 
L 160.615909 304.676669 
L 163.447346 304.808634 
L 166.278783 304.838767 
L 169.11022 304.783406 
L 173.829281 305.349588 
L 177.604531 305.310498 
L 181.37978 305.409068 
L 189.874091 305.346504 
L 195.536965 305.794254 
L 220.076086 305.8 
L 256.884767 305.708269 
L 259.716204 305.64008 
L 265.379078 305.798417 
L 270.09814 305.684559 
L 272.929577 305.656246 
L 277.648638 305.798115 
L 277.648638 305.798115 
" clip-path="url(#pc226b191ef)" style="fill: none; stroke: #3b4cc0; stroke-width: 2; stroke-linecap: square"/>
   </g>
   <g id="line2d_41">
    <path d="M 171.553333 305.8 
L 171.553333 29.76 
" clip-path="url(#pc226b191ef)" style="fill: none; stroke-dasharray: 5.55,2.4; stroke-dashoffset: 0; stroke: #000000; stroke-width: 1.5"/>
   </g>
   <g id="line2d_42">
    <path d="M 291.606667 305.8 
L 291.606667 29.76 
" clip-path="url(#pc226b191ef)" style="fill: none; stroke-dasharray: 5.55,2.4; stroke-dashoffset: 0; stroke: #000000; stroke-width: 1.5"/>
   </g>
   <g id="patch_3">
    <path d="M 51.5 305.8 
L 51.5 29.76 
" style="fill: none; stroke: #000000; stroke-width: 0.8; stroke-linejoin: miter; stroke-linecap: square"/>
   </g>
   <g id="patch_4">
    <path d="M 411.66 305.8 
L 411.66 29.76 
" style="fill: none; stroke: #000000; stroke-width: 0.8; stroke-linejoin: miter; stroke-linecap: square"/>
   </g>
   <g id="patch_5">
    <path d="M 51.5 305.8 
L 411.66 305.8 
" style="fill: none; stroke: #000000; stroke-width: 0.8; stroke-linejoin: miter; stroke-linecap: square"/>
   </g>
   <g id="patch_6">
    <path d="M 51.5 29.76 
L 411.66 29.76 
" style="fill: none; stroke: #000000; stroke-width: 0.8; stroke-linejoin: miter; stroke-linecap: square"/>
   </g>
   <g id="text_19">
    <!-- Active Learning in 300K for CNT(10,10) in Water -->
    <g transform="translate(38.94875 23.76) scale(0.16 -0.16)">
     <defs>
      <path id="DejaVuSans-41" d="M 2188 4044 
L 1331 1722 
L 3047 1722 
L 2188 4044 
z
M 1831 4666 
L 2547 4666 
L 4325 0 
L 3669 0 
L 3244 1197 
L 1141 1197 
L 716 0 
L 50 0 
L 1831 4666 
z
" transform="scale(0.015625)"/>
      <path id="DejaVuSans-63" d="M 3122 3366 
L 3122 2828 
Q 2878 2963 2633 3030 
Q 2388 3097 2138 3097 
Q 1578 3097 1268 2742 
Q 959 2388 959 1747 
Q 959 1106 1268 751 
Q 1578 397 2138 397 
Q 2388 397 2633 464 
Q 2878 531 3122 666 
L 3122 134 
Q 2881 22 2623 -34 
Q 2366 -91 2075 -91 
Q 1284 -91 818 406 
Q 353 903 353 1747 
Q 353 2603 823 3093 
Q 1294 3584 2113 3584 
Q 2378 3584 2631 3529 
Q 2884 3475 3122 3366 
z
" transform="scale(0.015625)"/>
      <path id="DejaVuSans-76" d="M 191 3500 
L 800 3500 
L 1894 563 
L 2988 3500 
L 3597 3500 
L 2284 0 
L 1503 0 
L 191 3500 
z
" transform="scale(0.015625)"/>
      <path id="DejaVuSans-65" d="M 3597 1894 
L 3597 1613 
L 953 1613 
Q 991 1019 1311 708 
Q 1631 397 2203 397 
Q 2534 397 2845 478 
Q 3156 559 3463 722 
L 3463 178 
Q 3153 47 2828 -22 
Q 2503 -91 2169 -91 
Q 1331 -91 842 396 
Q 353 884 353 1716 
Q 353 2575 817 3079 
Q 1281 3584 2069 3584 
Q 2775 3584 3186 3129 
Q 3597 2675 3597 1894 
z
M 3022 2063 
Q 3016 2534 2758 2815 
Q 2500 3097 2075 3097 
Q 1594 3097 1305 2825 
Q 1016 2553 972 2059 
L 3022 2063 
z
" transform="scale(0.015625)"/>
      <path id="DejaVuSans-20" transform="scale(0.015625)"/>
      <path id="DejaVuSans-4c" d="M 628 4666 
L 1259 4666 
L 1259 531 
L 3531 531 
L 3531 0 
L 628 0 
L 628 4666 
z
" transform="scale(0.015625)"/>
      <path id="DejaVuSans-61" d="M 2194 1759 
Q 1497 1759 1228 1600 
Q 959 1441 959 1056 
Q 959 750 1161 570 
Q 1363 391 1709 391 
Q 2188 391 2477 730 
Q 2766 1069 2766 1631 
L 2766 1759 
L 2194 1759 
z
M 3341 1997 
L 3341 0 
L 2766 0 
L 2766 531 
Q 2569 213 2275 61 
Q 1981 -91 1556 -91 
Q 1019 -91 701 211 
Q 384 513 384 1019 
Q 384 1609 779 1909 
Q 1175 2209 1959 2209 
L 2766 2209 
L 2766 2266 
Q 2766 2663 2505 2880 
Q 2244 3097 1772 3097 
Q 1472 3097 1187 3025 
Q 903 2953 641 2809 
L 641 3341 
Q 956 3463 1253 3523 
Q 1550 3584 1831 3584 
Q 2591 3584 2966 3190 
Q 3341 2797 3341 1997 
z
" transform="scale(0.015625)"/>
      <path id="DejaVuSans-67" d="M 2906 1791 
Q 2906 2416 2648 2759 
Q 2391 3103 1925 3103 
Q 1463 3103 1205 2759 
Q 947 2416 947 1791 
Q 947 1169 1205 825 
Q 1463 481 1925 481 
Q 2391 481 2648 825 
Q 2906 1169 2906 1791 
z
M 3481 434 
Q 3481 -459 3084 -895 
Q 2688 -1331 1869 -1331 
Q 1566 -1331 1297 -1286 
Q 1028 -1241 775 -1147 
L 775 -588 
Q 1028 -725 1275 -790 
Q 1522 -856 1778 -856 
Q 2344 -856 2625 -561 
Q 2906 -266 2906 331 
L 2906 616 
Q 2728 306 2450 153 
Q 2172 0 1784 0 
Q 1141 0 747 490 
Q 353 981 353 1791 
Q 353 2603 747 3093 
Q 1141 3584 1784 3584 
Q 2172 3584 2450 3431 
Q 2728 3278 2906 2969 
L 2906 3500 
L 3481 3500 
L 3481 434 
z
" transform="scale(0.015625)"/>
      <path id="DejaVuSans-4b" d="M 628 4666 
L 1259 4666 
L 1259 2694 
L 3353 4666 
L 4166 4666 
L 1850 2491 
L 4331 0 
L 3500 0 
L 1259 2247 
L 1259 0 
L 628 0 
L 628 4666 
z
" transform="scale(0.015625)"/>
      <path id="DejaVuSans-66" d="M 2375 4863 
L 2375 4384 
L 1825 4384 
Q 1516 4384 1395 4259 
Q 1275 4134 1275 3809 
L 1275 3500 
L 2222 3500 
L 2222 3053 
L 1275 3053 
L 1275 0 
L 697 0 
L 697 3053 
L 147 3053 
L 147 3500 
L 697 3500 
L 697 3744 
Q 697 4328 969 4595 
Q 1241 4863 1831 4863 
L 2375 4863 
z
" transform="scale(0.015625)"/>
      <path id="DejaVuSans-43" d="M 4122 4306 
L 4122 3641 
Q 3803 3938 3442 4084 
Q 3081 4231 2675 4231 
Q 1875 4231 1450 3742 
Q 1025 3253 1025 2328 
Q 1025 1406 1450 917 
Q 1875 428 2675 428 
Q 3081 428 3442 575 
Q 3803 722 4122 1019 
L 4122 359 
Q 3791 134 3420 21 
Q 3050 -91 2638 -91 
Q 1578 -91 968 557 
Q 359 1206 359 2328 
Q 359 3453 968 4101 
Q 1578 4750 2638 4750 
Q 3056 4750 3426 4639 
Q 3797 4528 4122 4306 
z
" transform="scale(0.015625)"/>
      <path id="DejaVuSans-4e" d="M 628 4666 
L 1478 4666 
L 3547 763 
L 3547 4666 
L 4159 4666 
L 4159 0 
L 3309 0 
L 1241 3903 
L 1241 0 
L 628 0 
L 628 4666 
z
" transform="scale(0.015625)"/>
      <path id="DejaVuSans-54" d="M -19 4666 
L 3928 4666 
L 3928 4134 
L 2272 4134 
L 2272 0 
L 1638 0 
L 1638 4134 
L -19 4134 
L -19 4666 
z
" transform="scale(0.015625)"/>
      <path id="DejaVuSans-2c" d="M 750 794 
L 1409 794 
L 1409 256 
L 897 -744 
L 494 -744 
L 750 256 
L 750 794 
z
" transform="scale(0.015625)"/>
      <path id="DejaVuSans-57" d="M 213 4666 
L 850 4666 
L 1831 722 
L 2809 4666 
L 3519 4666 
L 4500 722 
L 5478 4666 
L 6119 4666 
L 4947 0 
L 4153 0 
L 3169 4050 
L 2175 0 
L 1381 0 
L 213 4666 
z
" transform="scale(0.015625)"/>
     </defs>
     <use xlink:href="#DejaVuSans-41"/>
     <use xlink:href="#DejaVuSans-63" x="66.658203"/>
     <use xlink:href="#DejaVuSans-74" x="121.638672"/>
     <use xlink:href="#DejaVuSans-69" x="160.847656"/>
     <use xlink:href="#DejaVuSans-76" x="188.630859"/>
     <use xlink:href="#DejaVuSans-65" x="247.810547"/>
     <use xlink:href="#DejaVuSans-20" x="309.333984"/>
     <use xlink:href="#DejaVuSans-4c" x="341.121094"/>
     <use xlink:href="#DejaVuSans-65" x="395.083984"/>
     <use xlink:href="#DejaVuSans-61" x="456.607422"/>
     <use xlink:href="#DejaVuSans-72" x="517.886719"/>
     <use xlink:href="#DejaVuSans-6e" x="557.25"/>
     <use xlink:href="#DejaVuSans-69" x="620.628906"/>
     <use xlink:href="#DejaVuSans-6e" x="648.412109"/>
     <use xlink:href="#DejaVuSans-67" x="711.791016"/>
     <use xlink:href="#DejaVuSans-20" x="775.267578"/>
     <use xlink:href="#DejaVuSans-69" x="807.054688"/>
     <use xlink:href="#DejaVuSans-6e" x="834.837891"/>
     <use xlink:href="#DejaVuSans-20" x="898.216797"/>
     <use xlink:href="#DejaVuSans-33" x="930.003906"/>
     <use xlink:href="#DejaVuSans-30" x="993.626953"/>
     <use xlink:href="#DejaVuSans-30" x="1057.25"/>
     <use xlink:href="#DejaVuSans-4b" x="1120.873047"/>
     <use xlink:href="#DejaVuSans-20" x="1186.449219"/>
     <use xlink:href="#DejaVuSans-66" x="1218.236328"/>
     <use xlink:href="#DejaVuSans-6f" x="1253.441406"/>
     <use xlink:href="#DejaVuSans-72" x="1314.623047"/>
     <use xlink:href="#DejaVuSans-20" x="1355.736328"/>
     <use xlink:href="#DejaVuSans-43" x="1387.523438"/>
     <use xlink:href="#DejaVuSans-4e" x="1457.347656"/>
     <use xlink:href="#DejaVuSans-54" x="1532.152344"/>
     <use xlink:href="#DejaVuSans-28" x="1593.236328"/>
     <use xlink:href="#DejaVuSans-31" x="1632.25"/>
     <use xlink:href="#DejaVuSans-30" x="1695.873047"/>
     <use xlink:href="#DejaVuSans-2c" x="1759.496094"/>
     <use xlink:href="#DejaVuSans-31" x="1791.283203"/>
     <use xlink:href="#DejaVuSans-30" x="1854.90625"/>
     <use xlink:href="#DejaVuSans-29" x="1918.529297"/>
     <use xlink:href="#DejaVuSans-20" x="1957.542969"/>
     <use xlink:href="#DejaVuSans-69" x="1989.330078"/>
     <use xlink:href="#DejaVuSans-6e" x="2017.113281"/>
     <use xlink:href="#DejaVuSans-20" x="2080.492188"/>
     <use xlink:href="#DejaVuSans-57" x="2112.279297"/>
     <use xlink:href="#DejaVuSans-61" x="2204.78125"/>
     <use xlink:href="#DejaVuSans-74" x="2266.060547"/>
     <use xlink:href="#DejaVuSans-65" x="2305.269531"/>
     <use xlink:href="#DejaVuSans-72" x="2366.792969"/>
    </g>
   </g>
   <g id="legend_1">
    <g id="patch_7">
     <path d="M 314.339687 155.185 
L 404.66 155.185 
Q 406.66 155.185 406.66 153.185 
L 406.66 36.76 
Q 406.66 34.76 404.66 34.76 
L 314.339687 34.76 
Q 312.339687 34.76 312.339687 36.76 
L 312.339687 153.185 
Q 312.339687 155.185 314.339687 155.185 
z
" style="fill: #ffffff; opacity: 0.8; stroke: #cccccc; stroke-linejoin: miter"/>
    </g>
    <g id="line2d_43">
     <path d="M 316.339687 42.858437 
L 326.339687 42.858437 
L 336.339687 42.858437 
" style="fill: none; stroke: #b40426; stroke-width: 2; stroke-linecap: square"/>
    </g>
    <g id="text_20">
     <!-- Iteration 28 -->
     <g transform="translate(344.339687 46.358437) scale(0.1 -0.1)">
      <defs>
       <path id="DejaVuSans-49" d="M 628 4666 
L 1259 4666 
L 1259 0 
L 628 0 
L 628 4666 
z
" transform="scale(0.015625)"/>
       <path id="DejaVuSans-38" d="M 2034 2216 
Q 1584 2216 1326 1975 
Q 1069 1734 1069 1313 
Q 1069 891 1326 650 
Q 1584 409 2034 409 
Q 2484 409 2743 651 
Q 3003 894 3003 1313 
Q 3003 1734 2745 1975 
Q 2488 2216 2034 2216 
z
M 1403 2484 
Q 997 2584 770 2862 
Q 544 3141 544 3541 
Q 544 4100 942 4425 
Q 1341 4750 2034 4750 
Q 2731 4750 3128 4425 
Q 3525 4100 3525 3541 
Q 3525 3141 3298 2862 
Q 3072 2584 2669 2484 
Q 3125 2378 3379 2068 
Q 3634 1759 3634 1313 
Q 3634 634 3220 271 
Q 2806 -91 2034 -91 
Q 1263 -91 848 271 
Q 434 634 434 1313 
Q 434 1759 690 2068 
Q 947 2378 1403 2484 
z
M 1172 3481 
Q 1172 3119 1398 2916 
Q 1625 2713 2034 2713 
Q 2441 2713 2670 2916 
Q 2900 3119 2900 3481 
Q 2900 3844 2670 4047 
Q 2441 4250 2034 4250 
Q 1625 4250 1398 4047 
Q 1172 3844 1172 3481 
z
" transform="scale(0.015625)"/>
      </defs>
      <use xlink:href="#DejaVuSans-49"/>
      <use xlink:href="#DejaVuSans-74" x="29.492188"/>
      <use xlink:href="#DejaVuSans-65" x="68.701172"/>
      <use xlink:href="#DejaVuSans-72" x="130.224609"/>
      <use xlink:href="#DejaVuSans-61" x="171.337891"/>
      <use xlink:href="#DejaVuSans-74" x="232.617188"/>
      <use xlink:href="#DejaVuSans-69" x="271.826172"/>
      <use xlink:href="#DejaVuSans-6f" x="299.609375"/>
      <use xlink:href="#DejaVuSans-6e" x="360.791016"/>
      <use xlink:href="#DejaVuSans-20" x="424.169922"/>
      <use xlink:href="#DejaVuSans-32" x="455.957031"/>
      <use xlink:href="#DejaVuSans-38" x="519.580078"/>
     </g>
    </g>
    <g id="line2d_44">
     <path d="M 316.339687 57.536563 
L 326.339687 57.536563 
L 336.339687 57.536563 
" style="fill: none; stroke: #e26953; stroke-width: 2; stroke-linecap: square"/>
    </g>
    <g id="text_21">
     <!-- Iteration 30 -->
     <g transform="translate(344.339687 61.036563) scale(0.1 -0.1)">
      <use xlink:href="#DejaVuSans-49"/>
      <use xlink:href="#DejaVuSans-74" x="29.492188"/>
      <use xlink:href="#DejaVuSans-65" x="68.701172"/>
      <use xlink:href="#DejaVuSans-72" x="130.224609"/>
      <use xlink:href="#DejaVuSans-61" x="171.337891"/>
      <use xlink:href="#DejaVuSans-74" x="232.617188"/>
      <use xlink:href="#DejaVuSans-69" x="271.826172"/>
      <use xlink:href="#DejaVuSans-6f" x="299.609375"/>
      <use xlink:href="#DejaVuSans-6e" x="360.791016"/>
      <use xlink:href="#DejaVuSans-20" x="424.169922"/>
      <use xlink:href="#DejaVuSans-33" x="455.957031"/>
      <use xlink:href="#DejaVuSans-30" x="519.580078"/>
     </g>
    </g>
    <g id="line2d_45">
     <path d="M 316.339687 72.214687 
L 326.339687 72.214687 
L 336.339687 72.214687 
" style="fill: none; stroke: #f7a789; stroke-width: 2; stroke-linecap: square"/>
    </g>
    <g id="text_22">
     <!-- Iteration 32 -->
     <g transform="translate(344.339687 75.714687) scale(0.1 -0.1)">
      <use xlink:href="#DejaVuSans-49"/>
      <use xlink:href="#DejaVuSans-74" x="29.492188"/>
      <use xlink:href="#DejaVuSans-65" x="68.701172"/>
      <use xlink:href="#DejaVuSans-72" x="130.224609"/>
      <use xlink:href="#DejaVuSans-61" x="171.337891"/>
      <use xlink:href="#DejaVuSans-74" x="232.617188"/>
      <use xlink:href="#DejaVuSans-69" x="271.826172"/>
      <use xlink:href="#DejaVuSans-6f" x="299.609375"/>
      <use xlink:href="#DejaVuSans-6e" x="360.791016"/>
      <use xlink:href="#DejaVuSans-20" x="424.169922"/>
      <use xlink:href="#DejaVuSans-33" x="455.957031"/>
      <use xlink:href="#DejaVuSans-32" x="519.580078"/>
     </g>
    </g>
    <g id="line2d_46">
     <path d="M 316.339687 86.892812 
L 326.339687 86.892812 
L 336.339687 86.892812 
" style="fill: none; stroke: #edd1c2; stroke-width: 2; stroke-linecap: square"/>
    </g>
    <g id="text_23">
     <!-- Iteration 34 -->
     <g transform="translate(344.339687 90.392812) scale(0.1 -0.1)">
      <use xlink:href="#DejaVuSans-49"/>
      <use xlink:href="#DejaVuSans-74" x="29.492188"/>
      <use xlink:href="#DejaVuSans-65" x="68.701172"/>
      <use xlink:href="#DejaVuSans-72" x="130.224609"/>
      <use xlink:href="#DejaVuSans-61" x="171.337891"/>
      <use xlink:href="#DejaVuSans-74" x="232.617188"/>
      <use xlink:href="#DejaVuSans-69" x="271.826172"/>
      <use xlink:href="#DejaVuSans-6f" x="299.609375"/>
      <use xlink:href="#DejaVuSans-6e" x="360.791016"/>
      <use xlink:href="#DejaVuSans-20" x="424.169922"/>
      <use xlink:href="#DejaVuSans-33" x="455.957031"/>
      <use xlink:href="#DejaVuSans-34" x="519.580078"/>
     </g>
    </g>
    <g id="line2d_47">
     <path d="M 316.339687 101.570937 
L 326.339687 101.570937 
L 336.339687 101.570937 
" style="fill: none; stroke: #c9d8ef; stroke-width: 2; stroke-linecap: square"/>
    </g>
    <g id="text_24">
     <!-- Iteration 36 -->
     <g transform="translate(344.339687 105.070937) scale(0.1 -0.1)">
      <use xlink:href="#DejaVuSans-49"/>
      <use xlink:href="#DejaVuSans-74" x="29.492188"/>
      <use xlink:href="#DejaVuSans-65" x="68.701172"/>
      <use xlink:href="#DejaVuSans-72" x="130.224609"/>
      <use xlink:href="#DejaVuSans-61" x="171.337891"/>
      <use xlink:href="#DejaVuSans-74" x="232.617188"/>
      <use xlink:href="#DejaVuSans-69" x="271.826172"/>
      <use xlink:href="#DejaVuSans-6f" x="299.609375"/>
      <use xlink:href="#DejaVuSans-6e" x="360.791016"/>
      <use xlink:href="#DejaVuSans-20" x="424.169922"/>
      <use xlink:href="#DejaVuSans-33" x="455.957031"/>
      <use xlink:href="#DejaVuSans-36" x="519.580078"/>
     </g>
    </g>
    <g id="line2d_48">
     <path d="M 316.339687 116.249062 
L 326.339687 116.249062 
L 336.339687 116.249062 
" style="fill: none; stroke: #9abaff; stroke-width: 2; stroke-linecap: square"/>
    </g>
    <g id="text_25">
     <!-- Iteration 38 -->
     <g transform="translate(344.339687 119.749062) scale(0.1 -0.1)">
      <use xlink:href="#DejaVuSans-49"/>
      <use xlink:href="#DejaVuSans-74" x="29.492188"/>
      <use xlink:href="#DejaVuSans-65" x="68.701172"/>
      <use xlink:href="#DejaVuSans-72" x="130.224609"/>
      <use xlink:href="#DejaVuSans-61" x="171.337891"/>
      <use xlink:href="#DejaVuSans-74" x="232.617188"/>
      <use xlink:href="#DejaVuSans-69" x="271.826172"/>
      <use xlink:href="#DejaVuSans-6f" x="299.609375"/>
      <use xlink:href="#DejaVuSans-6e" x="360.791016"/>
      <use xlink:href="#DejaVuSans-20" x="424.169922"/>
      <use xlink:href="#DejaVuSans-33" x="455.957031"/>
      <use xlink:href="#DejaVuSans-38" x="519.580078"/>
     </g>
    </g>
    <g id="line2d_49">
     <path d="M 316.339687 130.927187 
L 326.339687 130.927187 
L 336.339687 130.927187 
" style="fill: none; stroke: #6889ee; stroke-width: 2; stroke-linecap: square"/>
    </g>
    <g id="text_26">
     <!-- Iteration 40 -->
     <g transform="translate(344.339687 134.427187) scale(0.1 -0.1)">
      <use xlink:href="#DejaVuSans-49"/>
      <use xlink:href="#DejaVuSans-74" x="29.492188"/>
      <use xlink:href="#DejaVuSans-65" x="68.701172"/>
      <use xlink:href="#DejaVuSans-72" x="130.224609"/>
      <use xlink:href="#DejaVuSans-61" x="171.337891"/>
      <use xlink:href="#DejaVuSans-74" x="232.617188"/>
      <use xlink:href="#DejaVuSans-69" x="271.826172"/>
      <use xlink:href="#DejaVuSans-6f" x="299.609375"/>
      <use xlink:href="#DejaVuSans-6e" x="360.791016"/>
      <use xlink:href="#DejaVuSans-20" x="424.169922"/>
      <use xlink:href="#DejaVuSans-34" x="455.957031"/>
      <use xlink:href="#DejaVuSans-30" x="519.580078"/>
     </g>
    </g>
    <g id="line2d_50">
     <path d="M 316.339687 145.605312 
L 326.339687 145.605312 
L 336.339687 145.605312 
" style="fill: none; stroke: #3b4cc0; stroke-width: 2; stroke-linecap: square"/>
    </g>
    <g id="text_27">
     <!-- Iteration 42 -->
     <g transform="translate(344.339687 149.105312) scale(0.1 -0.1)">
      <use xlink:href="#DejaVuSans-49"/>
      <use xlink:href="#DejaVuSans-74" x="29.492188"/>
      <use xlink:href="#DejaVuSans-65" x="68.701172"/>
      <use xlink:href="#DejaVuSans-72" x="130.224609"/>
      <use xlink:href="#DejaVuSans-61" x="171.337891"/>
      <use xlink:href="#DejaVuSans-74" x="232.617188"/>
      <use xlink:href="#DejaVuSans-69" x="271.826172"/>
      <use xlink:href="#DejaVuSans-6f" x="299.609375"/>
      <use xlink:href="#DejaVuSans-6e" x="360.791016"/>
      <use xlink:href="#DejaVuSans-20" x="424.169922"/>
      <use xlink:href="#DejaVuSans-34" x="455.957031"/>
      <use xlink:href="#DejaVuSans-32" x="519.580078"/>
     </g>
    </g>
   </g>
  </g>
 </g>
 <defs>
  <clipPath id="pc226b191ef">
   <rect x="51.5" y="29.76" width="360.16" height="276.04"/>
  </clipPath>
 </defs>
</svg>
