<?xml version="1.0" encoding="utf-8" standalone="no"?>
<!DOCTYPE svg PUBLIC "-//W3C//DTD SVG 1.1//EN"
  "http://www.w3.org/Graphics/SVG/1.1/DTD/svg11.dtd">
<svg xmlns:xlink="http://www.w3.org/1999/xlink" width="432pt" height="360pt" viewBox="0 0 432 360" xmlns="http://www.w3.org/2000/svg" version="1.1">
 <metadata>
  <rdf:RDF xmlns:dc="http://purl.org/dc/elements/1.1/" xmlns:cc="http://creativecommons.org/ns#" xmlns:rdf="http://www.w3.org/1999/02/22-rdf-syntax-ns#">
   <cc:Work>
    <dc:type rdf:resource="http://purl.org/dc/dcmitype/StillImage"/>
    <dc:date>2023-10-16T13:14:47.746836</dc:date>
    <dc:format>image/svg+xml</dc:format>
    <dc:creator>
     <cc:Agent>
      <dc:title>Matplotlib v3.7.1, https://matplotlib.org/</dc:title>
     </cc:Agent>
    </dc:creator>
   </cc:Work>
  </rdf:RDF>
 </metadata>
 <defs>
  <style type="text/css">*{stroke-linejoin: round; stroke-linecap: butt}</style>
 </defs>
 <g id="figure_1">
  <g id="patch_1">
   <path d="M 0 360 
L 432 360 
L 432 0 
L 0 0 
L 0 360 
z
" style="fill: none"/>
  </g>
  <g id="axes_1">
   <g id="patch_2">
    <path d="M 51.5 305.8 
L 411.66 305.8 
L 411.66 29.76 
L 51.5 29.76 
L 51.5 305.8 
z
" style="fill: none"/>
   </g>
   <g id="matplotlib.axis_1">
    <g id="xtick_1">
     <g id="line2d_1">
      <path d="M 51.5 305.8 
L 51.5 29.76 
" clip-path="url(#p6737004e62)" style="fill: none; stroke: #b0b0b0; stroke-width: 0.8; stroke-linecap: square"/>
     </g>
     <g id="line2d_2">
      <defs>
       <path id="m4744b096eb" d="M 0 0 
L 0 3.5 
" style="stroke: #000000; stroke-width: 0.8"/>
      </defs>
      <g>
       <use xlink:href="#m4744b096eb" x="51.5" y="305.8" style="stroke: #000000; stroke-width: 0.8"/>
      </g>
     </g>
     <g id="text_1">
      <!-- 0.0 -->
      <g transform="translate(41.958125 321.918125) scale(0.12 -0.12)">
       <defs>
        <path id="DejaVuSans-30" d="M 2034 4250 
Q 1547 4250 1301 3770 
Q 1056 3291 1056 2328 
Q 1056 1369 1301 889 
Q 1547 409 2034 409 
Q 2525 409 2770 889 
Q 3016 1369 3016 2328 
Q 3016 3291 2770 3770 
Q 2525 4250 2034 4250 
z
M 2034 4750 
Q 2819 4750 3233 4129 
Q 3647 3509 3647 2328 
Q 3647 1150 3233 529 
Q 2819 -91 2034 -91 
Q 1250 -91 836 529 
Q 422 1150 422 2328 
Q 422 3509 836 4129 
Q 1250 4750 2034 4750 
z
" transform="scale(0.015625)"/>
        <path id="DejaVuSans-2e" d="M 684 794 
L 1344 794 
L 1344 0 
L 684 0 
L 684 794 
z
" transform="scale(0.015625)"/>
       </defs>
       <use xlink:href="#DejaVuSans-30"/>
       <use xlink:href="#DejaVuSans-2e" x="63.623047"/>
       <use xlink:href="#DejaVuSans-30" x="95.410156"/>
      </g>
     </g>
    </g>
    <g id="xtick_2">
     <g id="line2d_3">
      <path d="M 111.526667 305.8 
L 111.526667 29.76 
" clip-path="url(#p6737004e62)" style="fill: none; stroke: #b0b0b0; stroke-width: 0.8; stroke-linecap: square"/>
     </g>
     <g id="line2d_4">
      <g>
       <use xlink:href="#m4744b096eb" x="111.526667" y="305.8" style="stroke: #000000; stroke-width: 0.8"/>
      </g>
     </g>
     <g id="text_2">
      <!-- 0.1 -->
      <g transform="translate(101.984792 321.918125) scale(0.12 -0.12)">
       <defs>
        <path id="DejaVuSans-31" d="M 794 531 
L 1825 531 
L 1825 4091 
L 703 3866 
L 703 4441 
L 1819 4666 
L 2450 4666 
L 2450 531 
L 3481 531 
L 3481 0 
L 794 0 
L 794 531 
z
" transform="scale(0.015625)"/>
       </defs>
       <use xlink:href="#DejaVuSans-30"/>
       <use xlink:href="#DejaVuSans-2e" x="63.623047"/>
       <use xlink:href="#DejaVuSans-31" x="95.410156"/>
      </g>
     </g>
    </g>
    <g id="xtick_3">
     <g id="line2d_5">
      <path d="M 171.553333 305.8 
L 171.553333 29.76 
" clip-path="url(#p6737004e62)" style="fill: none; stroke: #b0b0b0; stroke-width: 0.8; stroke-linecap: square"/>
     </g>
     <g id="line2d_6">
      <g>
       <use xlink:href="#m4744b096eb" x="171.553333" y="305.8" style="stroke: #000000; stroke-width: 0.8"/>
      </g>
     </g>
     <g id="text_3">
      <!-- 0.2 -->
      <g transform="translate(162.011458 321.918125) scale(0.12 -0.12)">
       <defs>
        <path id="DejaVuSans-32" d="M 1228 531 
L 3431 531 
L 3431 0 
L 469 0 
L 469 531 
Q 828 903 1448 1529 
Q 2069 2156 2228 2338 
Q 2531 2678 2651 2914 
Q 2772 3150 2772 3378 
Q 2772 3750 2511 3984 
Q 2250 4219 1831 4219 
Q 1534 4219 1204 4116 
Q 875 4013 500 3803 
L 500 4441 
Q 881 4594 1212 4672 
Q 1544 4750 1819 4750 
Q 2544 4750 2975 4387 
Q 3406 4025 3406 3419 
Q 3406 3131 3298 2873 
Q 3191 2616 2906 2266 
Q 2828 2175 2409 1742 
Q 1991 1309 1228 531 
z
" transform="scale(0.015625)"/>
       </defs>
       <use xlink:href="#DejaVuSans-30"/>
       <use xlink:href="#DejaVuSans-2e" x="63.623047"/>
       <use xlink:href="#DejaVuSans-32" x="95.410156"/>
      </g>
     </g>
    </g>
    <g id="xtick_4">
     <g id="line2d_7">
      <path d="M 231.58 305.8 
L 231.58 29.76 
" clip-path="url(#p6737004e62)" style="fill: none; stroke: #b0b0b0; stroke-width: 0.8; stroke-linecap: square"/>
     </g>
     <g id="line2d_8">
      <g>
       <use xlink:href="#m4744b096eb" x="231.58" y="305.8" style="stroke: #000000; stroke-width: 0.8"/>
      </g>
     </g>
     <g id="text_4">
      <!-- 0.3 -->
      <g transform="translate(222.038125 321.918125) scale(0.12 -0.12)">
       <defs>
        <path id="DejaVuSans-33" d="M 2597 2516 
Q 3050 2419 3304 2112 
Q 3559 1806 3559 1356 
Q 3559 666 3084 287 
Q 2609 -91 1734 -91 
Q 1441 -91 1130 -33 
Q 819 25 488 141 
L 488 750 
Q 750 597 1062 519 
Q 1375 441 1716 441 
Q 2309 441 2620 675 
Q 2931 909 2931 1356 
Q 2931 1769 2642 2001 
Q 2353 2234 1838 2234 
L 1294 2234 
L 1294 2753 
L 1863 2753 
Q 2328 2753 2575 2939 
Q 2822 3125 2822 3475 
Q 2822 3834 2567 4026 
Q 2313 4219 1838 4219 
Q 1578 4219 1281 4162 
Q 984 4106 628 3988 
L 628 4550 
Q 988 4650 1302 4700 
Q 1616 4750 1894 4750 
Q 2613 4750 3031 4423 
Q 3450 4097 3450 3541 
Q 3450 3153 3228 2886 
Q 3006 2619 2597 2516 
z
" transform="scale(0.015625)"/>
       </defs>
       <use xlink:href="#DejaVuSans-30"/>
       <use xlink:href="#DejaVuSans-2e" x="63.623047"/>
       <use xlink:href="#DejaVuSans-33" x="95.410156"/>
      </g>
     </g>
    </g>
    <g id="xtick_5">
     <g id="line2d_9">
      <path d="M 291.606667 305.8 
L 291.606667 29.76 
" clip-path="url(#p6737004e62)" style="fill: none; stroke: #b0b0b0; stroke-width: 0.8; stroke-linecap: square"/>
     </g>
     <g id="line2d_10">
      <g>
       <use xlink:href="#m4744b096eb" x="291.606667" y="305.8" style="stroke: #000000; stroke-width: 0.8"/>
      </g>
     </g>
     <g id="text_5">
      <!-- 0.4 -->
      <g transform="translate(282.064792 321.918125) scale(0.12 -0.12)">
       <defs>
        <path id="DejaVuSans-34" d="M 2419 4116 
L 825 1625 
L 2419 1625 
L 2419 4116 
z
M 2253 4666 
L 3047 4666 
L 3047 1625 
L 3713 1625 
L 3713 1100 
L 3047 1100 
L 3047 0 
L 2419 0 
L 2419 1100 
L 313 1100 
L 313 1709 
L 2253 4666 
z
" transform="scale(0.015625)"/>
       </defs>
       <use xlink:href="#DejaVuSans-30"/>
       <use xlink:href="#DejaVuSans-2e" x="63.623047"/>
       <use xlink:href="#DejaVuSans-34" x="95.410156"/>
      </g>
     </g>
    </g>
    <g id="xtick_6">
     <g id="line2d_11">
      <path d="M 351.633333 305.8 
L 351.633333 29.76 
" clip-path="url(#p6737004e62)" style="fill: none; stroke: #b0b0b0; stroke-width: 0.8; stroke-linecap: square"/>
     </g>
     <g id="line2d_12">
      <g>
       <use xlink:href="#m4744b096eb" x="351.633333" y="305.8" style="stroke: #000000; stroke-width: 0.8"/>
      </g>
     </g>
     <g id="text_6">
      <!-- 0.5 -->
      <g transform="translate(342.091458 321.918125) scale(0.12 -0.12)">
       <defs>
        <path id="DejaVuSans-35" d="M 691 4666 
L 3169 4666 
L 3169 4134 
L 1269 4134 
L 1269 2991 
Q 1406 3038 1543 3061 
Q 1681 3084 1819 3084 
Q 2600 3084 3056 2656 
Q 3513 2228 3513 1497 
Q 3513 744 3044 326 
Q 2575 -91 1722 -91 
Q 1428 -91 1123 -41 
Q 819 9 494 109 
L 494 744 
Q 775 591 1075 516 
Q 1375 441 1709 441 
Q 2250 441 2565 725 
Q 2881 1009 2881 1497 
Q 2881 1984 2565 2268 
Q 2250 2553 1709 2553 
Q 1456 2553 1204 2497 
Q 953 2441 691 2322 
L 691 4666 
z
" transform="scale(0.015625)"/>
       </defs>
       <use xlink:href="#DejaVuSans-30"/>
       <use xlink:href="#DejaVuSans-2e" x="63.623047"/>
       <use xlink:href="#DejaVuSans-35" x="95.410156"/>
      </g>
     </g>
    </g>
    <g id="xtick_7">
     <g id="line2d_13">
      <path d="M 411.66 305.8 
L 411.66 29.76 
" clip-path="url(#p6737004e62)" style="fill: none; stroke: #b0b0b0; stroke-width: 0.8; stroke-linecap: square"/>
     </g>
     <g id="line2d_14">
      <g>
       <use xlink:href="#m4744b096eb" x="411.66" y="305.8" style="stroke: #000000; stroke-width: 0.8"/>
      </g>
     </g>
     <g id="text_7">
      <!-- 0.6 -->
      <g transform="translate(402.118125 321.918125) scale(0.12 -0.12)">
       <defs>
        <path id="DejaVuSans-36" d="M 2113 2584 
Q 1688 2584 1439 2293 
Q 1191 2003 1191 1497 
Q 1191 994 1439 701 
Q 1688 409 2113 409 
Q 2538 409 2786 701 
Q 3034 994 3034 1497 
Q 3034 2003 2786 2293 
Q 2538 2584 2113 2584 
z
M 3366 4563 
L 3366 3988 
Q 3128 4100 2886 4159 
Q 2644 4219 2406 4219 
Q 1781 4219 1451 3797 
Q 1122 3375 1075 2522 
Q 1259 2794 1537 2939 
Q 1816 3084 2150 3084 
Q 2853 3084 3261 2657 
Q 3669 2231 3669 1497 
Q 3669 778 3244 343 
Q 2819 -91 2113 -91 
Q 1303 -91 875 529 
Q 447 1150 447 2328 
Q 447 3434 972 4092 
Q 1497 4750 2381 4750 
Q 2619 4750 2861 4703 
Q 3103 4656 3366 4563 
z
" transform="scale(0.015625)"/>
       </defs>
       <use xlink:href="#DejaVuSans-30"/>
       <use xlink:href="#DejaVuSans-2e" x="63.623047"/>
       <use xlink:href="#DejaVuSans-36" x="95.410156"/>
      </g>
     </g>
    </g>
    <g id="text_8">
     <!-- $\sigma_{f}^{max} (ev/Å)$ -->
     <g transform="translate(192.28 342.36375) scale(0.15 -0.15)">
      <defs>
       <path id="DejaVuSans-Oblique-3c3" d="M 2219 3044 
Q 1744 3044 1422 2700 
Q 1081 2341 969 1747 
Q 844 1119 1044 756 
Q 1241 397 1706 397 
Q 2166 397 2503 759 
Q 2844 1122 2966 1747 
Q 3075 2319 2881 2700 
Q 2700 3044 2219 3044 
z
M 2309 3503 
L 4219 3500 
L 4106 2925 
L 3463 2925 
Q 3706 2438 3575 1747 
Q 3406 888 2884 400 
Q 2359 -91 1609 -91 
Q 856 -91 525 400 
Q 194 888 363 1747 
Q 528 2609 1050 3097 
Q 1484 3503 2309 3503 
z
" transform="scale(0.015625)"/>
       <path id="DejaVuSans-Oblique-6d" d="M 5747 2113 
L 5338 0 
L 4763 0 
L 5166 2094 
Q 5191 2228 5203 2325 
Q 5216 2422 5216 2491 
Q 5216 2772 5059 2928 
Q 4903 3084 4622 3084 
Q 4203 3084 3875 2770 
Q 3547 2456 3450 1953 
L 3066 0 
L 2491 0 
L 2900 2094 
Q 2925 2209 2937 2307 
Q 2950 2406 2950 2484 
Q 2950 2769 2794 2926 
Q 2638 3084 2363 3084 
Q 1938 3084 1609 2770 
Q 1281 2456 1184 1953 
L 800 0 
L 225 0 
L 909 3500 
L 1484 3500 
L 1375 2956 
Q 1609 3263 1923 3423 
Q 2238 3584 2597 3584 
Q 2978 3584 3223 3384 
Q 3469 3184 3519 2828 
Q 3781 3197 4126 3390 
Q 4472 3584 4856 3584 
Q 5306 3584 5551 3325 
Q 5797 3066 5797 2591 
Q 5797 2488 5784 2364 
Q 5772 2241 5747 2113 
z
" transform="scale(0.015625)"/>
       <path id="DejaVuSans-Oblique-61" d="M 3438 1997 
L 3047 0 
L 2472 0 
L 2578 531 
Q 2325 219 2001 64 
Q 1678 -91 1281 -91 
Q 834 -91 548 182 
Q 263 456 263 884 
Q 263 1497 752 1853 
Q 1241 2209 2100 2209 
L 2900 2209 
L 2931 2363 
Q 2938 2388 2941 2417 
Q 2944 2447 2944 2509 
Q 2944 2788 2717 2942 
Q 2491 3097 2081 3097 
Q 1800 3097 1504 3025 
Q 1209 2953 897 2809 
L 997 3341 
Q 1322 3463 1633 3523 
Q 1944 3584 2234 3584 
Q 2853 3584 3176 3315 
Q 3500 3047 3500 2534 
Q 3500 2431 3484 2292 
Q 3469 2153 3438 1997 
z
M 2816 1759 
L 2241 1759 
Q 1534 1759 1195 1570 
Q 856 1381 856 984 
Q 856 709 1029 553 
Q 1203 397 1509 397 
Q 1978 397 2328 733 
Q 2678 1069 2791 1631 
L 2816 1759 
z
" transform="scale(0.015625)"/>
       <path id="DejaVuSans-Oblique-78" d="M 3841 3500 
L 2234 1784 
L 3219 0 
L 2559 0 
L 1819 1388 
L 531 0 
L -166 0 
L 1556 1844 
L 641 3500 
L 1300 3500 
L 1972 2234 
L 3144 3500 
L 3841 3500 
z
" transform="scale(0.015625)"/>
       <path id="DejaVuSans-Oblique-66" d="M 3059 4863 
L 2969 4384 
L 2419 4384 
Q 2106 4384 1964 4261 
Q 1822 4138 1753 3809 
L 1691 3500 
L 2638 3500 
L 2553 3053 
L 1606 3053 
L 1013 0 
L 434 0 
L 1031 3053 
L 481 3053 
L 563 3500 
L 1113 3500 
L 1159 3744 
Q 1278 4363 1576 4613 
Q 1875 4863 2516 4863 
L 3059 4863 
z
" transform="scale(0.015625)"/>
       <path id="DejaVuSans-28" d="M 1984 4856 
Q 1566 4138 1362 3434 
Q 1159 2731 1159 2009 
Q 1159 1288 1364 580 
Q 1569 -128 1984 -844 
L 1484 -844 
Q 1016 -109 783 600 
Q 550 1309 550 2009 
Q 550 2706 781 3412 
Q 1013 4119 1484 4856 
L 1984 4856 
z
" transform="scale(0.015625)"/>
       <path id="DejaVuSans-Oblique-65" d="M 3078 2063 
Q 3088 2113 3092 2166 
Q 3097 2219 3097 2272 
Q 3097 2653 2873 2875 
Q 2650 3097 2266 3097 
Q 1838 3097 1509 2826 
Q 1181 2556 1013 2059 
L 3078 2063 
z
M 3578 1613 
L 903 1613 
Q 884 1494 878 1425 
Q 872 1356 872 1306 
Q 872 872 1139 634 
Q 1406 397 1894 397 
Q 2269 397 2603 481 
Q 2938 566 3225 728 
L 3116 159 
Q 2806 34 2476 -28 
Q 2147 -91 1806 -91 
Q 1078 -91 686 257 
Q 294 606 294 1247 
Q 294 1794 489 2264 
Q 684 2734 1063 3103 
Q 1306 3334 1642 3459 
Q 1978 3584 2356 3584 
Q 2950 3584 3301 3228 
Q 3653 2872 3653 2272 
Q 3653 2128 3634 1964 
Q 3616 1800 3578 1613 
z
" transform="scale(0.015625)"/>
       <path id="DejaVuSans-Oblique-76" d="M 459 3500 
L 1069 3500 
L 1581 525 
L 3256 3500 
L 3866 3500 
L 1875 0 
L 1100 0 
L 459 3500 
z
" transform="scale(0.015625)"/>
       <path id="DejaVuSans-2f" d="M 1625 4666 
L 2156 4666 
L 531 -594 
L 0 -594 
L 1625 4666 
z
" transform="scale(0.015625)"/>
       <path id="DejaVuSans-Oblique-c5" d="M 3188 5081 
Q 3188 5278 3048 5417 
Q 2909 5556 2713 5556 
Q 2513 5556 2377 5420 
Q 2241 5284 2241 5081 
Q 2241 4884 2377 4746 
Q 2513 4609 2713 4609 
Q 2909 4609 3048 4746 
Q 3188 4884 3188 5081 
z
M 2203 4397 
Q 2034 4513 1945 4689 
Q 1856 4866 1856 5081 
Q 1856 5438 2106 5689 
Q 2356 5941 2713 5941 
Q 3069 5941 3320 5689 
Q 3572 5438 3572 5081 
Q 3572 4834 3458 4643 
Q 3344 4453 3128 4341 
L 3938 0 
L 3278 0 
L 3084 1197 
L 984 1197 
L 325 0 
L -341 0 
L 2203 4397 
z
M 2584 4044 
L 1275 1722 
L 2988 1722 
L 2584 4044 
z
" transform="scale(0.015625)"/>
       <path id="DejaVuSans-29" d="M 513 4856 
L 1013 4856 
Q 1481 4119 1714 3412 
Q 1947 2706 1947 2009 
Q 1947 1309 1714 600 
Q 1481 -109 1013 -844 
L 513 -844 
Q 928 -128 1133 580 
Q 1338 1288 1338 2009 
Q 1338 2731 1133 3434 
Q 928 4138 513 4856 
z
" transform="scale(0.015625)"/>
      </defs>
      <use xlink:href="#DejaVuSans-Oblique-3c3" transform="translate(0 0.171875)"/>
      <use xlink:href="#DejaVuSans-Oblique-6d" transform="translate(67.851615 39.5125) scale(0.7)"/>
      <use xlink:href="#DejaVuSans-Oblique-61" transform="translate(136.040091 39.5125) scale(0.7)"/>
      <use xlink:href="#DejaVuSans-Oblique-78" transform="translate(178.935599 39.5125) scale(0.7)"/>
      <use xlink:href="#DejaVuSans-Oblique-66" transform="translate(63.378906 -27.171875) scale(0.7)"/>
      <use xlink:href="#DejaVuSans-28" transform="translate(223.095755 0.171875)"/>
      <use xlink:href="#DejaVuSans-Oblique-65" transform="translate(262.109427 0.171875)"/>
      <use xlink:href="#DejaVuSans-Oblique-76" transform="translate(323.632865 0.171875)"/>
      <use xlink:href="#DejaVuSans-2f" transform="translate(382.812552 0.171875)"/>
      <use xlink:href="#DejaVuSans-Oblique-c5" transform="translate(416.503958 0.171875)"/>
      <use xlink:href="#DejaVuSans-29" transform="translate(484.912161 0.171875)"/>
     </g>
    </g>
   </g>
   <g id="matplotlib.axis_2">
    <g id="ytick_1">
     <g id="line2d_15">
      <path d="M 51.5 305.8 
L 411.66 305.8 
" clip-path="url(#p6737004e62)" style="fill: none; stroke: #b0b0b0; stroke-width: 0.8; stroke-linecap: square"/>
     </g>
     <g id="line2d_16">
      <defs>
       <path id="ma9ac9e4812" d="M 0 0 
L -3.5 0 
" style="stroke: #000000; stroke-width: 0.8"/>
      </defs>
      <g>
       <use xlink:href="#ma9ac9e4812" x="51.5" y="305.8" style="stroke: #000000; stroke-width: 0.8"/>
      </g>
     </g>
     <g id="text_9">
      <!-- 0 -->
      <g transform="translate(36.865 310.359062) scale(0.12 -0.12)">
       <use xlink:href="#DejaVuSans-30"/>
      </g>
     </g>
    </g>
    <g id="ytick_2">
     <g id="line2d_17">
      <path d="M 51.5 271.295 
L 411.66 271.295 
" clip-path="url(#p6737004e62)" style="fill: none; stroke: #b0b0b0; stroke-width: 0.8; stroke-linecap: square"/>
     </g>
     <g id="line2d_18">
      <g>
       <use xlink:href="#ma9ac9e4812" x="51.5" y="271.295" style="stroke: #000000; stroke-width: 0.8"/>
      </g>
     </g>
     <g id="text_10">
      <!-- 5 -->
      <g transform="translate(36.865 275.854062) scale(0.12 -0.12)">
       <use xlink:href="#DejaVuSans-35"/>
      </g>
     </g>
    </g>
    <g id="ytick_3">
     <g id="line2d_19">
      <path d="M 51.5 236.79 
L 411.66 236.79 
" clip-path="url(#p6737004e62)" style="fill: none; stroke: #b0b0b0; stroke-width: 0.8; stroke-linecap: square"/>
     </g>
     <g id="line2d_20">
      <g>
       <use xlink:href="#ma9ac9e4812" x="51.5" y="236.79" style="stroke: #000000; stroke-width: 0.8"/>
      </g>
     </g>
     <g id="text_11">
      <!-- 10 -->
      <g transform="translate(29.23 241.349063) scale(0.12 -0.12)">
       <use xlink:href="#DejaVuSans-31"/>
       <use xlink:href="#DejaVuSans-30" x="63.623047"/>
      </g>
     </g>
    </g>
    <g id="ytick_4">
     <g id="line2d_21">
      <path d="M 51.5 202.285 
L 411.66 202.285 
" clip-path="url(#p6737004e62)" style="fill: none; stroke: #b0b0b0; stroke-width: 0.8; stroke-linecap: square"/>
     </g>
     <g id="line2d_22">
      <g>
       <use xlink:href="#ma9ac9e4812" x="51.5" y="202.285" style="stroke: #000000; stroke-width: 0.8"/>
      </g>
     </g>
     <g id="text_12">
      <!-- 15 -->
      <g transform="translate(29.23 206.844062) scale(0.12 -0.12)">
       <use xlink:href="#DejaVuSans-31"/>
       <use xlink:href="#DejaVuSans-35" x="63.623047"/>
      </g>
     </g>
    </g>
    <g id="ytick_5">
     <g id="line2d_23">
      <path d="M 51.5 167.78 
L 411.66 167.78 
" clip-path="url(#p6737004e62)" style="fill: none; stroke: #b0b0b0; stroke-width: 0.8; stroke-linecap: square"/>
     </g>
     <g id="line2d_24">
      <g>
       <use xlink:href="#ma9ac9e4812" x="51.5" y="167.78" style="stroke: #000000; stroke-width: 0.8"/>
      </g>
     </g>
     <g id="text_13">
      <!-- 20 -->
      <g transform="translate(29.23 172.339062) scale(0.12 -0.12)">
       <use xlink:href="#DejaVuSans-32"/>
       <use xlink:href="#DejaVuSans-30" x="63.623047"/>
      </g>
     </g>
    </g>
    <g id="ytick_6">
     <g id="line2d_25">
      <path d="M 51.5 133.275 
L 411.66 133.275 
" clip-path="url(#p6737004e62)" style="fill: none; stroke: #b0b0b0; stroke-width: 0.8; stroke-linecap: square"/>
     </g>
     <g id="line2d_26">
      <g>
       <use xlink:href="#ma9ac9e4812" x="51.5" y="133.275" style="stroke: #000000; stroke-width: 0.8"/>
      </g>
     </g>
     <g id="text_14">
      <!-- 25 -->
      <g transform="translate(29.23 137.834062) scale(0.12 -0.12)">
       <use xlink:href="#DejaVuSans-32"/>
       <use xlink:href="#DejaVuSans-35" x="63.623047"/>
      </g>
     </g>
    </g>
    <g id="ytick_7">
     <g id="line2d_27">
      <path d="M 51.5 98.77 
L 411.66 98.77 
" clip-path="url(#p6737004e62)" style="fill: none; stroke: #b0b0b0; stroke-width: 0.8; stroke-linecap: square"/>
     </g>
     <g id="line2d_28">
      <g>
       <use xlink:href="#ma9ac9e4812" x="51.5" y="98.77" style="stroke: #000000; stroke-width: 0.8"/>
      </g>
     </g>
     <g id="text_15">
      <!-- 30 -->
      <g transform="translate(29.23 103.329062) scale(0.12 -0.12)">
       <use xlink:href="#DejaVuSans-33"/>
       <use xlink:href="#DejaVuSans-30" x="63.623047"/>
      </g>
     </g>
    </g>
    <g id="ytick_8">
     <g id="line2d_29">
      <path d="M 51.5 64.265 
L 411.66 64.265 
" clip-path="url(#p6737004e62)" style="fill: none; stroke: #b0b0b0; stroke-width: 0.8; stroke-linecap: square"/>
     </g>
     <g id="line2d_30">
      <g>
       <use xlink:href="#ma9ac9e4812" x="51.5" y="64.265" style="stroke: #000000; stroke-width: 0.8"/>
      </g>
     </g>
     <g id="text_16">
      <!-- 35 -->
      <g transform="translate(29.23 68.824062) scale(0.12 -0.12)">
       <use xlink:href="#DejaVuSans-33"/>
       <use xlink:href="#DejaVuSans-35" x="63.623047"/>
      </g>
     </g>
    </g>
    <g id="ytick_9">
     <g id="line2d_31">
      <path d="M 51.5 29.76 
L 411.66 29.76 
" clip-path="url(#p6737004e62)" style="fill: none; stroke: #b0b0b0; stroke-width: 0.8; stroke-linecap: square"/>
     </g>
     <g id="line2d_32">
      <g>
       <use xlink:href="#ma9ac9e4812" x="51.5" y="29.76" style="stroke: #000000; stroke-width: 0.8"/>
      </g>
     </g>
     <g id="text_17">
      <!-- 40 -->
      <g transform="translate(29.23 34.319062) scale(0.12 -0.12)">
       <use xlink:href="#DejaVuSans-34"/>
       <use xlink:href="#DejaVuSans-30" x="63.623047"/>
      </g>
     </g>
    </g>
    <g id="text_18">
     <!-- Distribution(%) -->
     <g transform="translate(22.110469 224.511641) rotate(-90) scale(0.15 -0.15)">
      <defs>
       <path id="DejaVuSans-44" d="M 1259 4147 
L 1259 519 
L 2022 519 
Q 2988 519 3436 956 
Q 3884 1394 3884 2338 
Q 3884 3275 3436 3711 
Q 2988 4147 2022 4147 
L 1259 4147 
z
M 628 4666 
L 1925 4666 
Q 3281 4666 3915 4102 
Q 4550 3538 4550 2338 
Q 4550 1131 3912 565 
Q 3275 0 1925 0 
L 628 0 
L 628 4666 
z
" transform="scale(0.015625)"/>
       <path id="DejaVuSans-69" d="M 603 3500 
L 1178 3500 
L 1178 0 
L 603 0 
L 603 3500 
z
M 603 4863 
L 1178 4863 
L 1178 4134 
L 603 4134 
L 603 4863 
z
" transform="scale(0.015625)"/>
       <path id="DejaVuSans-73" d="M 2834 3397 
L 2834 2853 
Q 2591 2978 2328 3040 
Q 2066 3103 1784 3103 
Q 1356 3103 1142 2972 
Q 928 2841 928 2578 
Q 928 2378 1081 2264 
Q 1234 2150 1697 2047 
L 1894 2003 
Q 2506 1872 2764 1633 
Q 3022 1394 3022 966 
Q 3022 478 2636 193 
Q 2250 -91 1575 -91 
Q 1294 -91 989 -36 
Q 684 19 347 128 
L 347 722 
Q 666 556 975 473 
Q 1284 391 1588 391 
Q 1994 391 2212 530 
Q 2431 669 2431 922 
Q 2431 1156 2273 1281 
Q 2116 1406 1581 1522 
L 1381 1569 
Q 847 1681 609 1914 
Q 372 2147 372 2553 
Q 372 3047 722 3315 
Q 1072 3584 1716 3584 
Q 2034 3584 2315 3537 
Q 2597 3491 2834 3397 
z
" transform="scale(0.015625)"/>
       <path id="DejaVuSans-74" d="M 1172 4494 
L 1172 3500 
L 2356 3500 
L 2356 3053 
L 1172 3053 
L 1172 1153 
Q 1172 725 1289 603 
Q 1406 481 1766 481 
L 2356 481 
L 2356 0 
L 1766 0 
Q 1100 0 847 248 
Q 594 497 594 1153 
L 594 3053 
L 172 3053 
L 172 3500 
L 594 3500 
L 594 4494 
L 1172 4494 
z
" transform="scale(0.015625)"/>
       <path id="DejaVuSans-72" d="M 2631 2963 
Q 2534 3019 2420 3045 
Q 2306 3072 2169 3072 
Q 1681 3072 1420 2755 
Q 1159 2438 1159 1844 
L 1159 0 
L 581 0 
L 581 3500 
L 1159 3500 
L 1159 2956 
Q 1341 3275 1631 3429 
Q 1922 3584 2338 3584 
Q 2397 3584 2469 3576 
Q 2541 3569 2628 3553 
L 2631 2963 
z
" transform="scale(0.015625)"/>
       <path id="DejaVuSans-62" d="M 3116 1747 
Q 3116 2381 2855 2742 
Q 2594 3103 2138 3103 
Q 1681 3103 1420 2742 
Q 1159 2381 1159 1747 
Q 1159 1113 1420 752 
Q 1681 391 2138 391 
Q 2594 391 2855 752 
Q 3116 1113 3116 1747 
z
M 1159 2969 
Q 1341 3281 1617 3432 
Q 1894 3584 2278 3584 
Q 2916 3584 3314 3078 
Q 3713 2572 3713 1747 
Q 3713 922 3314 415 
Q 2916 -91 2278 -91 
Q 1894 -91 1617 61 
Q 1341 213 1159 525 
L 1159 0 
L 581 0 
L 581 4863 
L 1159 4863 
L 1159 2969 
z
" transform="scale(0.015625)"/>
       <path id="DejaVuSans-75" d="M 544 1381 
L 544 3500 
L 1119 3500 
L 1119 1403 
Q 1119 906 1312 657 
Q 1506 409 1894 409 
Q 2359 409 2629 706 
Q 2900 1003 2900 1516 
L 2900 3500 
L 3475 3500 
L 3475 0 
L 2900 0 
L 2900 538 
Q 2691 219 2414 64 
Q 2138 -91 1772 -91 
Q 1169 -91 856 284 
Q 544 659 544 1381 
z
M 1991 3584 
L 1991 3584 
z
" transform="scale(0.015625)"/>
       <path id="DejaVuSans-6f" d="M 1959 3097 
Q 1497 3097 1228 2736 
Q 959 2375 959 1747 
Q 959 1119 1226 758 
Q 1494 397 1959 397 
Q 2419 397 2687 759 
Q 2956 1122 2956 1747 
Q 2956 2369 2687 2733 
Q 2419 3097 1959 3097 
z
M 1959 3584 
Q 2709 3584 3137 3096 
Q 3566 2609 3566 1747 
Q 3566 888 3137 398 
Q 2709 -91 1959 -91 
Q 1206 -91 779 398 
Q 353 888 353 1747 
Q 353 2609 779 3096 
Q 1206 3584 1959 3584 
z
" transform="scale(0.015625)"/>
       <path id="DejaVuSans-6e" d="M 3513 2113 
L 3513 0 
L 2938 0 
L 2938 2094 
Q 2938 2591 2744 2837 
Q 2550 3084 2163 3084 
Q 1697 3084 1428 2787 
Q 1159 2491 1159 1978 
L 1159 0 
L 581 0 
L 581 3500 
L 1159 3500 
L 1159 2956 
Q 1366 3272 1645 3428 
Q 1925 3584 2291 3584 
Q 2894 3584 3203 3211 
Q 3513 2838 3513 2113 
z
" transform="scale(0.015625)"/>
       <path id="DejaVuSans-25" d="M 4653 2053 
Q 4381 2053 4226 1822 
Q 4072 1591 4072 1178 
Q 4072 772 4226 539 
Q 4381 306 4653 306 
Q 4919 306 5073 539 
Q 5228 772 5228 1178 
Q 5228 1588 5073 1820 
Q 4919 2053 4653 2053 
z
M 4653 2450 
Q 5147 2450 5437 2106 
Q 5728 1763 5728 1178 
Q 5728 594 5436 251 
Q 5144 -91 4653 -91 
Q 4153 -91 3862 251 
Q 3572 594 3572 1178 
Q 3572 1766 3864 2108 
Q 4156 2450 4653 2450 
z
M 1428 4353 
Q 1159 4353 1004 4120 
Q 850 3888 850 3481 
Q 850 3069 1003 2837 
Q 1156 2606 1428 2606 
Q 1700 2606 1854 2837 
Q 2009 3069 2009 3481 
Q 2009 3884 1853 4118 
Q 1697 4353 1428 4353 
z
M 4250 4750 
L 4750 4750 
L 1831 -91 
L 1331 -91 
L 4250 4750 
z
M 1428 4750 
Q 1922 4750 2215 4408 
Q 2509 4066 2509 3481 
Q 2509 2891 2217 2550 
Q 1925 2209 1428 2209 
Q 931 2209 642 2551 
Q 353 2894 353 3481 
Q 353 4063 643 4406 
Q 934 4750 1428 4750 
z
" transform="scale(0.015625)"/>
      </defs>
      <use xlink:href="#DejaVuSans-44"/>
      <use xlink:href="#DejaVuSans-69" x="77.001953"/>
      <use xlink:href="#DejaVuSans-73" x="104.785156"/>
      <use xlink:href="#DejaVuSans-74" x="156.884766"/>
      <use xlink:href="#DejaVuSans-72" x="196.09375"/>
      <use xlink:href="#DejaVuSans-69" x="237.207031"/>
      <use xlink:href="#DejaVuSans-62" x="264.990234"/>
      <use xlink:href="#DejaVuSans-75" x="328.466797"/>
      <use xlink:href="#DejaVuSans-74" x="391.845703"/>
      <use xlink:href="#DejaVuSans-69" x="431.054688"/>
      <use xlink:href="#DejaVuSans-6f" x="458.837891"/>
      <use xlink:href="#DejaVuSans-6e" x="520.019531"/>
      <use xlink:href="#DejaVuSans-28" x="583.398438"/>
      <use xlink:href="#DejaVuSans-25" x="622.412109"/>
      <use xlink:href="#DejaVuSans-29" x="717.431641"/>
     </g>
    </g>
   </g>
   <g id="line2d_33">
    <path d="M 89.21817 305.703895 
L 96.286907 305.44805 
L 100.326186 305.116077 
L 104.365464 304.54266 
L 107.394923 303.884958 
L 110.424382 302.970609 
L 113.453841 301.743397 
L 115.47348 300.726372 
L 117.493119 299.536476 
L 119.512759 298.166421 
L 122.542218 295.770748 
L 125.571676 292.986554 
L 128.601135 289.869149 
L 132.640414 285.354469 
L 139.709151 277.314473 
L 142.73861 274.168999 
L 145.768069 271.374176 
L 147.787708 269.745893 
L 149.807347 268.322713 
L 151.826987 267.110677 
L 153.846626 266.108551 
L 155.866265 265.308613 
L 157.885905 264.697663 
L 159.905544 264.258121 
L 162.935003 263.873841 
L 165.964462 263.748202 
L 170.00374 263.835853 
L 179.092117 264.185965 
L 184.141215 264.079301 
L 193.229592 263.696597 
L 196.25905 263.854142 
L 198.27869 264.133598 
L 200.298329 264.584386 
L 202.317968 265.225673 
L 204.337607 266.06753 
L 206.357247 267.110049 
L 208.376886 268.343311 
L 211.406345 270.506938 
L 214.435804 272.960749 
L 220.494721 278.275267 
L 225.54382 282.613656 
L 229.583098 285.796421 
L 233.622377 288.672042 
L 237.661655 291.269932 
L 242.710753 294.211528 
L 247.759851 296.880644 
L 252.80895 299.268895 
L 256.848228 300.930755 
L 260.887507 302.329171 
L 264.926785 303.443731 
L 268.966064 304.280932 
L 273.005342 304.871988 
L 278.05444 305.33644 
L 284.113358 305.620795 
L 290.172276 305.739212 
L 290.172276 305.739212 
" clip-path="url(#p6737004e62)" style="fill: none; stroke: #b40426; stroke-width: 2; stroke-linecap: square"/>
   </g>
   <g id="line2d_34">
    <path d="M 96.247642 305.767714 
L 98.314973 305.602619 
L 99.693194 305.233852 
L 100.382305 304.882019 
L 101.071415 304.352344 
L 101.760525 303.577446 
L 102.449636 302.474638 
L 103.138746 300.946241 
L 103.827857 298.881283 
L 104.516967 296.158833 
L 105.206078 292.653087 
L 105.895188 288.240253 
L 106.584298 282.807175 
L 107.273409 276.261456 
L 108.65163 259.633844 
L 110.029851 238.459358 
L 112.097182 200.838899 
L 114.164513 163.441992 
L 115.542734 143.508864 
L 116.231845 135.959268 
L 116.920955 130.259293 
L 117.610065 126.46974 
L 118.299176 124.555502 
L 118.988286 124.394149 
L 119.677397 125.791701 
L 120.366507 128.503599 
L 121.055618 132.258414 
L 122.433839 141.817111 
L 131.392274 211.802562 
L 134.837826 240.702026 
L 136.216047 250.854504 
L 137.594268 259.475158 
L 138.972489 266.349285 
L 140.35071 271.488223 
L 141.728931 275.126623 
L 143.107152 277.696231 
L 147.241814 284.005234 
L 149.309146 287.943876 
L 151.376477 291.930517 
L 152.754698 294.283418 
L 154.822029 297.265639 
L 156.88936 299.756623 
L 158.267581 301.137307 
L 159.645802 302.183077 
L 161.024023 302.796639 
L 162.402244 302.966297 
L 163.780465 302.802215 
L 166.536907 302.311549 
L 167.915127 302.355376 
L 169.293348 302.658095 
L 176.873563 305.029714 
L 178.940894 305.410408 
L 181.008226 305.564675 
L 183.075557 305.459761 
L 185.831999 305.025113 
L 188.588441 304.60908 
L 191.344882 304.474383 
L 194.101324 304.613862 
L 196.857766 305.036537 
L 200.303318 305.581554 
L 203.05976 305.757998 
L 209.261754 305.79925 
L 215.463748 305.68943 
L 218.220189 305.392022 
L 221.665742 304.911732 
L 223.733073 304.901524 
L 225.800404 305.154149 
L 229.245956 305.625603 
L 232.002398 305.769098 
L 233.380619 305.789641 
L 233.380619 305.789641 
" clip-path="url(#p6737004e62)" style="fill: none; stroke: #e26953; stroke-width: 2; stroke-linecap: square"/>
   </g>
   <g id="line2d_35">
    <path d="M 94.090286 305.797667 
L 96.732568 305.70582 
L 98.317937 305.467046 
L 99.37485 305.012902 
L 99.903306 304.538333 
L 100.431762 303.778068 
L 100.960219 302.62364 
L 101.488675 300.952153 
L 102.017132 298.617561 
L 102.545588 295.444172 
L 103.074044 291.235357 
L 103.602501 285.799597 
L 104.130957 278.979105 
L 105.18787 260.780056 
L 106.244782 236.280791 
L 107.301695 206.26114 
L 109.415521 137.711666 
L 111.00089 87.346414 
L 112.057803 62.321889 
L 112.586259 54.249872 
L 113.114715 49.483106 
L 113.643172 47.921961 
L 114.171628 49.23938 
L 114.700084 52.956343 
L 115.228541 58.50319 
L 116.285453 72.716395 
L 118.399279 104.505976 
L 119.984648 132.050143 
L 124.740755 216.060142 
L 125.797668 230.831153 
L 126.854581 241.504357 
L 127.911494 248.917188 
L 130.553775 264.330393 
L 132.667601 277.85773 
L 133.724514 282.846815 
L 134.781426 286.301548 
L 137.952165 294.253056 
L 139.009077 296.343727 
L 139.537534 296.96896 
L 140.06599 297.333523 
L 141.651359 297.953618 
L 142.708272 298.784528 
L 144.293641 300.173357 
L 145.350554 300.620131 
L 146.935923 301.016168 
L 150.106661 302.369486 
L 152.748943 302.817541 
L 153.805856 303.15524 
L 155.391225 303.94736 
L 156.448138 304.449395 
L 157.50505 304.697725 
L 161.204245 304.878984 
L 165.431896 304.841571 
L 169.659547 305.756927 
L 172.830285 305.799896 
L 176.52948 305.742903 
L 177.586392 305.589228 
L 180.757131 304.796502 
L 181.814043 304.988652 
L 183.399412 305.376504 
L 184.984782 305.500425 
L 190.797802 305.509857 
L 199.253104 305.797675 
L 199.253104 305.797675 
" clip-path="url(#p6737004e62)" style="fill: none; stroke: #f7a789; stroke-width: 2; stroke-linecap: square"/>
   </g>
   <g id="line2d_36">
    <path d="M 95.374617 305.798544 
L 97.328166 305.758802 
L 98.304941 305.647983 
L 99.281716 305.339261 
L 100.25849 304.60197 
L 101.235265 303.033403 
L 102.21204 300.04275 
L 103.188814 294.984266 
L 104.165589 287.357333 
L 105.142364 276.808024 
L 106.119138 262.982409 
L 107.095913 245.671984 
L 109.049462 203.227319 
L 111.003011 160.064794 
L 111.979786 140.938873 
L 112.956561 124.512081 
L 113.933335 112.246488 
L 114.91011 105.536853 
L 115.886885 104.38775 
L 116.863659 107.254984 
L 117.840434 112.398835 
L 118.817208 119.170207 
L 119.793983 127.796411 
L 121.747532 149.571152 
L 123.701082 171.255619 
L 126.631405 202.223835 
L 128.584955 223.329453 
L 130.538504 241.332058 
L 131.515279 248.915517 
L 132.492053 255.357596 
L 133.468828 260.703436 
L 134.445603 265.166207 
L 135.422377 268.919401 
L 136.399152 272.085337 
L 137.375926 274.778411 
L 141.283025 283.848726 
L 143.236574 288.106971 
L 145.190123 291.489889 
L 146.166898 292.704453 
L 147.143673 293.524516 
L 149.097222 294.565703 
L 151.050771 295.590467 
L 153.004321 296.890766 
L 153.981095 297.70311 
L 156.911419 300.4564 
L 157.888194 300.980497 
L 158.864968 301.262171 
L 160.818518 301.450964 
L 162.772067 301.642448 
L 164.725616 302.049934 
L 166.679165 302.706358 
L 168.632715 303.433217 
L 170.586264 303.781308 
L 172.539813 304.10903 
L 174.493362 304.482813 
L 176.446912 304.40276 
L 177.423686 304.366671 
L 179.377236 304.600958 
L 181.330785 304.889436 
L 183.284334 304.928444 
L 185.237883 304.994749 
L 188.168207 305.369959 
L 193.05208 305.408972 
L 195.982404 305.569341 
L 225.285643 305.618442 
L 229.192742 305.661908 
L 233.09984 305.71362 
L 289.752769 305.799461 
L 289.752769 305.799461 
" clip-path="url(#p6737004e62)" style="fill: none; stroke: #edd1c2; stroke-width: 2; stroke-linecap: square"/>
   </g>
   <g id="line2d_37">
    <path d="M -1 301.159619 
L 179.778963 300.109203 
L 433 302.698464 
L 433 302.698464 
" clip-path="url(#p6737004e62)" style="fill: none; stroke: #c9d8ef; stroke-width: 2; stroke-linecap: square"/>
   </g>
   <g id="line2d_38">
    <path d="M 92.856067 305.79748 
L 96.402836 305.675397 
L 97.585093 305.460854 
L 98.767349 304.967058 
L 99.949605 303.912205 
L 101.131862 301.80629 
L 102.314118 297.897764 
L 103.496374 291.205117 
L 104.678631 280.697061 
L 105.860887 265.677743 
L 107.043143 246.328031 
L 110.589912 179.605967 
L 111.772169 160.667391 
L 112.954425 144.562509 
L 114.136681 131.546067 
L 115.318938 122.40264 
L 116.501194 118.144201 
L 117.68345 119.238205 
L 118.865707 125.177194 
L 120.047963 134.721693 
L 122.412476 158.849464 
L 124.776988 182.318109 
L 127.141501 202.8921 
L 129.506014 221.272237 
L 131.870526 237.363037 
L 134.235039 251.476594 
L 136.599552 263.734403 
L 137.781808 269.10963 
L 138.964064 273.869592 
L 140.146321 277.982086 
L 141.328577 281.440619 
L 142.510834 284.245451 
L 143.69309 286.473876 
L 146.057603 290.055831 
L 148.422115 293.433059 
L 150.786628 296.366379 
L 153.151141 298.76559 
L 154.333397 299.653033 
L 155.515653 300.240387 
L 156.69791 300.516798 
L 160.244679 300.574001 
L 161.426935 301.009356 
L 164.973704 303.325587 
L 166.15596 303.765017 
L 169.702729 304.440225 
L 170.884986 304.630858 
L 172.067242 304.708161 
L 176.796267 304.499902 
L 187.436574 305.207924 
L 189.801087 305.219342 
L 192.1656 305.207638 
L 198.076882 305.729763 
L 205.17042 305.495011 
L 212.263958 305.682606 
L 219.357496 305.481415 
L 231.180059 305.668168 
L 234.726828 305.75378 
L 240.63811 305.659421 
L 246.549391 305.798496 
L 316.302516 305.771839 
L 322.213797 305.652892 
L 328.125079 305.798099 
L 328.125079 305.798099 
" clip-path="url(#p6737004e62)" style="fill: none; stroke: #9abaff; stroke-width: 2; stroke-linecap: square"/>
   </g>
   <g id="line2d_39">
    <path d="M 89.01111 305.795443 
L 93.770879 305.442413 
L 98.530647 298.608319 
L 103.290415 256.228217 
L 108.050183 166.590566 
L 112.809951 106.959374 
L 117.56972 131.239285 
L 122.329488 187.082281 
L 127.089256 233.404883 
L 131.849024 262.871419 
L 136.608792 281.200316 
L 141.368561 290.769647 
L 146.128329 296.320884 
L 150.888097 300.137756 
L 155.647865 301.5344 
L 160.407634 303.378106 
L 165.167402 304.893761 
L 169.92717 305.331734 
L 174.686938 305.194118 
L 188.966243 305.447935 
L 193.726011 305.269486 
L 198.485779 305.509786 
L 217.524852 305.740006 
L 222.28462 305.692081 
L 231.804157 305.799212 
L 433 305.8 
L 433 305.8 
" clip-path="url(#p6737004e62)" style="fill: none; stroke: #6889ee; stroke-width: 2; stroke-linecap: square"/>
   </g>
   <g id="line2d_40">
    <path d="M 89.221323 305.797016 
L 91.397688 305.729002 
L 92.848598 305.442609 
L 93.574053 305.09249 
L 94.299508 304.492986 
L 95.024963 303.519846 
L 95.750418 302.001877 
L 96.475873 299.710671 
L 97.201328 296.368099 
L 97.926783 291.683497 
L 98.652238 285.411936 
L 99.377693 277.403133 
L 100.103148 267.612999 
L 101.554058 242.895786 
L 103.004968 212.200224 
L 106.632243 129.515495 
L 107.357698 117.527518 
L 108.083153 108.479696 
L 108.808608 102.402015 
L 109.534063 99.004029 
L 110.259518 97.820927 
L 110.984973 98.398965 
L 111.710428 100.453955 
L 112.435883 103.936693 
L 113.161338 108.971255 
L 113.886794 115.697179 
L 114.612249 124.098051 
L 116.063159 144.535309 
L 117.514069 165.513087 
L 118.964979 182.94491 
L 123.317709 227.373765 
L 124.768619 240.33759 
L 126.219529 250.285848 
L 127.670439 257.864001 
L 132.023169 278.194215 
L 132.748624 280.825914 
L 133.474079 282.905909 
L 134.199534 284.508446 
L 140.003174 294.734828 
L 140.728629 295.702538 
L 141.454084 296.469287 
L 142.904994 297.540026 
L 146.532269 299.675483 
L 149.434089 301.008702 
L 150.884999 301.760799 
L 152.335909 302.246238 
L 156.688639 303.094909 
L 158.865004 303.370798 
L 164.668644 304.629178 
L 166.119554 304.670355 
L 167.570464 304.467148 
L 169.021374 304.217696 
L 170.472284 304.219717 
L 171.923194 304.534484 
L 175.550469 305.562851 
L 177.001379 305.721376 
L 179.177744 305.699677 
L 182.805019 305.613421 
L 195.137754 305.745778 
L 199.490485 305.799841 
L 213.999585 305.718531 
L 216.901405 305.636002 
L 221.254135 305.677114 
L 224.155955 305.627013 
L 233.58687 305.798123 
L 233.58687 305.798123 
" clip-path="url(#p6737004e62)" style="fill: none; stroke: #3b4cc0; stroke-width: 2; stroke-linecap: square"/>
   </g>
   <g id="line2d_41">
    <path d="M 171.553333 305.8 
L 171.553333 29.76 
" clip-path="url(#p6737004e62)" style="fill: none; stroke-dasharray: 5.55,2.4; stroke-dashoffset: 0; stroke: #000000; stroke-width: 1.5"/>
   </g>
   <g id="line2d_42">
    <path d="M 291.606667 305.8 
L 291.606667 29.76 
" clip-path="url(#p6737004e62)" style="fill: none; stroke-dasharray: 5.55,2.4; stroke-dashoffset: 0; stroke: #000000; stroke-width: 1.5"/>
   </g>
   <g id="patch_3">
    <path d="M 51.5 305.8 
L 51.5 29.76 
" style="fill: none; stroke: #000000; stroke-width: 0.8; stroke-linejoin: miter; stroke-linecap: square"/>
   </g>
   <g id="patch_4">
    <path d="M 411.66 305.8 
L 411.66 29.76 
" style="fill: none; stroke: #000000; stroke-width: 0.8; stroke-linejoin: miter; stroke-linecap: square"/>
   </g>
   <g id="patch_5">
    <path d="M 51.5 305.8 
L 411.66 305.8 
" style="fill: none; stroke: #000000; stroke-width: 0.8; stroke-linejoin: miter; stroke-linecap: square"/>
   </g>
   <g id="patch_6">
    <path d="M 51.5 29.76 
L 411.66 29.76 
" style="fill: none; stroke: #000000; stroke-width: 0.8; stroke-linejoin: miter; stroke-linecap: square"/>
   </g>
   <g id="text_19">
    <!-- Active Learning in 300K for CNT(11,11) in Water -->
    <g transform="translate(38.94875 23.76) scale(0.16 -0.16)">
     <defs>
      <path id="DejaVuSans-41" d="M 2188 4044 
L 1331 1722 
L 3047 1722 
L 2188 4044 
z
M 1831 4666 
L 2547 4666 
L 4325 0 
L 3669 0 
L 3244 1197 
L 1141 1197 
L 716 0 
L 50 0 
L 1831 4666 
z
" transform="scale(0.015625)"/>
      <path id="DejaVuSans-63" d="M 3122 3366 
L 3122 2828 
Q 2878 2963 2633 3030 
Q 2388 3097 2138 3097 
Q 1578 3097 1268 2742 
Q 959 2388 959 1747 
Q 959 1106 1268 751 
Q 1578 397 2138 397 
Q 2388 397 2633 464 
Q 2878 531 3122 666 
L 3122 134 
Q 2881 22 2623 -34 
Q 2366 -91 2075 -91 
Q 1284 -91 818 406 
Q 353 903 353 1747 
Q 353 2603 823 3093 
Q 1294 3584 2113 3584 
Q 2378 3584 2631 3529 
Q 2884 3475 3122 3366 
z
" transform="scale(0.015625)"/>
      <path id="DejaVuSans-76" d="M 191 3500 
L 800 3500 
L 1894 563 
L 2988 3500 
L 3597 3500 
L 2284 0 
L 1503 0 
L 191 3500 
z
" transform="scale(0.015625)"/>
      <path id="DejaVuSans-65" d="M 3597 1894 
L 3597 1613 
L 953 1613 
Q 991 1019 1311 708 
Q 1631 397 2203 397 
Q 2534 397 2845 478 
Q 3156 559 3463 722 
L 3463 178 
Q 3153 47 2828 -22 
Q 2503 -91 2169 -91 
Q 1331 -91 842 396 
Q 353 884 353 1716 
Q 353 2575 817 3079 
Q 1281 3584 2069 3584 
Q 2775 3584 3186 3129 
Q 3597 2675 3597 1894 
z
M 3022 2063 
Q 3016 2534 2758 2815 
Q 2500 3097 2075 3097 
Q 1594 3097 1305 2825 
Q 1016 2553 972 2059 
L 3022 2063 
z
" transform="scale(0.015625)"/>
      <path id="DejaVuSans-20" transform="scale(0.015625)"/>
      <path id="DejaVuSans-4c" d="M 628 4666 
L 1259 4666 
L 1259 531 
L 3531 531 
L 3531 0 
L 628 0 
L 628 4666 
z
" transform="scale(0.015625)"/>
      <path id="DejaVuSans-61" d="M 2194 1759 
Q 1497 1759 1228 1600 
Q 959 1441 959 1056 
Q 959 750 1161 570 
Q 1363 391 1709 391 
Q 2188 391 2477 730 
Q 2766 1069 2766 1631 
L 2766 1759 
L 2194 1759 
z
M 3341 1997 
L 3341 0 
L 2766 0 
L 2766 531 
Q 2569 213 2275 61 
Q 1981 -91 1556 -91 
Q 1019 -91 701 211 
Q 384 513 384 1019 
Q 384 1609 779 1909 
Q 1175 2209 1959 2209 
L 2766 2209 
L 2766 2266 
Q 2766 2663 2505 2880 
Q 2244 3097 1772 3097 
Q 1472 3097 1187 3025 
Q 903 2953 641 2809 
L 641 3341 
Q 956 3463 1253 3523 
Q 1550 3584 1831 3584 
Q 2591 3584 2966 3190 
Q 3341 2797 3341 1997 
z
" transform="scale(0.015625)"/>
      <path id="DejaVuSans-67" d="M 2906 1791 
Q 2906 2416 2648 2759 
Q 2391 3103 1925 3103 
Q 1463 3103 1205 2759 
Q 947 2416 947 1791 
Q 947 1169 1205 825 
Q 1463 481 1925 481 
Q 2391 481 2648 825 
Q 2906 1169 2906 1791 
z
M 3481 434 
Q 3481 -459 3084 -895 
Q 2688 -1331 1869 -1331 
Q 1566 -1331 1297 -1286 
Q 1028 -1241 775 -1147 
L 775 -588 
Q 1028 -725 1275 -790 
Q 1522 -856 1778 -856 
Q 2344 -856 2625 -561 
Q 2906 -266 2906 331 
L 2906 616 
Q 2728 306 2450 153 
Q 2172 0 1784 0 
Q 1141 0 747 490 
Q 353 981 353 1791 
Q 353 2603 747 3093 
Q 1141 3584 1784 3584 
Q 2172 3584 2450 3431 
Q 2728 3278 2906 2969 
L 2906 3500 
L 3481 3500 
L 3481 434 
z
" transform="scale(0.015625)"/>
      <path id="DejaVuSans-4b" d="M 628 4666 
L 1259 4666 
L 1259 2694 
L 3353 4666 
L 4166 4666 
L 1850 2491 
L 4331 0 
L 3500 0 
L 1259 2247 
L 1259 0 
L 628 0 
L 628 4666 
z
" transform="scale(0.015625)"/>
      <path id="DejaVuSans-66" d="M 2375 4863 
L 2375 4384 
L 1825 4384 
Q 1516 4384 1395 4259 
Q 1275 4134 1275 3809 
L 1275 3500 
L 2222 3500 
L 2222 3053 
L 1275 3053 
L 1275 0 
L 697 0 
L 697 3053 
L 147 3053 
L 147 3500 
L 697 3500 
L 697 3744 
Q 697 4328 969 4595 
Q 1241 4863 1831 4863 
L 2375 4863 
z
" transform="scale(0.015625)"/>
      <path id="DejaVuSans-43" d="M 4122 4306 
L 4122 3641 
Q 3803 3938 3442 4084 
Q 3081 4231 2675 4231 
Q 1875 4231 1450 3742 
Q 1025 3253 1025 2328 
Q 1025 1406 1450 917 
Q 1875 428 2675 428 
Q 3081 428 3442 575 
Q 3803 722 4122 1019 
L 4122 359 
Q 3791 134 3420 21 
Q 3050 -91 2638 -91 
Q 1578 -91 968 557 
Q 359 1206 359 2328 
Q 359 3453 968 4101 
Q 1578 4750 2638 4750 
Q 3056 4750 3426 4639 
Q 3797 4528 4122 4306 
z
" transform="scale(0.015625)"/>
      <path id="DejaVuSans-4e" d="M 628 4666 
L 1478 4666 
L 3547 763 
L 3547 4666 
L 4159 4666 
L 4159 0 
L 3309 0 
L 1241 3903 
L 1241 0 
L 628 0 
L 628 4666 
z
" transform="scale(0.015625)"/>
      <path id="DejaVuSans-54" d="M -19 4666 
L 3928 4666 
L 3928 4134 
L 2272 4134 
L 2272 0 
L 1638 0 
L 1638 4134 
L -19 4134 
L -19 4666 
z
" transform="scale(0.015625)"/>
      <path id="DejaVuSans-2c" d="M 750 794 
L 1409 794 
L 1409 256 
L 897 -744 
L 494 -744 
L 750 256 
L 750 794 
z
" transform="scale(0.015625)"/>
      <path id="DejaVuSans-57" d="M 213 4666 
L 850 4666 
L 1831 722 
L 2809 4666 
L 3519 4666 
L 4500 722 
L 5478 4666 
L 6119 4666 
L 4947 0 
L 4153 0 
L 3169 4050 
L 2175 0 
L 1381 0 
L 213 4666 
z
" transform="scale(0.015625)"/>
     </defs>
     <use xlink:href="#DejaVuSans-41"/>
     <use xlink:href="#DejaVuSans-63" x="66.658203"/>
     <use xlink:href="#DejaVuSans-74" x="121.638672"/>
     <use xlink:href="#DejaVuSans-69" x="160.847656"/>
     <use xlink:href="#DejaVuSans-76" x="188.630859"/>
     <use xlink:href="#DejaVuSans-65" x="247.810547"/>
     <use xlink:href="#DejaVuSans-20" x="309.333984"/>
     <use xlink:href="#DejaVuSans-4c" x="341.121094"/>
     <use xlink:href="#DejaVuSans-65" x="395.083984"/>
     <use xlink:href="#DejaVuSans-61" x="456.607422"/>
     <use xlink:href="#DejaVuSans-72" x="517.886719"/>
     <use xlink:href="#DejaVuSans-6e" x="557.25"/>
     <use xlink:href="#DejaVuSans-69" x="620.628906"/>
     <use xlink:href="#DejaVuSans-6e" x="648.412109"/>
     <use xlink:href="#DejaVuSans-67" x="711.791016"/>
     <use xlink:href="#DejaVuSans-20" x="775.267578"/>
     <use xlink:href="#DejaVuSans-69" x="807.054688"/>
     <use xlink:href="#DejaVuSans-6e" x="834.837891"/>
     <use xlink:href="#DejaVuSans-20" x="898.216797"/>
     <use xlink:href="#DejaVuSans-33" x="930.003906"/>
     <use xlink:href="#DejaVuSans-30" x="993.626953"/>
     <use xlink:href="#DejaVuSans-30" x="1057.25"/>
     <use xlink:href="#DejaVuSans-4b" x="1120.873047"/>
     <use xlink:href="#DejaVuSans-20" x="1186.449219"/>
     <use xlink:href="#DejaVuSans-66" x="1218.236328"/>
     <use xlink:href="#DejaVuSans-6f" x="1253.441406"/>
     <use xlink:href="#DejaVuSans-72" x="1314.623047"/>
     <use xlink:href="#DejaVuSans-20" x="1355.736328"/>
     <use xlink:href="#DejaVuSans-43" x="1387.523438"/>
     <use xlink:href="#DejaVuSans-4e" x="1457.347656"/>
     <use xlink:href="#DejaVuSans-54" x="1532.152344"/>
     <use xlink:href="#DejaVuSans-28" x="1593.236328"/>
     <use xlink:href="#DejaVuSans-31" x="1632.25"/>
     <use xlink:href="#DejaVuSans-31" x="1695.873047"/>
     <use xlink:href="#DejaVuSans-2c" x="1759.496094"/>
     <use xlink:href="#DejaVuSans-31" x="1791.283203"/>
     <use xlink:href="#DejaVuSans-31" x="1854.90625"/>
     <use xlink:href="#DejaVuSans-29" x="1918.529297"/>
     <use xlink:href="#DejaVuSans-20" x="1957.542969"/>
     <use xlink:href="#DejaVuSans-69" x="1989.330078"/>
     <use xlink:href="#DejaVuSans-6e" x="2017.113281"/>
     <use xlink:href="#DejaVuSans-20" x="2080.492188"/>
     <use xlink:href="#DejaVuSans-57" x="2112.279297"/>
     <use xlink:href="#DejaVuSans-61" x="2204.78125"/>
     <use xlink:href="#DejaVuSans-74" x="2266.060547"/>
     <use xlink:href="#DejaVuSans-65" x="2305.269531"/>
     <use xlink:href="#DejaVuSans-72" x="2366.792969"/>
    </g>
   </g>
   <g id="legend_1">
    <g id="patch_7">
     <path d="M 314.339687 155.185 
L 404.66 155.185 
Q 406.66 155.185 406.66 153.185 
L 406.66 36.76 
Q 406.66 34.76 404.66 34.76 
L 314.339687 34.76 
Q 312.339687 34.76 312.339687 36.76 
L 312.339687 153.185 
Q 312.339687 155.185 314.339687 155.185 
z
" style="fill: #ffffff; opacity: 0.8; stroke: #cccccc; stroke-linejoin: miter"/>
    </g>
    <g id="line2d_43">
     <path d="M 316.339687 42.858437 
L 326.339687 42.858437 
L 336.339687 42.858437 
" style="fill: none; stroke: #b40426; stroke-width: 2; stroke-linecap: square"/>
    </g>
    <g id="text_20">
     <!-- Iteration 28 -->
     <g transform="translate(344.339687 46.358437) scale(0.1 -0.1)">
      <defs>
       <path id="DejaVuSans-49" d="M 628 4666 
L 1259 4666 
L 1259 0 
L 628 0 
L 628 4666 
z
" transform="scale(0.015625)"/>
       <path id="DejaVuSans-38" d="M 2034 2216 
Q 1584 2216 1326 1975 
Q 1069 1734 1069 1313 
Q 1069 891 1326 650 
Q 1584 409 2034 409 
Q 2484 409 2743 651 
Q 3003 894 3003 1313 
Q 3003 1734 2745 1975 
Q 2488 2216 2034 2216 
z
M 1403 2484 
Q 997 2584 770 2862 
Q 544 3141 544 3541 
Q 544 4100 942 4425 
Q 1341 4750 2034 4750 
Q 2731 4750 3128 4425 
Q 3525 4100 3525 3541 
Q 3525 3141 3298 2862 
Q 3072 2584 2669 2484 
Q 3125 2378 3379 2068 
Q 3634 1759 3634 1313 
Q 3634 634 3220 271 
Q 2806 -91 2034 -91 
Q 1263 -91 848 271 
Q 434 634 434 1313 
Q 434 1759 690 2068 
Q 947 2378 1403 2484 
z
M 1172 3481 
Q 1172 3119 1398 2916 
Q 1625 2713 2034 2713 
Q 2441 2713 2670 2916 
Q 2900 3119 2900 3481 
Q 2900 3844 2670 4047 
Q 2441 4250 2034 4250 
Q 1625 4250 1398 4047 
Q 1172 3844 1172 3481 
z
" transform="scale(0.015625)"/>
      </defs>
      <use xlink:href="#DejaVuSans-49"/>
      <use xlink:href="#DejaVuSans-74" x="29.492188"/>
      <use xlink:href="#DejaVuSans-65" x="68.701172"/>
      <use xlink:href="#DejaVuSans-72" x="130.224609"/>
      <use xlink:href="#DejaVuSans-61" x="171.337891"/>
      <use xlink:href="#DejaVuSans-74" x="232.617188"/>
      <use xlink:href="#DejaVuSans-69" x="271.826172"/>
      <use xlink:href="#DejaVuSans-6f" x="299.609375"/>
      <use xlink:href="#DejaVuSans-6e" x="360.791016"/>
      <use xlink:href="#DejaVuSans-20" x="424.169922"/>
      <use xlink:href="#DejaVuSans-32" x="455.957031"/>
      <use xlink:href="#DejaVuSans-38" x="519.580078"/>
     </g>
    </g>
    <g id="line2d_44">
     <path d="M 316.339687 57.536563 
L 326.339687 57.536563 
L 336.339687 57.536563 
" style="fill: none; stroke: #e26953; stroke-width: 2; stroke-linecap: square"/>
    </g>
    <g id="text_21">
     <!-- Iteration 30 -->
     <g transform="translate(344.339687 61.036563) scale(0.1 -0.1)">
      <use xlink:href="#DejaVuSans-49"/>
      <use xlink:href="#DejaVuSans-74" x="29.492188"/>
      <use xlink:href="#DejaVuSans-65" x="68.701172"/>
      <use xlink:href="#DejaVuSans-72" x="130.224609"/>
      <use xlink:href="#DejaVuSans-61" x="171.337891"/>
      <use xlink:href="#DejaVuSans-74" x="232.617188"/>
      <use xlink:href="#DejaVuSans-69" x="271.826172"/>
      <use xlink:href="#DejaVuSans-6f" x="299.609375"/>
      <use xlink:href="#DejaVuSans-6e" x="360.791016"/>
      <use xlink:href="#DejaVuSans-20" x="424.169922"/>
      <use xlink:href="#DejaVuSans-33" x="455.957031"/>
      <use xlink:href="#DejaVuSans-30" x="519.580078"/>
     </g>
    </g>
    <g id="line2d_45">
     <path d="M 316.339687 72.214687 
L 326.339687 72.214687 
L 336.339687 72.214687 
" style="fill: none; stroke: #f7a789; stroke-width: 2; stroke-linecap: square"/>
    </g>
    <g id="text_22">
     <!-- Iteration 32 -->
     <g transform="translate(344.339687 75.714687) scale(0.1 -0.1)">
      <use xlink:href="#DejaVuSans-49"/>
      <use xlink:href="#DejaVuSans-74" x="29.492188"/>
      <use xlink:href="#DejaVuSans-65" x="68.701172"/>
      <use xlink:href="#DejaVuSans-72" x="130.224609"/>
      <use xlink:href="#DejaVuSans-61" x="171.337891"/>
      <use xlink:href="#DejaVuSans-74" x="232.617188"/>
      <use xlink:href="#DejaVuSans-69" x="271.826172"/>
      <use xlink:href="#DejaVuSans-6f" x="299.609375"/>
      <use xlink:href="#DejaVuSans-6e" x="360.791016"/>
      <use xlink:href="#DejaVuSans-20" x="424.169922"/>
      <use xlink:href="#DejaVuSans-33" x="455.957031"/>
      <use xlink:href="#DejaVuSans-32" x="519.580078"/>
     </g>
    </g>
    <g id="line2d_46">
     <path d="M 316.339687 86.892812 
L 326.339687 86.892812 
L 336.339687 86.892812 
" style="fill: none; stroke: #edd1c2; stroke-width: 2; stroke-linecap: square"/>
    </g>
    <g id="text_23">
     <!-- Iteration 34 -->
     <g transform="translate(344.339687 90.392812) scale(0.1 -0.1)">
      <use xlink:href="#DejaVuSans-49"/>
      <use xlink:href="#DejaVuSans-74" x="29.492188"/>
      <use xlink:href="#DejaVuSans-65" x="68.701172"/>
      <use xlink:href="#DejaVuSans-72" x="130.224609"/>
      <use xlink:href="#DejaVuSans-61" x="171.337891"/>
      <use xlink:href="#DejaVuSans-74" x="232.617188"/>
      <use xlink:href="#DejaVuSans-69" x="271.826172"/>
      <use xlink:href="#DejaVuSans-6f" x="299.609375"/>
      <use xlink:href="#DejaVuSans-6e" x="360.791016"/>
      <use xlink:href="#DejaVuSans-20" x="424.169922"/>
      <use xlink:href="#DejaVuSans-33" x="455.957031"/>
      <use xlink:href="#DejaVuSans-34" x="519.580078"/>
     </g>
    </g>
    <g id="line2d_47">
     <path d="M 316.339687 101.570937 
L 326.339687 101.570937 
L 336.339687 101.570937 
" style="fill: none; stroke: #c9d8ef; stroke-width: 2; stroke-linecap: square"/>
    </g>
    <g id="text_24">
     <!-- Iteration 36 -->
     <g transform="translate(344.339687 105.070937) scale(0.1 -0.1)">
      <use xlink:href="#DejaVuSans-49"/>
      <use xlink:href="#DejaVuSans-74" x="29.492188"/>
      <use xlink:href="#DejaVuSans-65" x="68.701172"/>
      <use xlink:href="#DejaVuSans-72" x="130.224609"/>
      <use xlink:href="#DejaVuSans-61" x="171.337891"/>
      <use xlink:href="#DejaVuSans-74" x="232.617188"/>
      <use xlink:href="#DejaVuSans-69" x="271.826172"/>
      <use xlink:href="#DejaVuSans-6f" x="299.609375"/>
      <use xlink:href="#DejaVuSans-6e" x="360.791016"/>
      <use xlink:href="#DejaVuSans-20" x="424.169922"/>
      <use xlink:href="#DejaVuSans-33" x="455.957031"/>
      <use xlink:href="#DejaVuSans-36" x="519.580078"/>
     </g>
    </g>
    <g id="line2d_48">
     <path d="M 316.339687 116.249062 
L 326.339687 116.249062 
L 336.339687 116.249062 
" style="fill: none; stroke: #9abaff; stroke-width: 2; stroke-linecap: square"/>
    </g>
    <g id="text_25">
     <!-- Iteration 38 -->
     <g transform="translate(344.339687 119.749062) scale(0.1 -0.1)">
      <use xlink:href="#DejaVuSans-49"/>
      <use xlink:href="#DejaVuSans-74" x="29.492188"/>
      <use xlink:href="#DejaVuSans-65" x="68.701172"/>
      <use xlink:href="#DejaVuSans-72" x="130.224609"/>
      <use xlink:href="#DejaVuSans-61" x="171.337891"/>
      <use xlink:href="#DejaVuSans-74" x="232.617188"/>
      <use xlink:href="#DejaVuSans-69" x="271.826172"/>
      <use xlink:href="#DejaVuSans-6f" x="299.609375"/>
      <use xlink:href="#DejaVuSans-6e" x="360.791016"/>
      <use xlink:href="#DejaVuSans-20" x="424.169922"/>
      <use xlink:href="#DejaVuSans-33" x="455.957031"/>
      <use xlink:href="#DejaVuSans-38" x="519.580078"/>
     </g>
    </g>
    <g id="line2d_49">
     <path d="M 316.339687 130.927187 
L 326.339687 130.927187 
L 336.339687 130.927187 
" style="fill: none; stroke: #6889ee; stroke-width: 2; stroke-linecap: square"/>
    </g>
    <g id="text_26">
     <!-- Iteration 40 -->
     <g transform="translate(344.339687 134.427187) scale(0.1 -0.1)">
      <use xlink:href="#DejaVuSans-49"/>
      <use xlink:href="#DejaVuSans-74" x="29.492188"/>
      <use xlink:href="#DejaVuSans-65" x="68.701172"/>
      <use xlink:href="#DejaVuSans-72" x="130.224609"/>
      <use xlink:href="#DejaVuSans-61" x="171.337891"/>
      <use xlink:href="#DejaVuSans-74" x="232.617188"/>
      <use xlink:href="#DejaVuSans-69" x="271.826172"/>
      <use xlink:href="#DejaVuSans-6f" x="299.609375"/>
      <use xlink:href="#DejaVuSans-6e" x="360.791016"/>
      <use xlink:href="#DejaVuSans-20" x="424.169922"/>
      <use xlink:href="#DejaVuSans-34" x="455.957031"/>
      <use xlink:href="#DejaVuSans-30" x="519.580078"/>
     </g>
    </g>
    <g id="line2d_50">
     <path d="M 316.339687 145.605312 
L 326.339687 145.605312 
L 336.339687 145.605312 
" style="fill: none; stroke: #3b4cc0; stroke-width: 2; stroke-linecap: square"/>
    </g>
    <g id="text_27">
     <!-- Iteration 42 -->
     <g transform="translate(344.339687 149.105312) scale(0.1 -0.1)">
      <use xlink:href="#DejaVuSans-49"/>
      <use xlink:href="#DejaVuSans-74" x="29.492188"/>
      <use xlink:href="#DejaVuSans-65" x="68.701172"/>
      <use xlink:href="#DejaVuSans-72" x="130.224609"/>
      <use xlink:href="#DejaVuSans-61" x="171.337891"/>
      <use xlink:href="#DejaVuSans-74" x="232.617188"/>
      <use xlink:href="#DejaVuSans-69" x="271.826172"/>
      <use xlink:href="#DejaVuSans-6f" x="299.609375"/>
      <use xlink:href="#DejaVuSans-6e" x="360.791016"/>
      <use xlink:href="#DejaVuSans-20" x="424.169922"/>
      <use xlink:href="#DejaVuSans-34" x="455.957031"/>
      <use xlink:href="#DejaVuSans-32" x="519.580078"/>
     </g>
    </g>
   </g>
  </g>
 </g>
 <defs>
  <clipPath id="p6737004e62">
   <rect x="51.5" y="29.76" width="360.16" height="276.04"/>
  </clipPath>
 </defs>
</svg>
