<?xml version="1.0" encoding="utf-8" standalone="no"?>
<!DOCTYPE svg PUBLIC "-//W3C//DTD SVG 1.1//EN"
  "http://www.w3.org/Graphics/SVG/1.1/DTD/svg11.dtd">
<svg xmlns:xlink="http://www.w3.org/1999/xlink" width="432pt" height="360pt" viewBox="0 0 432 360" xmlns="http://www.w3.org/2000/svg" version="1.1">
 <metadata>
  <rdf:RDF xmlns:dc="http://purl.org/dc/elements/1.1/" xmlns:cc="http://creativecommons.org/ns#" xmlns:rdf="http://www.w3.org/1999/02/22-rdf-syntax-ns#">
   <cc:Work>
    <dc:type rdf:resource="http://purl.org/dc/dcmitype/StillImage"/>
    <dc:date>2023-10-16T13:14:44.465718</dc:date>
    <dc:format>image/svg+xml</dc:format>
    <dc:creator>
     <cc:Agent>
      <dc:title>Matplotlib v3.7.1, https://matplotlib.org/</dc:title>
     </cc:Agent>
    </dc:creator>
   </cc:Work>
  </rdf:RDF>
 </metadata>
 <defs>
  <style type="text/css">*{stroke-linejoin: round; stroke-linecap: butt}</style>
 </defs>
 <g id="figure_1">
  <g id="patch_1">
   <path d="M 0 360 
L 432 360 
L 432 0 
L 0 0 
L 0 360 
z
" style="fill: none"/>
  </g>
  <g id="axes_1">
   <g id="patch_2">
    <path d="M 51.5 305.8 
L 411.66 305.8 
L 411.66 29.76 
L 51.5 29.76 
L 51.5 305.8 
z
" style="fill: none"/>
   </g>
   <g id="matplotlib.axis_1">
    <g id="xtick_1">
     <g id="line2d_1">
      <path d="M 51.5 305.8 
L 51.5 29.76 
" clip-path="url(#p17b7ba9d93)" style="fill: none; stroke: #b0b0b0; stroke-width: 0.8; stroke-linecap: square"/>
     </g>
     <g id="line2d_2">
      <defs>
       <path id="mecf5c87b50" d="M 0 0 
L 0 3.5 
" style="stroke: #000000; stroke-width: 0.8"/>
      </defs>
      <g>
       <use xlink:href="#mecf5c87b50" x="51.5" y="305.8" style="stroke: #000000; stroke-width: 0.8"/>
      </g>
     </g>
     <g id="text_1">
      <!-- 0.0 -->
      <g transform="translate(41.958125 321.918125) scale(0.12 -0.12)">
       <defs>
        <path id="DejaVuSans-30" d="M 2034 4250 
Q 1547 4250 1301 3770 
Q 1056 3291 1056 2328 
Q 1056 1369 1301 889 
Q 1547 409 2034 409 
Q 2525 409 2770 889 
Q 3016 1369 3016 2328 
Q 3016 3291 2770 3770 
Q 2525 4250 2034 4250 
z
M 2034 4750 
Q 2819 4750 3233 4129 
Q 3647 3509 3647 2328 
Q 3647 1150 3233 529 
Q 2819 -91 2034 -91 
Q 1250 -91 836 529 
Q 422 1150 422 2328 
Q 422 3509 836 4129 
Q 1250 4750 2034 4750 
z
" transform="scale(0.015625)"/>
        <path id="DejaVuSans-2e" d="M 684 794 
L 1344 794 
L 1344 0 
L 684 0 
L 684 794 
z
" transform="scale(0.015625)"/>
       </defs>
       <use xlink:href="#DejaVuSans-30"/>
       <use xlink:href="#DejaVuSans-2e" x="63.623047"/>
       <use xlink:href="#DejaVuSans-30" x="95.410156"/>
      </g>
     </g>
    </g>
    <g id="xtick_2">
     <g id="line2d_3">
      <path d="M 111.526667 305.8 
L 111.526667 29.76 
" clip-path="url(#p17b7ba9d93)" style="fill: none; stroke: #b0b0b0; stroke-width: 0.8; stroke-linecap: square"/>
     </g>
     <g id="line2d_4">
      <g>
       <use xlink:href="#mecf5c87b50" x="111.526667" y="305.8" style="stroke: #000000; stroke-width: 0.8"/>
      </g>
     </g>
     <g id="text_2">
      <!-- 0.1 -->
      <g transform="translate(101.984792 321.918125) scale(0.12 -0.12)">
       <defs>
        <path id="DejaVuSans-31" d="M 794 531 
L 1825 531 
L 1825 4091 
L 703 3866 
L 703 4441 
L 1819 4666 
L 2450 4666 
L 2450 531 
L 3481 531 
L 3481 0 
L 794 0 
L 794 531 
z
" transform="scale(0.015625)"/>
       </defs>
       <use xlink:href="#DejaVuSans-30"/>
       <use xlink:href="#DejaVuSans-2e" x="63.623047"/>
       <use xlink:href="#DejaVuSans-31" x="95.410156"/>
      </g>
     </g>
    </g>
    <g id="xtick_3">
     <g id="line2d_5">
      <path d="M 171.553333 305.8 
L 171.553333 29.76 
" clip-path="url(#p17b7ba9d93)" style="fill: none; stroke: #b0b0b0; stroke-width: 0.8; stroke-linecap: square"/>
     </g>
     <g id="line2d_6">
      <g>
       <use xlink:href="#mecf5c87b50" x="171.553333" y="305.8" style="stroke: #000000; stroke-width: 0.8"/>
      </g>
     </g>
     <g id="text_3">
      <!-- 0.2 -->
      <g transform="translate(162.011458 321.918125) scale(0.12 -0.12)">
       <defs>
        <path id="DejaVuSans-32" d="M 1228 531 
L 3431 531 
L 3431 0 
L 469 0 
L 469 531 
Q 828 903 1448 1529 
Q 2069 2156 2228 2338 
Q 2531 2678 2651 2914 
Q 2772 3150 2772 3378 
Q 2772 3750 2511 3984 
Q 2250 4219 1831 4219 
Q 1534 4219 1204 4116 
Q 875 4013 500 3803 
L 500 4441 
Q 881 4594 1212 4672 
Q 1544 4750 1819 4750 
Q 2544 4750 2975 4387 
Q 3406 4025 3406 3419 
Q 3406 3131 3298 2873 
Q 3191 2616 2906 2266 
Q 2828 2175 2409 1742 
Q 1991 1309 1228 531 
z
" transform="scale(0.015625)"/>
       </defs>
       <use xlink:href="#DejaVuSans-30"/>
       <use xlink:href="#DejaVuSans-2e" x="63.623047"/>
       <use xlink:href="#DejaVuSans-32" x="95.410156"/>
      </g>
     </g>
    </g>
    <g id="xtick_4">
     <g id="line2d_7">
      <path d="M 231.58 305.8 
L 231.58 29.76 
" clip-path="url(#p17b7ba9d93)" style="fill: none; stroke: #b0b0b0; stroke-width: 0.8; stroke-linecap: square"/>
     </g>
     <g id="line2d_8">
      <g>
       <use xlink:href="#mecf5c87b50" x="231.58" y="305.8" style="stroke: #000000; stroke-width: 0.8"/>
      </g>
     </g>
     <g id="text_4">
      <!-- 0.3 -->
      <g transform="translate(222.038125 321.918125) scale(0.12 -0.12)">
       <defs>
        <path id="DejaVuSans-33" d="M 2597 2516 
Q 3050 2419 3304 2112 
Q 3559 1806 3559 1356 
Q 3559 666 3084 287 
Q 2609 -91 1734 -91 
Q 1441 -91 1130 -33 
Q 819 25 488 141 
L 488 750 
Q 750 597 1062 519 
Q 1375 441 1716 441 
Q 2309 441 2620 675 
Q 2931 909 2931 1356 
Q 2931 1769 2642 2001 
Q 2353 2234 1838 2234 
L 1294 2234 
L 1294 2753 
L 1863 2753 
Q 2328 2753 2575 2939 
Q 2822 3125 2822 3475 
Q 2822 3834 2567 4026 
Q 2313 4219 1838 4219 
Q 1578 4219 1281 4162 
Q 984 4106 628 3988 
L 628 4550 
Q 988 4650 1302 4700 
Q 1616 4750 1894 4750 
Q 2613 4750 3031 4423 
Q 3450 4097 3450 3541 
Q 3450 3153 3228 2886 
Q 3006 2619 2597 2516 
z
" transform="scale(0.015625)"/>
       </defs>
       <use xlink:href="#DejaVuSans-30"/>
       <use xlink:href="#DejaVuSans-2e" x="63.623047"/>
       <use xlink:href="#DejaVuSans-33" x="95.410156"/>
      </g>
     </g>
    </g>
    <g id="xtick_5">
     <g id="line2d_9">
      <path d="M 291.606667 305.8 
L 291.606667 29.76 
" clip-path="url(#p17b7ba9d93)" style="fill: none; stroke: #b0b0b0; stroke-width: 0.8; stroke-linecap: square"/>
     </g>
     <g id="line2d_10">
      <g>
       <use xlink:href="#mecf5c87b50" x="291.606667" y="305.8" style="stroke: #000000; stroke-width: 0.8"/>
      </g>
     </g>
     <g id="text_5">
      <!-- 0.4 -->
      <g transform="translate(282.064792 321.918125) scale(0.12 -0.12)">
       <defs>
        <path id="DejaVuSans-34" d="M 2419 4116 
L 825 1625 
L 2419 1625 
L 2419 4116 
z
M 2253 4666 
L 3047 4666 
L 3047 1625 
L 3713 1625 
L 3713 1100 
L 3047 1100 
L 3047 0 
L 2419 0 
L 2419 1100 
L 313 1100 
L 313 1709 
L 2253 4666 
z
" transform="scale(0.015625)"/>
       </defs>
       <use xlink:href="#DejaVuSans-30"/>
       <use xlink:href="#DejaVuSans-2e" x="63.623047"/>
       <use xlink:href="#DejaVuSans-34" x="95.410156"/>
      </g>
     </g>
    </g>
    <g id="xtick_6">
     <g id="line2d_11">
      <path d="M 351.633333 305.8 
L 351.633333 29.76 
" clip-path="url(#p17b7ba9d93)" style="fill: none; stroke: #b0b0b0; stroke-width: 0.8; stroke-linecap: square"/>
     </g>
     <g id="line2d_12">
      <g>
       <use xlink:href="#mecf5c87b50" x="351.633333" y="305.8" style="stroke: #000000; stroke-width: 0.8"/>
      </g>
     </g>
     <g id="text_6">
      <!-- 0.5 -->
      <g transform="translate(342.091458 321.918125) scale(0.12 -0.12)">
       <defs>
        <path id="DejaVuSans-35" d="M 691 4666 
L 3169 4666 
L 3169 4134 
L 1269 4134 
L 1269 2991 
Q 1406 3038 1543 3061 
Q 1681 3084 1819 3084 
Q 2600 3084 3056 2656 
Q 3513 2228 3513 1497 
Q 3513 744 3044 326 
Q 2575 -91 1722 -91 
Q 1428 -91 1123 -41 
Q 819 9 494 109 
L 494 744 
Q 775 591 1075 516 
Q 1375 441 1709 441 
Q 2250 441 2565 725 
Q 2881 1009 2881 1497 
Q 2881 1984 2565 2268 
Q 2250 2553 1709 2553 
Q 1456 2553 1204 2497 
Q 953 2441 691 2322 
L 691 4666 
z
" transform="scale(0.015625)"/>
       </defs>
       <use xlink:href="#DejaVuSans-30"/>
       <use xlink:href="#DejaVuSans-2e" x="63.623047"/>
       <use xlink:href="#DejaVuSans-35" x="95.410156"/>
      </g>
     </g>
    </g>
    <g id="xtick_7">
     <g id="line2d_13">
      <path d="M 411.66 305.8 
L 411.66 29.76 
" clip-path="url(#p17b7ba9d93)" style="fill: none; stroke: #b0b0b0; stroke-width: 0.8; stroke-linecap: square"/>
     </g>
     <g id="line2d_14">
      <g>
       <use xlink:href="#mecf5c87b50" x="411.66" y="305.8" style="stroke: #000000; stroke-width: 0.8"/>
      </g>
     </g>
     <g id="text_7">
      <!-- 0.6 -->
      <g transform="translate(402.118125 321.918125) scale(0.12 -0.12)">
       <defs>
        <path id="DejaVuSans-36" d="M 2113 2584 
Q 1688 2584 1439 2293 
Q 1191 2003 1191 1497 
Q 1191 994 1439 701 
Q 1688 409 2113 409 
Q 2538 409 2786 701 
Q 3034 994 3034 1497 
Q 3034 2003 2786 2293 
Q 2538 2584 2113 2584 
z
M 3366 4563 
L 3366 3988 
Q 3128 4100 2886 4159 
Q 2644 4219 2406 4219 
Q 1781 4219 1451 3797 
Q 1122 3375 1075 2522 
Q 1259 2794 1537 2939 
Q 1816 3084 2150 3084 
Q 2853 3084 3261 2657 
Q 3669 2231 3669 1497 
Q 3669 778 3244 343 
Q 2819 -91 2113 -91 
Q 1303 -91 875 529 
Q 447 1150 447 2328 
Q 447 3434 972 4092 
Q 1497 4750 2381 4750 
Q 2619 4750 2861 4703 
Q 3103 4656 3366 4563 
z
" transform="scale(0.015625)"/>
       </defs>
       <use xlink:href="#DejaVuSans-30"/>
       <use xlink:href="#DejaVuSans-2e" x="63.623047"/>
       <use xlink:href="#DejaVuSans-36" x="95.410156"/>
      </g>
     </g>
    </g>
    <g id="text_8">
     <!-- $\sigma_{f}^{max} (ev/Å)$ -->
     <g transform="translate(192.28 342.36375) scale(0.15 -0.15)">
      <defs>
       <path id="DejaVuSans-Oblique-3c3" d="M 2219 3044 
Q 1744 3044 1422 2700 
Q 1081 2341 969 1747 
Q 844 1119 1044 756 
Q 1241 397 1706 397 
Q 2166 397 2503 759 
Q 2844 1122 2966 1747 
Q 3075 2319 2881 2700 
Q 2700 3044 2219 3044 
z
M 2309 3503 
L 4219 3500 
L 4106 2925 
L 3463 2925 
Q 3706 2438 3575 1747 
Q 3406 888 2884 400 
Q 2359 -91 1609 -91 
Q 856 -91 525 400 
Q 194 888 363 1747 
Q 528 2609 1050 3097 
Q 1484 3503 2309 3503 
z
" transform="scale(0.015625)"/>
       <path id="DejaVuSans-Oblique-6d" d="M 5747 2113 
L 5338 0 
L 4763 0 
L 5166 2094 
Q 5191 2228 5203 2325 
Q 5216 2422 5216 2491 
Q 5216 2772 5059 2928 
Q 4903 3084 4622 3084 
Q 4203 3084 3875 2770 
Q 3547 2456 3450 1953 
L 3066 0 
L 2491 0 
L 2900 2094 
Q 2925 2209 2937 2307 
Q 2950 2406 2950 2484 
Q 2950 2769 2794 2926 
Q 2638 3084 2363 3084 
Q 1938 3084 1609 2770 
Q 1281 2456 1184 1953 
L 800 0 
L 225 0 
L 909 3500 
L 1484 3500 
L 1375 2956 
Q 1609 3263 1923 3423 
Q 2238 3584 2597 3584 
Q 2978 3584 3223 3384 
Q 3469 3184 3519 2828 
Q 3781 3197 4126 3390 
Q 4472 3584 4856 3584 
Q 5306 3584 5551 3325 
Q 5797 3066 5797 2591 
Q 5797 2488 5784 2364 
Q 5772 2241 5747 2113 
z
" transform="scale(0.015625)"/>
       <path id="DejaVuSans-Oblique-61" d="M 3438 1997 
L 3047 0 
L 2472 0 
L 2578 531 
Q 2325 219 2001 64 
Q 1678 -91 1281 -91 
Q 834 -91 548 182 
Q 263 456 263 884 
Q 263 1497 752 1853 
Q 1241 2209 2100 2209 
L 2900 2209 
L 2931 2363 
Q 2938 2388 2941 2417 
Q 2944 2447 2944 2509 
Q 2944 2788 2717 2942 
Q 2491 3097 2081 3097 
Q 1800 3097 1504 3025 
Q 1209 2953 897 2809 
L 997 3341 
Q 1322 3463 1633 3523 
Q 1944 3584 2234 3584 
Q 2853 3584 3176 3315 
Q 3500 3047 3500 2534 
Q 3500 2431 3484 2292 
Q 3469 2153 3438 1997 
z
M 2816 1759 
L 2241 1759 
Q 1534 1759 1195 1570 
Q 856 1381 856 984 
Q 856 709 1029 553 
Q 1203 397 1509 397 
Q 1978 397 2328 733 
Q 2678 1069 2791 1631 
L 2816 1759 
z
" transform="scale(0.015625)"/>
       <path id="DejaVuSans-Oblique-78" d="M 3841 3500 
L 2234 1784 
L 3219 0 
L 2559 0 
L 1819 1388 
L 531 0 
L -166 0 
L 1556 1844 
L 641 3500 
L 1300 3500 
L 1972 2234 
L 3144 3500 
L 3841 3500 
z
" transform="scale(0.015625)"/>
       <path id="DejaVuSans-Oblique-66" d="M 3059 4863 
L 2969 4384 
L 2419 4384 
Q 2106 4384 1964 4261 
Q 1822 4138 1753 3809 
L 1691 3500 
L 2638 3500 
L 2553 3053 
L 1606 3053 
L 1013 0 
L 434 0 
L 1031 3053 
L 481 3053 
L 563 3500 
L 1113 3500 
L 1159 3744 
Q 1278 4363 1576 4613 
Q 1875 4863 2516 4863 
L 3059 4863 
z
" transform="scale(0.015625)"/>
       <path id="DejaVuSans-28" d="M 1984 4856 
Q 1566 4138 1362 3434 
Q 1159 2731 1159 2009 
Q 1159 1288 1364 580 
Q 1569 -128 1984 -844 
L 1484 -844 
Q 1016 -109 783 600 
Q 550 1309 550 2009 
Q 550 2706 781 3412 
Q 1013 4119 1484 4856 
L 1984 4856 
z
" transform="scale(0.015625)"/>
       <path id="DejaVuSans-Oblique-65" d="M 3078 2063 
Q 3088 2113 3092 2166 
Q 3097 2219 3097 2272 
Q 3097 2653 2873 2875 
Q 2650 3097 2266 3097 
Q 1838 3097 1509 2826 
Q 1181 2556 1013 2059 
L 3078 2063 
z
M 3578 1613 
L 903 1613 
Q 884 1494 878 1425 
Q 872 1356 872 1306 
Q 872 872 1139 634 
Q 1406 397 1894 397 
Q 2269 397 2603 481 
Q 2938 566 3225 728 
L 3116 159 
Q 2806 34 2476 -28 
Q 2147 -91 1806 -91 
Q 1078 -91 686 257 
Q 294 606 294 1247 
Q 294 1794 489 2264 
Q 684 2734 1063 3103 
Q 1306 3334 1642 3459 
Q 1978 3584 2356 3584 
Q 2950 3584 3301 3228 
Q 3653 2872 3653 2272 
Q 3653 2128 3634 1964 
Q 3616 1800 3578 1613 
z
" transform="scale(0.015625)"/>
       <path id="DejaVuSans-Oblique-76" d="M 459 3500 
L 1069 3500 
L 1581 525 
L 3256 3500 
L 3866 3500 
L 1875 0 
L 1100 0 
L 459 3500 
z
" transform="scale(0.015625)"/>
       <path id="DejaVuSans-2f" d="M 1625 4666 
L 2156 4666 
L 531 -594 
L 0 -594 
L 1625 4666 
z
" transform="scale(0.015625)"/>
       <path id="DejaVuSans-Oblique-c5" d="M 3188 5081 
Q 3188 5278 3048 5417 
Q 2909 5556 2713 5556 
Q 2513 5556 2377 5420 
Q 2241 5284 2241 5081 
Q 2241 4884 2377 4746 
Q 2513 4609 2713 4609 
Q 2909 4609 3048 4746 
Q 3188 4884 3188 5081 
z
M 2203 4397 
Q 2034 4513 1945 4689 
Q 1856 4866 1856 5081 
Q 1856 5438 2106 5689 
Q 2356 5941 2713 5941 
Q 3069 5941 3320 5689 
Q 3572 5438 3572 5081 
Q 3572 4834 3458 4643 
Q 3344 4453 3128 4341 
L 3938 0 
L 3278 0 
L 3084 1197 
L 984 1197 
L 325 0 
L -341 0 
L 2203 4397 
z
M 2584 4044 
L 1275 1722 
L 2988 1722 
L 2584 4044 
z
" transform="scale(0.015625)"/>
       <path id="DejaVuSans-29" d="M 513 4856 
L 1013 4856 
Q 1481 4119 1714 3412 
Q 1947 2706 1947 2009 
Q 1947 1309 1714 600 
Q 1481 -109 1013 -844 
L 513 -844 
Q 928 -128 1133 580 
Q 1338 1288 1338 2009 
Q 1338 2731 1133 3434 
Q 928 4138 513 4856 
z
" transform="scale(0.015625)"/>
      </defs>
      <use xlink:href="#DejaVuSans-Oblique-3c3" transform="translate(0 0.171875)"/>
      <use xlink:href="#DejaVuSans-Oblique-6d" transform="translate(67.851615 39.5125) scale(0.7)"/>
      <use xlink:href="#DejaVuSans-Oblique-61" transform="translate(136.040091 39.5125) scale(0.7)"/>
      <use xlink:href="#DejaVuSans-Oblique-78" transform="translate(178.935599 39.5125) scale(0.7)"/>
      <use xlink:href="#DejaVuSans-Oblique-66" transform="translate(63.378906 -27.171875) scale(0.7)"/>
      <use xlink:href="#DejaVuSans-28" transform="translate(223.095755 0.171875)"/>
      <use xlink:href="#DejaVuSans-Oblique-65" transform="translate(262.109427 0.171875)"/>
      <use xlink:href="#DejaVuSans-Oblique-76" transform="translate(323.632865 0.171875)"/>
      <use xlink:href="#DejaVuSans-2f" transform="translate(382.812552 0.171875)"/>
      <use xlink:href="#DejaVuSans-Oblique-c5" transform="translate(416.503958 0.171875)"/>
      <use xlink:href="#DejaVuSans-29" transform="translate(484.912161 0.171875)"/>
     </g>
    </g>
   </g>
   <g id="matplotlib.axis_2">
    <g id="ytick_1">
     <g id="line2d_15">
      <path d="M 51.5 305.8 
L 411.66 305.8 
" clip-path="url(#p17b7ba9d93)" style="fill: none; stroke: #b0b0b0; stroke-width: 0.8; stroke-linecap: square"/>
     </g>
     <g id="line2d_16">
      <defs>
       <path id="m10a947fa95" d="M 0 0 
L -3.5 0 
" style="stroke: #000000; stroke-width: 0.8"/>
      </defs>
      <g>
       <use xlink:href="#m10a947fa95" x="51.5" y="305.8" style="stroke: #000000; stroke-width: 0.8"/>
      </g>
     </g>
     <g id="text_9">
      <!-- 0 -->
      <g transform="translate(36.865 310.359062) scale(0.12 -0.12)">
       <use xlink:href="#DejaVuSans-30"/>
      </g>
     </g>
    </g>
    <g id="ytick_2">
     <g id="line2d_17">
      <path d="M 51.5 271.295 
L 411.66 271.295 
" clip-path="url(#p17b7ba9d93)" style="fill: none; stroke: #b0b0b0; stroke-width: 0.8; stroke-linecap: square"/>
     </g>
     <g id="line2d_18">
      <g>
       <use xlink:href="#m10a947fa95" x="51.5" y="271.295" style="stroke: #000000; stroke-width: 0.8"/>
      </g>
     </g>
     <g id="text_10">
      <!-- 5 -->
      <g transform="translate(36.865 275.854062) scale(0.12 -0.12)">
       <use xlink:href="#DejaVuSans-35"/>
      </g>
     </g>
    </g>
    <g id="ytick_3">
     <g id="line2d_19">
      <path d="M 51.5 236.79 
L 411.66 236.79 
" clip-path="url(#p17b7ba9d93)" style="fill: none; stroke: #b0b0b0; stroke-width: 0.8; stroke-linecap: square"/>
     </g>
     <g id="line2d_20">
      <g>
       <use xlink:href="#m10a947fa95" x="51.5" y="236.79" style="stroke: #000000; stroke-width: 0.8"/>
      </g>
     </g>
     <g id="text_11">
      <!-- 10 -->
      <g transform="translate(29.23 241.349063) scale(0.12 -0.12)">
       <use xlink:href="#DejaVuSans-31"/>
       <use xlink:href="#DejaVuSans-30" x="63.623047"/>
      </g>
     </g>
    </g>
    <g id="ytick_4">
     <g id="line2d_21">
      <path d="M 51.5 202.285 
L 411.66 202.285 
" clip-path="url(#p17b7ba9d93)" style="fill: none; stroke: #b0b0b0; stroke-width: 0.8; stroke-linecap: square"/>
     </g>
     <g id="line2d_22">
      <g>
       <use xlink:href="#m10a947fa95" x="51.5" y="202.285" style="stroke: #000000; stroke-width: 0.8"/>
      </g>
     </g>
     <g id="text_12">
      <!-- 15 -->
      <g transform="translate(29.23 206.844062) scale(0.12 -0.12)">
       <use xlink:href="#DejaVuSans-31"/>
       <use xlink:href="#DejaVuSans-35" x="63.623047"/>
      </g>
     </g>
    </g>
    <g id="ytick_5">
     <g id="line2d_23">
      <path d="M 51.5 167.78 
L 411.66 167.78 
" clip-path="url(#p17b7ba9d93)" style="fill: none; stroke: #b0b0b0; stroke-width: 0.8; stroke-linecap: square"/>
     </g>
     <g id="line2d_24">
      <g>
       <use xlink:href="#m10a947fa95" x="51.5" y="167.78" style="stroke: #000000; stroke-width: 0.8"/>
      </g>
     </g>
     <g id="text_13">
      <!-- 20 -->
      <g transform="translate(29.23 172.339062) scale(0.12 -0.12)">
       <use xlink:href="#DejaVuSans-32"/>
       <use xlink:href="#DejaVuSans-30" x="63.623047"/>
      </g>
     </g>
    </g>
    <g id="ytick_6">
     <g id="line2d_25">
      <path d="M 51.5 133.275 
L 411.66 133.275 
" clip-path="url(#p17b7ba9d93)" style="fill: none; stroke: #b0b0b0; stroke-width: 0.8; stroke-linecap: square"/>
     </g>
     <g id="line2d_26">
      <g>
       <use xlink:href="#m10a947fa95" x="51.5" y="133.275" style="stroke: #000000; stroke-width: 0.8"/>
      </g>
     </g>
     <g id="text_14">
      <!-- 25 -->
      <g transform="translate(29.23 137.834062) scale(0.12 -0.12)">
       <use xlink:href="#DejaVuSans-32"/>
       <use xlink:href="#DejaVuSans-35" x="63.623047"/>
      </g>
     </g>
    </g>
    <g id="ytick_7">
     <g id="line2d_27">
      <path d="M 51.5 98.77 
L 411.66 98.77 
" clip-path="url(#p17b7ba9d93)" style="fill: none; stroke: #b0b0b0; stroke-width: 0.8; stroke-linecap: square"/>
     </g>
     <g id="line2d_28">
      <g>
       <use xlink:href="#m10a947fa95" x="51.5" y="98.77" style="stroke: #000000; stroke-width: 0.8"/>
      </g>
     </g>
     <g id="text_15">
      <!-- 30 -->
      <g transform="translate(29.23 103.329062) scale(0.12 -0.12)">
       <use xlink:href="#DejaVuSans-33"/>
       <use xlink:href="#DejaVuSans-30" x="63.623047"/>
      </g>
     </g>
    </g>
    <g id="ytick_8">
     <g id="line2d_29">
      <path d="M 51.5 64.265 
L 411.66 64.265 
" clip-path="url(#p17b7ba9d93)" style="fill: none; stroke: #b0b0b0; stroke-width: 0.8; stroke-linecap: square"/>
     </g>
     <g id="line2d_30">
      <g>
       <use xlink:href="#m10a947fa95" x="51.5" y="64.265" style="stroke: #000000; stroke-width: 0.8"/>
      </g>
     </g>
     <g id="text_16">
      <!-- 35 -->
      <g transform="translate(29.23 68.824062) scale(0.12 -0.12)">
       <use xlink:href="#DejaVuSans-33"/>
       <use xlink:href="#DejaVuSans-35" x="63.623047"/>
      </g>
     </g>
    </g>
    <g id="ytick_9">
     <g id="line2d_31">
      <path d="M 51.5 29.76 
L 411.66 29.76 
" clip-path="url(#p17b7ba9d93)" style="fill: none; stroke: #b0b0b0; stroke-width: 0.8; stroke-linecap: square"/>
     </g>
     <g id="line2d_32">
      <g>
       <use xlink:href="#m10a947fa95" x="51.5" y="29.76" style="stroke: #000000; stroke-width: 0.8"/>
      </g>
     </g>
     <g id="text_17">
      <!-- 40 -->
      <g transform="translate(29.23 34.319062) scale(0.12 -0.12)">
       <use xlink:href="#DejaVuSans-34"/>
       <use xlink:href="#DejaVuSans-30" x="63.623047"/>
      </g>
     </g>
    </g>
    <g id="text_18">
     <!-- Distribution(%) -->
     <g transform="translate(22.110469 224.511641) rotate(-90) scale(0.15 -0.15)">
      <defs>
       <path id="DejaVuSans-44" d="M 1259 4147 
L 1259 519 
L 2022 519 
Q 2988 519 3436 956 
Q 3884 1394 3884 2338 
Q 3884 3275 3436 3711 
Q 2988 4147 2022 4147 
L 1259 4147 
z
M 628 4666 
L 1925 4666 
Q 3281 4666 3915 4102 
Q 4550 3538 4550 2338 
Q 4550 1131 3912 565 
Q 3275 0 1925 0 
L 628 0 
L 628 4666 
z
" transform="scale(0.015625)"/>
       <path id="DejaVuSans-69" d="M 603 3500 
L 1178 3500 
L 1178 0 
L 603 0 
L 603 3500 
z
M 603 4863 
L 1178 4863 
L 1178 4134 
L 603 4134 
L 603 4863 
z
" transform="scale(0.015625)"/>
       <path id="DejaVuSans-73" d="M 2834 3397 
L 2834 2853 
Q 2591 2978 2328 3040 
Q 2066 3103 1784 3103 
Q 1356 3103 1142 2972 
Q 928 2841 928 2578 
Q 928 2378 1081 2264 
Q 1234 2150 1697 2047 
L 1894 2003 
Q 2506 1872 2764 1633 
Q 3022 1394 3022 966 
Q 3022 478 2636 193 
Q 2250 -91 1575 -91 
Q 1294 -91 989 -36 
Q 684 19 347 128 
L 347 722 
Q 666 556 975 473 
Q 1284 391 1588 391 
Q 1994 391 2212 530 
Q 2431 669 2431 922 
Q 2431 1156 2273 1281 
Q 2116 1406 1581 1522 
L 1381 1569 
Q 847 1681 609 1914 
Q 372 2147 372 2553 
Q 372 3047 722 3315 
Q 1072 3584 1716 3584 
Q 2034 3584 2315 3537 
Q 2597 3491 2834 3397 
z
" transform="scale(0.015625)"/>
       <path id="DejaVuSans-74" d="M 1172 4494 
L 1172 3500 
L 2356 3500 
L 2356 3053 
L 1172 3053 
L 1172 1153 
Q 1172 725 1289 603 
Q 1406 481 1766 481 
L 2356 481 
L 2356 0 
L 1766 0 
Q 1100 0 847 248 
Q 594 497 594 1153 
L 594 3053 
L 172 3053 
L 172 3500 
L 594 3500 
L 594 4494 
L 1172 4494 
z
" transform="scale(0.015625)"/>
       <path id="DejaVuSans-72" d="M 2631 2963 
Q 2534 3019 2420 3045 
Q 2306 3072 2169 3072 
Q 1681 3072 1420 2755 
Q 1159 2438 1159 1844 
L 1159 0 
L 581 0 
L 581 3500 
L 1159 3500 
L 1159 2956 
Q 1341 3275 1631 3429 
Q 1922 3584 2338 3584 
Q 2397 3584 2469 3576 
Q 2541 3569 2628 3553 
L 2631 2963 
z
" transform="scale(0.015625)"/>
       <path id="DejaVuSans-62" d="M 3116 1747 
Q 3116 2381 2855 2742 
Q 2594 3103 2138 3103 
Q 1681 3103 1420 2742 
Q 1159 2381 1159 1747 
Q 1159 1113 1420 752 
Q 1681 391 2138 391 
Q 2594 391 2855 752 
Q 3116 1113 3116 1747 
z
M 1159 2969 
Q 1341 3281 1617 3432 
Q 1894 3584 2278 3584 
Q 2916 3584 3314 3078 
Q 3713 2572 3713 1747 
Q 3713 922 3314 415 
Q 2916 -91 2278 -91 
Q 1894 -91 1617 61 
Q 1341 213 1159 525 
L 1159 0 
L 581 0 
L 581 4863 
L 1159 4863 
L 1159 2969 
z
" transform="scale(0.015625)"/>
       <path id="DejaVuSans-75" d="M 544 1381 
L 544 3500 
L 1119 3500 
L 1119 1403 
Q 1119 906 1312 657 
Q 1506 409 1894 409 
Q 2359 409 2629 706 
Q 2900 1003 2900 1516 
L 2900 3500 
L 3475 3500 
L 3475 0 
L 2900 0 
L 2900 538 
Q 2691 219 2414 64 
Q 2138 -91 1772 -91 
Q 1169 -91 856 284 
Q 544 659 544 1381 
z
M 1991 3584 
L 1991 3584 
z
" transform="scale(0.015625)"/>
       <path id="DejaVuSans-6f" d="M 1959 3097 
Q 1497 3097 1228 2736 
Q 959 2375 959 1747 
Q 959 1119 1226 758 
Q 1494 397 1959 397 
Q 2419 397 2687 759 
Q 2956 1122 2956 1747 
Q 2956 2369 2687 2733 
Q 2419 3097 1959 3097 
z
M 1959 3584 
Q 2709 3584 3137 3096 
Q 3566 2609 3566 1747 
Q 3566 888 3137 398 
Q 2709 -91 1959 -91 
Q 1206 -91 779 398 
Q 353 888 353 1747 
Q 353 2609 779 3096 
Q 1206 3584 1959 3584 
z
" transform="scale(0.015625)"/>
       <path id="DejaVuSans-6e" d="M 3513 2113 
L 3513 0 
L 2938 0 
L 2938 2094 
Q 2938 2591 2744 2837 
Q 2550 3084 2163 3084 
Q 1697 3084 1428 2787 
Q 1159 2491 1159 1978 
L 1159 0 
L 581 0 
L 581 3500 
L 1159 3500 
L 1159 2956 
Q 1366 3272 1645 3428 
Q 1925 3584 2291 3584 
Q 2894 3584 3203 3211 
Q 3513 2838 3513 2113 
z
" transform="scale(0.015625)"/>
       <path id="DejaVuSans-25" d="M 4653 2053 
Q 4381 2053 4226 1822 
Q 4072 1591 4072 1178 
Q 4072 772 4226 539 
Q 4381 306 4653 306 
Q 4919 306 5073 539 
Q 5228 772 5228 1178 
Q 5228 1588 5073 1820 
Q 4919 2053 4653 2053 
z
M 4653 2450 
Q 5147 2450 5437 2106 
Q 5728 1763 5728 1178 
Q 5728 594 5436 251 
Q 5144 -91 4653 -91 
Q 4153 -91 3862 251 
Q 3572 594 3572 1178 
Q 3572 1766 3864 2108 
Q 4156 2450 4653 2450 
z
M 1428 4353 
Q 1159 4353 1004 4120 
Q 850 3888 850 3481 
Q 850 3069 1003 2837 
Q 1156 2606 1428 2606 
Q 1700 2606 1854 2837 
Q 2009 3069 2009 3481 
Q 2009 3884 1853 4118 
Q 1697 4353 1428 4353 
z
M 4250 4750 
L 4750 4750 
L 1831 -91 
L 1331 -91 
L 4250 4750 
z
M 1428 4750 
Q 1922 4750 2215 4408 
Q 2509 4066 2509 3481 
Q 2509 2891 2217 2550 
Q 1925 2209 1428 2209 
Q 931 2209 642 2551 
Q 353 2894 353 3481 
Q 353 4063 643 4406 
Q 934 4750 1428 4750 
z
" transform="scale(0.015625)"/>
      </defs>
      <use xlink:href="#DejaVuSans-44"/>
      <use xlink:href="#DejaVuSans-69" x="77.001953"/>
      <use xlink:href="#DejaVuSans-73" x="104.785156"/>
      <use xlink:href="#DejaVuSans-74" x="156.884766"/>
      <use xlink:href="#DejaVuSans-72" x="196.09375"/>
      <use xlink:href="#DejaVuSans-69" x="237.207031"/>
      <use xlink:href="#DejaVuSans-62" x="264.990234"/>
      <use xlink:href="#DejaVuSans-75" x="328.466797"/>
      <use xlink:href="#DejaVuSans-74" x="391.845703"/>
      <use xlink:href="#DejaVuSans-69" x="431.054688"/>
      <use xlink:href="#DejaVuSans-6f" x="458.837891"/>
      <use xlink:href="#DejaVuSans-6e" x="520.019531"/>
      <use xlink:href="#DejaVuSans-28" x="583.398438"/>
      <use xlink:href="#DejaVuSans-25" x="622.412109"/>
      <use xlink:href="#DejaVuSans-29" x="717.431641"/>
     </g>
    </g>
   </g>
   <g id="line2d_33">
    <path d="M -1 303.247898 
L 39.275414 301.982958 
L 111.103129 299.675198 
L 139.834215 298.998186 
L 168.565301 298.580898 
L 190.113615 298.460263 
L 218.844701 298.550582 
L 247.575787 298.884051 
L 290.672416 299.661981 
L 348.134588 300.724325 
L 384.048446 301.167334 
L 419.962303 301.374738 
L 433 301.396639 
L 433 301.396639 
" clip-path="url(#p17b7ba9d93)" style="fill: none; stroke: #b40426; stroke-width: 2; stroke-linecap: square"/>
   </g>
   <g id="line2d_34">
    <path d="M 92.264611 305.783564 
L 94.6416 305.68142 
L 96.226259 305.430421 
L 97.018589 305.17995 
L 97.810919 304.792974 
L 98.603248 304.214934 
L 99.395578 303.379199 
L 100.187907 302.208217 
L 100.980237 300.615995 
L 101.772567 298.511665 
L 102.564896 295.803603 
L 103.357226 292.403441 
L 104.149555 288.229517 
L 104.941885 283.209781 
L 105.734215 277.284818 
L 107.318874 262.572026 
L 108.903533 244.082375 
L 110.488192 222.472504 
L 113.657511 176.741123 
L 115.24217 157.435686 
L 116.0345 149.697195 
L 116.826829 143.507402 
L 117.619159 138.978188 
L 118.411488 136.13794 
L 119.203818 134.934205 
L 119.996148 135.247224 
L 120.788477 136.913361 
L 121.580807 139.754045 
L 122.373136 143.603047 
L 123.165466 148.32428 
L 124.750125 159.99181 
L 126.334785 174.041404 
L 130.296433 211.326437 
L 131.881092 223.113067 
L 133.465751 232.253984 
L 135.05041 239.646653 
L 137.427399 250.341998 
L 139.804388 262.620355 
L 142.181377 275.172569 
L 143.766036 282.318697 
L 144.558366 285.304139 
L 145.350695 287.853014 
L 146.143025 289.956583 
L 146.935354 291.623006 
L 147.727684 292.876278 
L 148.520014 293.75581 
L 149.312343 294.315431 
L 150.104673 294.620672 
L 151.689332 294.758692 
L 154.066321 294.764557 
L 155.65098 295.10804 
L 157.235639 295.807435 
L 158.820299 296.785244 
L 161.197287 298.595723 
L 165.951265 302.568563 
L 167.535924 303.496758 
L 169.120584 304.068031 
L 170.705243 304.358797 
L 173.082232 304.528908 
L 178.628539 304.775199 
L 182.590187 305.06751 
L 185.759505 304.918864 
L 188.136494 304.893893 
L 190.513483 305.150863 
L 194.475131 305.651905 
L 197.64445 305.780511 
L 208.737064 305.8 
L 230.922293 305.721186 
L 234.091612 305.432139 
L 238.05326 304.925474 
L 239.637919 304.910768 
L 242.014908 305.159591 
L 245.976556 305.655543 
L 249.145874 305.7812 
L 249.938204 305.789963 
L 249.938204 305.789963 
" clip-path="url(#p17b7ba9d93)" style="fill: none; stroke: #e26953; stroke-width: 2; stroke-linecap: square"/>
   </g>
   <g id="line2d_35">
    <path d="M 94.310706 305.796987 
L 95.967892 305.749059 
L 96.796485 305.638318 
L 97.625078 305.352799 
L 98.453671 304.698976 
L 99.282264 303.357914 
L 100.110857 300.891638 
L 100.93945 296.801344 
L 101.768043 290.579009 
L 102.596636 281.690635 
L 103.425228 269.562304 
L 104.253821 253.747065 
L 105.082414 234.295106 
L 106.7396 188.206206 
L 108.396786 141.518364 
L 109.225379 121.129905 
L 110.053972 104.074631 
L 110.882565 90.540558 
L 111.711158 80.203707 
L 112.539751 73.201169 
L 113.368344 70.389177 
L 114.196937 72.34413 
L 115.02553 78.537952 
L 115.854123 87.813782 
L 116.682715 99.285267 
L 118.339901 126.738248 
L 120.82568 169.283556 
L 122.482866 192.658345 
L 124.140052 210.86285 
L 128.283017 249.651934 
L 129.11161 255.236402 
L 133.254574 278.280687 
L 134.083167 281.593151 
L 134.91176 283.946162 
L 136.568946 287.591104 
L 139.054725 293.790131 
L 139.883318 295.199647 
L 142.369097 298.63651 
L 143.197689 299.621537 
L 144.026282 300.402623 
L 144.854875 300.938829 
L 145.683468 301.22201 
L 147.340654 301.513067 
L 148.169247 301.895739 
L 150.655026 303.77379 
L 151.483619 303.992187 
L 153.969398 303.72348 
L 154.797991 303.860574 
L 158.112362 305.044704 
L 159.769548 305.081397 
L 161.426734 305.018999 
L 163.912513 305.083023 
L 166.398292 304.779838 
L 168.055478 305.131033 
L 169.712664 305.501752 
L 171.369849 305.691326 
L 173.027035 305.695824 
L 178.827186 305.387978 
L 183.798743 305.470399 
L 185.455929 305.45261 
L 189.598894 305.791664 
L 203.684974 305.792191 
L 210.313717 305.731639 
L 213.628089 305.799517 
L 251.743364 305.736386 
L 255.057736 305.622828 
L 259.200701 305.797778 
L 259.200701 305.797778 
" clip-path="url(#p17b7ba9d93)" style="fill: none; stroke: #f7a789; stroke-width: 2; stroke-linecap: square"/>
   </g>
   <g id="line2d_36">
    <path d="M 94.070818 305.798831 
L 96.553708 305.726429 
L 97.795153 305.460134 
L 99.036598 304.607816 
L 100.278043 302.459677 
L 101.519488 297.988795 
L 102.760933 289.944464 
L 104.002378 277.204185 
L 105.243823 259.33386 
L 106.485268 236.478624 
L 110.209603 156.469169 
L 111.451047 135.788092 
L 112.692492 119.825426 
L 113.933937 109.632094 
L 115.175382 105.591042 
L 116.416827 107.426966 
L 117.658272 114.953012 
L 118.899717 126.995151 
L 121.382607 155.971143 
L 125.106942 201.905676 
L 126.348387 213.976091 
L 128.831277 235.003609 
L 130.072722 244.303175 
L 131.314167 252.128176 
L 132.555612 258.710045 
L 133.797057 264.32619 
L 135.038502 268.81846 
L 137.521392 275.975153 
L 138.762836 279.320759 
L 140.004281 282.316353 
L 141.245726 284.997784 
L 142.487171 287.324037 
L 143.728616 289.359651 
L 144.970061 291.14021 
L 146.211506 292.526244 
L 147.452951 293.718528 
L 149.935841 296.453271 
L 151.177286 297.47303 
L 154.901621 299.721125 
L 156.143066 300.17363 
L 158.625956 300.89442 
L 162.350291 302.154743 
L 164.83318 303.236416 
L 167.31607 303.74045 
L 171.040405 304.281054 
L 173.523295 304.212507 
L 176.006185 304.528889 
L 179.73052 305.056264 
L 184.6963 305.35637 
L 189.66208 305.523588 
L 192.144969 305.61687 
L 197.110749 305.509103 
L 200.835084 305.639515 
L 204.559419 305.588514 
L 213.249534 305.741751 
L 252.975772 305.747378 
L 255.458662 305.708492 
L 261.665887 305.79997 
L 341.118364 305.799446 
L 341.118364 305.799446 
" clip-path="url(#p17b7ba9d93)" style="fill: none; stroke: #edd1c2; stroke-width: 2; stroke-linecap: square"/>
   </g>
   <g id="line2d_37">
    <path d="M 93.00377 305.798723 
L 95.841139 305.746771 
L 97.259823 305.573648 
L 98.678507 305.031286 
L 100.097191 303.652734 
L 101.515875 300.740298 
L 102.93456 295.496716 
L 104.353244 287.25729 
L 105.771928 275.763797 
L 107.190612 261.456794 
L 111.446665 212.422799 
L 114.284034 180.537424 
L 115.702718 168.7472 
L 117.121402 161.634434 
L 118.540086 158.903116 
L 119.958771 159.84929 
L 121.377455 163.566435 
L 124.214823 174.131437 
L 125.633507 179.821048 
L 128.470876 193.297432 
L 132.726929 213.027978 
L 136.982981 239.769912 
L 138.401666 247.279191 
L 139.82035 253.508284 
L 146.913771 279.156325 
L 148.332455 283.240181 
L 149.751139 286.381578 
L 151.169824 288.825932 
L 152.588508 290.769197 
L 154.007192 292.391853 
L 155.425876 293.831662 
L 159.681929 297.694724 
L 161.100613 299.25096 
L 162.519298 300.634149 
L 163.937982 301.526457 
L 165.356666 301.940193 
L 166.77535 302.165873 
L 168.194034 302.519587 
L 171.031403 303.388333 
L 173.868771 303.905479 
L 176.70614 304.490754 
L 180.962193 304.898157 
L 185.218245 304.906881 
L 190.892982 305.53924 
L 200.823772 305.49932 
L 220.685351 305.613075 
L 226.360088 305.69497 
L 234.872194 305.799953 
L 243.384299 305.703143 
L 247.640352 305.713737 
L 253.315089 305.792991 
L 263.245878 305.795747 
L 308.643774 305.8 
L 375.321933 305.799139 
L 375.321933 305.799139 
" clip-path="url(#p17b7ba9d93)" style="fill: none; stroke: #c9d8ef; stroke-width: 2; stroke-linecap: square"/>
   </g>
   <g id="line2d_38">
    <path d="M 92.083897 305.796396 
L 95.160259 305.682664 
L 96.185713 305.504211 
L 97.211167 305.129297 
L 98.236621 304.420472 
L 99.262075 303.201145 
L 100.287529 301.264638 
L 101.312983 298.372321 
L 102.338437 294.228126 
L 103.363891 288.442611 
L 104.389345 280.536928 
L 105.414799 270.048248 
L 106.440253 256.7434 
L 107.465707 240.838786 
L 111.567522 169.608481 
L 112.592976 155.188143 
L 113.61843 143.692459 
L 114.643884 135.471847 
L 115.669338 130.622778 
L 116.694792 129.04311 
L 117.720246 130.468063 
L 118.7457 134.463148 
L 119.771154 140.421465 
L 121.822062 155.374643 
L 125.923878 186.991462 
L 127.974786 205.50863 
L 130.025693 224.191905 
L 131.051147 232.271364 
L 132.076601 239.329299 
L 134.127509 251.375147 
L 136.178417 261.864639 
L 137.203871 266.483329 
L 138.229325 270.525461 
L 139.254779 273.923454 
L 140.280233 276.724934 
L 142.331141 281.155793 
L 145.407503 286.759347 
L 146.432957 288.425882 
L 147.45841 289.826923 
L 148.483864 290.881004 
L 151.560226 293.29541 
L 153.611134 295.730616 
L 154.636588 296.934575 
L 155.662042 297.912122 
L 156.687496 298.64007 
L 158.738404 299.653353 
L 162.84022 301.355981 
L 166.942035 302.828919 
L 170.018397 304.022727 
L 172.069305 304.513526 
L 174.120213 304.807934 
L 176.171121 304.936029 
L 194.629292 305.243029 
L 197.705654 305.618364 
L 199.756562 305.647081 
L 204.883831 305.362223 
L 210.011101 305.623126 
L 218.214733 305.503533 
L 221.291095 305.649874 
L 236.672904 305.691832 
L 240.774719 305.794707 
L 273.589246 305.8 
L 283.843785 305.725929 
L 288.971055 305.490108 
L 296.149233 305.79733 
L 296.149233 305.79733 
" clip-path="url(#p17b7ba9d93)" style="fill: none; stroke: #9abaff; stroke-width: 2; stroke-linecap: square"/>
   </g>
   <g id="line2d_39">
    <path d="M 90.997365 305.796992 
L 93.736309 305.682712 
L 94.64929 305.507358 
L 95.562271 305.147847 
L 96.475252 304.459276 
L 97.388234 303.192 
L 98.301215 300.960491 
L 99.214196 297.284095 
L 100.127178 291.688273 
L 101.040159 283.75688 
L 101.95314 273.090622 
L 102.866122 259.3207 
L 103.779103 242.33434 
L 105.605066 201.412949 
L 107.431028 161.688043 
L 108.344009 145.772012 
L 109.256991 132.478384 
L 111.082953 110.496729 
L 111.995935 102.139933 
L 112.908916 97.360283 
L 113.821897 97.355019 
L 114.734879 102.189694 
L 115.64786 110.967113 
L 117.473823 135.254403 
L 119.299785 160.648965 
L 121.125748 182.351347 
L 122.95171 201.534347 
L 123.864692 210.174137 
L 124.777673 217.681007 
L 125.690654 223.947104 
L 128.429598 240.454934 
L 132.081523 266.863464 
L 132.994505 271.436199 
L 134.820467 278.063872 
L 136.64643 284.863833 
L 137.559411 288.487846 
L 138.472393 291.628554 
L 139.385374 293.807183 
L 140.298355 294.871812 
L 141.211337 295.058088 
L 142.124318 294.853961 
L 143.037299 294.765123 
L 143.95028 295.105838 
L 144.863262 295.923174 
L 147.602206 299.362482 
L 148.515187 300.124974 
L 149.428168 300.573161 
L 151.254131 301.181048 
L 153.080094 302.220538 
L 153.993075 302.732481 
L 154.906056 303.053101 
L 156.732019 303.195192 
L 157.645 303.276214 
L 159.470963 303.759808 
L 161.296925 304.273405 
L 163.122888 304.517499 
L 167.687794 304.679581 
L 174.078664 305.63522 
L 175.904626 305.569009 
L 179.556551 305.329464 
L 184.121458 305.14695 
L 186.860402 305.326444 
L 190.512327 305.244036 
L 195.077234 305.603432 
L 204.207047 305.686006 
L 207.858972 305.631588 
L 213.33686 305.734025 
L 217.901766 305.79978 
L 227.944561 305.702944 
L 230.683505 305.643988 
L 236.161393 305.7794 
L 242.552262 305.711614 
L 246.204187 305.79783 
L 263.550832 305.751336 
L 267.202757 305.640402 
L 272.680645 305.798165 
L 272.680645 305.798165 
" clip-path="url(#p17b7ba9d93)" style="fill: none; stroke: #6889ee; stroke-width: 2; stroke-linecap: square"/>
   </g>
   <g id="line2d_40">
    <path d="M 89.347853 305.792426 
L 90.773706 305.736912 
L 92.199558 305.446438 
L 93.625411 304.407688 
L 95.051263 301.688832 
L 96.477116 295.950726 
L 97.902968 285.331407 
L 99.328821 267.740972 
L 100.754673 242.470421 
L 105.032231 150.939174 
L 106.458084 126.791571 
L 107.883936 110.628406 
L 109.309789 103.300942 
L 110.735641 104.137466 
L 112.161494 112.528519 
L 113.587346 126.113624 
L 116.439052 156.664167 
L 122.142462 221.28809 
L 123.568314 235.257408 
L 124.994167 246.224141 
L 126.420019 254.606887 
L 127.845872 262.016324 
L 129.271725 268.775945 
L 130.697577 274.53083 
L 132.12343 279.278558 
L 134.975135 287.044844 
L 136.400987 290.520739 
L 137.82684 293.151222 
L 139.252692 294.699902 
L 140.678545 295.241769 
L 142.104398 295.308011 
L 143.53025 295.883583 
L 147.807808 299.765215 
L 149.23366 300.782188 
L 150.659513 301.601795 
L 157.788776 304.202498 
L 159.214628 304.31532 
L 160.640481 304.289049 
L 166.343891 304.579399 
L 172.047301 304.709045 
L 174.899006 304.650754 
L 176.324859 304.856477 
L 179.176564 305.477854 
L 180.602416 305.55015 
L 183.454122 305.485044 
L 186.305827 305.651768 
L 192.009237 305.743912 
L 196.286795 305.788946 
L 203.416057 305.716142 
L 207.693615 305.799101 
L 361.685691 305.793724 
L 370.240806 305.756271 
L 373.092511 305.798215 
L 373.092511 305.798215 
" clip-path="url(#p17b7ba9d93)" style="fill: none; stroke: #3b4cc0; stroke-width: 2; stroke-linecap: square"/>
   </g>
   <g id="line2d_41">
    <path d="M 171.553333 305.8 
L 171.553333 29.76 
" clip-path="url(#p17b7ba9d93)" style="fill: none; stroke-dasharray: 5.55,2.4; stroke-dashoffset: 0; stroke: #000000; stroke-width: 1.5"/>
   </g>
   <g id="line2d_42">
    <path d="M 291.606667 305.8 
L 291.606667 29.76 
" clip-path="url(#p17b7ba9d93)" style="fill: none; stroke-dasharray: 5.55,2.4; stroke-dashoffset: 0; stroke: #000000; stroke-width: 1.5"/>
   </g>
   <g id="patch_3">
    <path d="M 51.5 305.8 
L 51.5 29.76 
" style="fill: none; stroke: #000000; stroke-width: 0.8; stroke-linejoin: miter; stroke-linecap: square"/>
   </g>
   <g id="patch_4">
    <path d="M 411.66 305.8 
L 411.66 29.76 
" style="fill: none; stroke: #000000; stroke-width: 0.8; stroke-linejoin: miter; stroke-linecap: square"/>
   </g>
   <g id="patch_5">
    <path d="M 51.5 305.8 
L 411.66 305.8 
" style="fill: none; stroke: #000000; stroke-width: 0.8; stroke-linejoin: miter; stroke-linecap: square"/>
   </g>
   <g id="patch_6">
    <path d="M 51.5 29.76 
L 411.66 29.76 
" style="fill: none; stroke: #000000; stroke-width: 0.8; stroke-linejoin: miter; stroke-linecap: square"/>
   </g>
   <g id="text_19">
    <!-- Active Learning in 300K for CNT(8,8) in Water -->
    <g transform="translate(49.12875 23.76) scale(0.16 -0.16)">
     <defs>
      <path id="DejaVuSans-41" d="M 2188 4044 
L 1331 1722 
L 3047 1722 
L 2188 4044 
z
M 1831 4666 
L 2547 4666 
L 4325 0 
L 3669 0 
L 3244 1197 
L 1141 1197 
L 716 0 
L 50 0 
L 1831 4666 
z
" transform="scale(0.015625)"/>
      <path id="DejaVuSans-63" d="M 3122 3366 
L 3122 2828 
Q 2878 2963 2633 3030 
Q 2388 3097 2138 3097 
Q 1578 3097 1268 2742 
Q 959 2388 959 1747 
Q 959 1106 1268 751 
Q 1578 397 2138 397 
Q 2388 397 2633 464 
Q 2878 531 3122 666 
L 3122 134 
Q 2881 22 2623 -34 
Q 2366 -91 2075 -91 
Q 1284 -91 818 406 
Q 353 903 353 1747 
Q 353 2603 823 3093 
Q 1294 3584 2113 3584 
Q 2378 3584 2631 3529 
Q 2884 3475 3122 3366 
z
" transform="scale(0.015625)"/>
      <path id="DejaVuSans-76" d="M 191 3500 
L 800 3500 
L 1894 563 
L 2988 3500 
L 3597 3500 
L 2284 0 
L 1503 0 
L 191 3500 
z
" transform="scale(0.015625)"/>
      <path id="DejaVuSans-65" d="M 3597 1894 
L 3597 1613 
L 953 1613 
Q 991 1019 1311 708 
Q 1631 397 2203 397 
Q 2534 397 2845 478 
Q 3156 559 3463 722 
L 3463 178 
Q 3153 47 2828 -22 
Q 2503 -91 2169 -91 
Q 1331 -91 842 396 
Q 353 884 353 1716 
Q 353 2575 817 3079 
Q 1281 3584 2069 3584 
Q 2775 3584 3186 3129 
Q 3597 2675 3597 1894 
z
M 3022 2063 
Q 3016 2534 2758 2815 
Q 2500 3097 2075 3097 
Q 1594 3097 1305 2825 
Q 1016 2553 972 2059 
L 3022 2063 
z
" transform="scale(0.015625)"/>
      <path id="DejaVuSans-20" transform="scale(0.015625)"/>
      <path id="DejaVuSans-4c" d="M 628 4666 
L 1259 4666 
L 1259 531 
L 3531 531 
L 3531 0 
L 628 0 
L 628 4666 
z
" transform="scale(0.015625)"/>
      <path id="DejaVuSans-61" d="M 2194 1759 
Q 1497 1759 1228 1600 
Q 959 1441 959 1056 
Q 959 750 1161 570 
Q 1363 391 1709 391 
Q 2188 391 2477 730 
Q 2766 1069 2766 1631 
L 2766 1759 
L 2194 1759 
z
M 3341 1997 
L 3341 0 
L 2766 0 
L 2766 531 
Q 2569 213 2275 61 
Q 1981 -91 1556 -91 
Q 1019 -91 701 211 
Q 384 513 384 1019 
Q 384 1609 779 1909 
Q 1175 2209 1959 2209 
L 2766 2209 
L 2766 2266 
Q 2766 2663 2505 2880 
Q 2244 3097 1772 3097 
Q 1472 3097 1187 3025 
Q 903 2953 641 2809 
L 641 3341 
Q 956 3463 1253 3523 
Q 1550 3584 1831 3584 
Q 2591 3584 2966 3190 
Q 3341 2797 3341 1997 
z
" transform="scale(0.015625)"/>
      <path id="DejaVuSans-67" d="M 2906 1791 
Q 2906 2416 2648 2759 
Q 2391 3103 1925 3103 
Q 1463 3103 1205 2759 
Q 947 2416 947 1791 
Q 947 1169 1205 825 
Q 1463 481 1925 481 
Q 2391 481 2648 825 
Q 2906 1169 2906 1791 
z
M 3481 434 
Q 3481 -459 3084 -895 
Q 2688 -1331 1869 -1331 
Q 1566 -1331 1297 -1286 
Q 1028 -1241 775 -1147 
L 775 -588 
Q 1028 -725 1275 -790 
Q 1522 -856 1778 -856 
Q 2344 -856 2625 -561 
Q 2906 -266 2906 331 
L 2906 616 
Q 2728 306 2450 153 
Q 2172 0 1784 0 
Q 1141 0 747 490 
Q 353 981 353 1791 
Q 353 2603 747 3093 
Q 1141 3584 1784 3584 
Q 2172 3584 2450 3431 
Q 2728 3278 2906 2969 
L 2906 3500 
L 3481 3500 
L 3481 434 
z
" transform="scale(0.015625)"/>
      <path id="DejaVuSans-4b" d="M 628 4666 
L 1259 4666 
L 1259 2694 
L 3353 4666 
L 4166 4666 
L 1850 2491 
L 4331 0 
L 3500 0 
L 1259 2247 
L 1259 0 
L 628 0 
L 628 4666 
z
" transform="scale(0.015625)"/>
      <path id="DejaVuSans-66" d="M 2375 4863 
L 2375 4384 
L 1825 4384 
Q 1516 4384 1395 4259 
Q 1275 4134 1275 3809 
L 1275 3500 
L 2222 3500 
L 2222 3053 
L 1275 3053 
L 1275 0 
L 697 0 
L 697 3053 
L 147 3053 
L 147 3500 
L 697 3500 
L 697 3744 
Q 697 4328 969 4595 
Q 1241 4863 1831 4863 
L 2375 4863 
z
" transform="scale(0.015625)"/>
      <path id="DejaVuSans-43" d="M 4122 4306 
L 4122 3641 
Q 3803 3938 3442 4084 
Q 3081 4231 2675 4231 
Q 1875 4231 1450 3742 
Q 1025 3253 1025 2328 
Q 1025 1406 1450 917 
Q 1875 428 2675 428 
Q 3081 428 3442 575 
Q 3803 722 4122 1019 
L 4122 359 
Q 3791 134 3420 21 
Q 3050 -91 2638 -91 
Q 1578 -91 968 557 
Q 359 1206 359 2328 
Q 359 3453 968 4101 
Q 1578 4750 2638 4750 
Q 3056 4750 3426 4639 
Q 3797 4528 4122 4306 
z
" transform="scale(0.015625)"/>
      <path id="DejaVuSans-4e" d="M 628 4666 
L 1478 4666 
L 3547 763 
L 3547 4666 
L 4159 4666 
L 4159 0 
L 3309 0 
L 1241 3903 
L 1241 0 
L 628 0 
L 628 4666 
z
" transform="scale(0.015625)"/>
      <path id="DejaVuSans-54" d="M -19 4666 
L 3928 4666 
L 3928 4134 
L 2272 4134 
L 2272 0 
L 1638 0 
L 1638 4134 
L -19 4134 
L -19 4666 
z
" transform="scale(0.015625)"/>
      <path id="DejaVuSans-38" d="M 2034 2216 
Q 1584 2216 1326 1975 
Q 1069 1734 1069 1313 
Q 1069 891 1326 650 
Q 1584 409 2034 409 
Q 2484 409 2743 651 
Q 3003 894 3003 1313 
Q 3003 1734 2745 1975 
Q 2488 2216 2034 2216 
z
M 1403 2484 
Q 997 2584 770 2862 
Q 544 3141 544 3541 
Q 544 4100 942 4425 
Q 1341 4750 2034 4750 
Q 2731 4750 3128 4425 
Q 3525 4100 3525 3541 
Q 3525 3141 3298 2862 
Q 3072 2584 2669 2484 
Q 3125 2378 3379 2068 
Q 3634 1759 3634 1313 
Q 3634 634 3220 271 
Q 2806 -91 2034 -91 
Q 1263 -91 848 271 
Q 434 634 434 1313 
Q 434 1759 690 2068 
Q 947 2378 1403 2484 
z
M 1172 3481 
Q 1172 3119 1398 2916 
Q 1625 2713 2034 2713 
Q 2441 2713 2670 2916 
Q 2900 3119 2900 3481 
Q 2900 3844 2670 4047 
Q 2441 4250 2034 4250 
Q 1625 4250 1398 4047 
Q 1172 3844 1172 3481 
z
" transform="scale(0.015625)"/>
      <path id="DejaVuSans-2c" d="M 750 794 
L 1409 794 
L 1409 256 
L 897 -744 
L 494 -744 
L 750 256 
L 750 794 
z
" transform="scale(0.015625)"/>
      <path id="DejaVuSans-57" d="M 213 4666 
L 850 4666 
L 1831 722 
L 2809 4666 
L 3519 4666 
L 4500 722 
L 5478 4666 
L 6119 4666 
L 4947 0 
L 4153 0 
L 3169 4050 
L 2175 0 
L 1381 0 
L 213 4666 
z
" transform="scale(0.015625)"/>
     </defs>
     <use xlink:href="#DejaVuSans-41"/>
     <use xlink:href="#DejaVuSans-63" x="66.658203"/>
     <use xlink:href="#DejaVuSans-74" x="121.638672"/>
     <use xlink:href="#DejaVuSans-69" x="160.847656"/>
     <use xlink:href="#DejaVuSans-76" x="188.630859"/>
     <use xlink:href="#DejaVuSans-65" x="247.810547"/>
     <use xlink:href="#DejaVuSans-20" x="309.333984"/>
     <use xlink:href="#DejaVuSans-4c" x="341.121094"/>
     <use xlink:href="#DejaVuSans-65" x="395.083984"/>
     <use xlink:href="#DejaVuSans-61" x="456.607422"/>
     <use xlink:href="#DejaVuSans-72" x="517.886719"/>
     <use xlink:href="#DejaVuSans-6e" x="557.25"/>
     <use xlink:href="#DejaVuSans-69" x="620.628906"/>
     <use xlink:href="#DejaVuSans-6e" x="648.412109"/>
     <use xlink:href="#DejaVuSans-67" x="711.791016"/>
     <use xlink:href="#DejaVuSans-20" x="775.267578"/>
     <use xlink:href="#DejaVuSans-69" x="807.054688"/>
     <use xlink:href="#DejaVuSans-6e" x="834.837891"/>
     <use xlink:href="#DejaVuSans-20" x="898.216797"/>
     <use xlink:href="#DejaVuSans-33" x="930.003906"/>
     <use xlink:href="#DejaVuSans-30" x="993.626953"/>
     <use xlink:href="#DejaVuSans-30" x="1057.25"/>
     <use xlink:href="#DejaVuSans-4b" x="1120.873047"/>
     <use xlink:href="#DejaVuSans-20" x="1186.449219"/>
     <use xlink:href="#DejaVuSans-66" x="1218.236328"/>
     <use xlink:href="#DejaVuSans-6f" x="1253.441406"/>
     <use xlink:href="#DejaVuSans-72" x="1314.623047"/>
     <use xlink:href="#DejaVuSans-20" x="1355.736328"/>
     <use xlink:href="#DejaVuSans-43" x="1387.523438"/>
     <use xlink:href="#DejaVuSans-4e" x="1457.347656"/>
     <use xlink:href="#DejaVuSans-54" x="1532.152344"/>
     <use xlink:href="#DejaVuSans-28" x="1593.236328"/>
     <use xlink:href="#DejaVuSans-38" x="1632.25"/>
     <use xlink:href="#DejaVuSans-2c" x="1695.873047"/>
     <use xlink:href="#DejaVuSans-38" x="1727.660156"/>
     <use xlink:href="#DejaVuSans-29" x="1791.283203"/>
     <use xlink:href="#DejaVuSans-20" x="1830.296875"/>
     <use xlink:href="#DejaVuSans-69" x="1862.083984"/>
     <use xlink:href="#DejaVuSans-6e" x="1889.867188"/>
     <use xlink:href="#DejaVuSans-20" x="1953.246094"/>
     <use xlink:href="#DejaVuSans-57" x="1985.033203"/>
     <use xlink:href="#DejaVuSans-61" x="2077.535156"/>
     <use xlink:href="#DejaVuSans-74" x="2138.814453"/>
     <use xlink:href="#DejaVuSans-65" x="2178.023438"/>
     <use xlink:href="#DejaVuSans-72" x="2239.546875"/>
    </g>
   </g>
   <g id="legend_1">
    <g id="patch_7">
     <path d="M 314.339687 155.185 
L 404.66 155.185 
Q 406.66 155.185 406.66 153.185 
L 406.66 36.76 
Q 406.66 34.76 404.66 34.76 
L 314.339687 34.76 
Q 312.339687 34.76 312.339687 36.76 
L 312.339687 153.185 
Q 312.339687 155.185 314.339687 155.185 
z
" style="fill: #ffffff; opacity: 0.8; stroke: #cccccc; stroke-linejoin: miter"/>
    </g>
    <g id="line2d_43">
     <path d="M 316.339687 42.858437 
L 326.339687 42.858437 
L 336.339687 42.858437 
" style="fill: none; stroke: #b40426; stroke-width: 2; stroke-linecap: square"/>
    </g>
    <g id="text_20">
     <!-- Iteration 28 -->
     <g transform="translate(344.339687 46.358437) scale(0.1 -0.1)">
      <defs>
       <path id="DejaVuSans-49" d="M 628 4666 
L 1259 4666 
L 1259 0 
L 628 0 
L 628 4666 
z
" transform="scale(0.015625)"/>
      </defs>
      <use xlink:href="#DejaVuSans-49"/>
      <use xlink:href="#DejaVuSans-74" x="29.492188"/>
      <use xlink:href="#DejaVuSans-65" x="68.701172"/>
      <use xlink:href="#DejaVuSans-72" x="130.224609"/>
      <use xlink:href="#DejaVuSans-61" x="171.337891"/>
      <use xlink:href="#DejaVuSans-74" x="232.617188"/>
      <use xlink:href="#DejaVuSans-69" x="271.826172"/>
      <use xlink:href="#DejaVuSans-6f" x="299.609375"/>
      <use xlink:href="#DejaVuSans-6e" x="360.791016"/>
      <use xlink:href="#DejaVuSans-20" x="424.169922"/>
      <use xlink:href="#DejaVuSans-32" x="455.957031"/>
      <use xlink:href="#DejaVuSans-38" x="519.580078"/>
     </g>
    </g>
    <g id="line2d_44">
     <path d="M 316.339687 57.536563 
L 326.339687 57.536563 
L 336.339687 57.536563 
" style="fill: none; stroke: #e26953; stroke-width: 2; stroke-linecap: square"/>
    </g>
    <g id="text_21">
     <!-- Iteration 30 -->
     <g transform="translate(344.339687 61.036563) scale(0.1 -0.1)">
      <use xlink:href="#DejaVuSans-49"/>
      <use xlink:href="#DejaVuSans-74" x="29.492188"/>
      <use xlink:href="#DejaVuSans-65" x="68.701172"/>
      <use xlink:href="#DejaVuSans-72" x="130.224609"/>
      <use xlink:href="#DejaVuSans-61" x="171.337891"/>
      <use xlink:href="#DejaVuSans-74" x="232.617188"/>
      <use xlink:href="#DejaVuSans-69" x="271.826172"/>
      <use xlink:href="#DejaVuSans-6f" x="299.609375"/>
      <use xlink:href="#DejaVuSans-6e" x="360.791016"/>
      <use xlink:href="#DejaVuSans-20" x="424.169922"/>
      <use xlink:href="#DejaVuSans-33" x="455.957031"/>
      <use xlink:href="#DejaVuSans-30" x="519.580078"/>
     </g>
    </g>
    <g id="line2d_45">
     <path d="M 316.339687 72.214687 
L 326.339687 72.214687 
L 336.339687 72.214687 
" style="fill: none; stroke: #f7a789; stroke-width: 2; stroke-linecap: square"/>
    </g>
    <g id="text_22">
     <!-- Iteration 32 -->
     <g transform="translate(344.339687 75.714687) scale(0.1 -0.1)">
      <use xlink:href="#DejaVuSans-49"/>
      <use xlink:href="#DejaVuSans-74" x="29.492188"/>
      <use xlink:href="#DejaVuSans-65" x="68.701172"/>
      <use xlink:href="#DejaVuSans-72" x="130.224609"/>
      <use xlink:href="#DejaVuSans-61" x="171.337891"/>
      <use xlink:href="#DejaVuSans-74" x="232.617188"/>
      <use xlink:href="#DejaVuSans-69" x="271.826172"/>
      <use xlink:href="#DejaVuSans-6f" x="299.609375"/>
      <use xlink:href="#DejaVuSans-6e" x="360.791016"/>
      <use xlink:href="#DejaVuSans-20" x="424.169922"/>
      <use xlink:href="#DejaVuSans-33" x="455.957031"/>
      <use xlink:href="#DejaVuSans-32" x="519.580078"/>
     </g>
    </g>
    <g id="line2d_46">
     <path d="M 316.339687 86.892812 
L 326.339687 86.892812 
L 336.339687 86.892812 
" style="fill: none; stroke: #edd1c2; stroke-width: 2; stroke-linecap: square"/>
    </g>
    <g id="text_23">
     <!-- Iteration 34 -->
     <g transform="translate(344.339687 90.392812) scale(0.1 -0.1)">
      <use xlink:href="#DejaVuSans-49"/>
      <use xlink:href="#DejaVuSans-74" x="29.492188"/>
      <use xlink:href="#DejaVuSans-65" x="68.701172"/>
      <use xlink:href="#DejaVuSans-72" x="130.224609"/>
      <use xlink:href="#DejaVuSans-61" x="171.337891"/>
      <use xlink:href="#DejaVuSans-74" x="232.617188"/>
      <use xlink:href="#DejaVuSans-69" x="271.826172"/>
      <use xlink:href="#DejaVuSans-6f" x="299.609375"/>
      <use xlink:href="#DejaVuSans-6e" x="360.791016"/>
      <use xlink:href="#DejaVuSans-20" x="424.169922"/>
      <use xlink:href="#DejaVuSans-33" x="455.957031"/>
      <use xlink:href="#DejaVuSans-34" x="519.580078"/>
     </g>
    </g>
    <g id="line2d_47">
     <path d="M 316.339687 101.570937 
L 326.339687 101.570937 
L 336.339687 101.570937 
" style="fill: none; stroke: #c9d8ef; stroke-width: 2; stroke-linecap: square"/>
    </g>
    <g id="text_24">
     <!-- Iteration 36 -->
     <g transform="translate(344.339687 105.070937) scale(0.1 -0.1)">
      <use xlink:href="#DejaVuSans-49"/>
      <use xlink:href="#DejaVuSans-74" x="29.492188"/>
      <use xlink:href="#DejaVuSans-65" x="68.701172"/>
      <use xlink:href="#DejaVuSans-72" x="130.224609"/>
      <use xlink:href="#DejaVuSans-61" x="171.337891"/>
      <use xlink:href="#DejaVuSans-74" x="232.617188"/>
      <use xlink:href="#DejaVuSans-69" x="271.826172"/>
      <use xlink:href="#DejaVuSans-6f" x="299.609375"/>
      <use xlink:href="#DejaVuSans-6e" x="360.791016"/>
      <use xlink:href="#DejaVuSans-20" x="424.169922"/>
      <use xlink:href="#DejaVuSans-33" x="455.957031"/>
      <use xlink:href="#DejaVuSans-36" x="519.580078"/>
     </g>
    </g>
    <g id="line2d_48">
     <path d="M 316.339687 116.249062 
L 326.339687 116.249062 
L 336.339687 116.249062 
" style="fill: none; stroke: #9abaff; stroke-width: 2; stroke-linecap: square"/>
    </g>
    <g id="text_25">
     <!-- Iteration 38 -->
     <g transform="translate(344.339687 119.749062) scale(0.1 -0.1)">
      <use xlink:href="#DejaVuSans-49"/>
      <use xlink:href="#DejaVuSans-74" x="29.492188"/>
      <use xlink:href="#DejaVuSans-65" x="68.701172"/>
      <use xlink:href="#DejaVuSans-72" x="130.224609"/>
      <use xlink:href="#DejaVuSans-61" x="171.337891"/>
      <use xlink:href="#DejaVuSans-74" x="232.617188"/>
      <use xlink:href="#DejaVuSans-69" x="271.826172"/>
      <use xlink:href="#DejaVuSans-6f" x="299.609375"/>
      <use xlink:href="#DejaVuSans-6e" x="360.791016"/>
      <use xlink:href="#DejaVuSans-20" x="424.169922"/>
      <use xlink:href="#DejaVuSans-33" x="455.957031"/>
      <use xlink:href="#DejaVuSans-38" x="519.580078"/>
     </g>
    </g>
    <g id="line2d_49">
     <path d="M 316.339687 130.927187 
L 326.339687 130.927187 
L 336.339687 130.927187 
" style="fill: none; stroke: #6889ee; stroke-width: 2; stroke-linecap: square"/>
    </g>
    <g id="text_26">
     <!-- Iteration 40 -->
     <g transform="translate(344.339687 134.427187) scale(0.1 -0.1)">
      <use xlink:href="#DejaVuSans-49"/>
      <use xlink:href="#DejaVuSans-74" x="29.492188"/>
      <use xlink:href="#DejaVuSans-65" x="68.701172"/>
      <use xlink:href="#DejaVuSans-72" x="130.224609"/>
      <use xlink:href="#DejaVuSans-61" x="171.337891"/>
      <use xlink:href="#DejaVuSans-74" x="232.617188"/>
      <use xlink:href="#DejaVuSans-69" x="271.826172"/>
      <use xlink:href="#DejaVuSans-6f" x="299.609375"/>
      <use xlink:href="#DejaVuSans-6e" x="360.791016"/>
      <use xlink:href="#DejaVuSans-20" x="424.169922"/>
      <use xlink:href="#DejaVuSans-34" x="455.957031"/>
      <use xlink:href="#DejaVuSans-30" x="519.580078"/>
     </g>
    </g>
    <g id="line2d_50">
     <path d="M 316.339687 145.605312 
L 326.339687 145.605312 
L 336.339687 145.605312 
" style="fill: none; stroke: #3b4cc0; stroke-width: 2; stroke-linecap: square"/>
    </g>
    <g id="text_27">
     <!-- Iteration 42 -->
     <g transform="translate(344.339687 149.105312) scale(0.1 -0.1)">
      <use xlink:href="#DejaVuSans-49"/>
      <use xlink:href="#DejaVuSans-74" x="29.492188"/>
      <use xlink:href="#DejaVuSans-65" x="68.701172"/>
      <use xlink:href="#DejaVuSans-72" x="130.224609"/>
      <use xlink:href="#DejaVuSans-61" x="171.337891"/>
      <use xlink:href="#DejaVuSans-74" x="232.617188"/>
      <use xlink:href="#DejaVuSans-69" x="271.826172"/>
      <use xlink:href="#DejaVuSans-6f" x="299.609375"/>
      <use xlink:href="#DejaVuSans-6e" x="360.791016"/>
      <use xlink:href="#DejaVuSans-20" x="424.169922"/>
      <use xlink:href="#DejaVuSans-34" x="455.957031"/>
      <use xlink:href="#DejaVuSans-32" x="519.580078"/>
     </g>
    </g>
   </g>
  </g>
 </g>
 <defs>
  <clipPath id="p17b7ba9d93">
   <rect x="51.5" y="29.76" width="360.16" height="276.04"/>
  </clipPath>
 </defs>
</svg>
