<?xml version="1.0" encoding="utf-8" standalone="no"?>
<!DOCTYPE svg PUBLIC "-//W3C//DTD SVG 1.1//EN"
  "http://www.w3.org/Graphics/SVG/1.1/DTD/svg11.dtd">
<svg xmlns:xlink="http://www.w3.org/1999/xlink" width="432pt" height="360pt" viewBox="0 0 432 360" xmlns="http://www.w3.org/2000/svg" version="1.1">
 <metadata>
  <rdf:RDF xmlns:dc="http://purl.org/dc/elements/1.1/" xmlns:cc="http://creativecommons.org/ns#" xmlns:rdf="http://www.w3.org/1999/02/22-rdf-syntax-ns#">
   <cc:Work>
    <dc:type rdf:resource="http://purl.org/dc/dcmitype/StillImage"/>
    <dc:date>2023-10-16T13:14:43.503889</dc:date>
    <dc:format>image/svg+xml</dc:format>
    <dc:creator>
     <cc:Agent>
      <dc:title>Matplotlib v3.7.1, https://matplotlib.org/</dc:title>
     </cc:Agent>
    </dc:creator>
   </cc:Work>
  </rdf:RDF>
 </metadata>
 <defs>
  <style type="text/css">*{stroke-linejoin: round; stroke-linecap: butt}</style>
 </defs>
 <g id="figure_1">
  <g id="patch_1">
   <path d="M 0 360 
L 432 360 
L 432 0 
L 0 0 
L 0 360 
z
" style="fill: none"/>
  </g>
  <g id="axes_1">
   <g id="patch_2">
    <path d="M 51.5 305.8 
L 411.66 305.8 
L 411.66 29.76 
L 51.5 29.76 
L 51.5 305.8 
z
" style="fill: none"/>
   </g>
   <g id="matplotlib.axis_1">
    <g id="xtick_1">
     <g id="line2d_1">
      <path d="M 51.5 305.8 
L 51.5 29.76 
" clip-path="url(#pfdb10462a4)" style="fill: none; stroke: #b0b0b0; stroke-width: 0.8; stroke-linecap: square"/>
     </g>
     <g id="line2d_2">
      <defs>
       <path id="m5657dbcbe2" d="M 0 0 
L 0 3.5 
" style="stroke: #000000; stroke-width: 0.8"/>
      </defs>
      <g>
       <use xlink:href="#m5657dbcbe2" x="51.5" y="305.8" style="stroke: #000000; stroke-width: 0.8"/>
      </g>
     </g>
     <g id="text_1">
      <!-- 0.0 -->
      <g transform="translate(41.958125 321.918125) scale(0.12 -0.12)">
       <defs>
        <path id="DejaVuSans-30" d="M 2034 4250 
Q 1547 4250 1301 3770 
Q 1056 3291 1056 2328 
Q 1056 1369 1301 889 
Q 1547 409 2034 409 
Q 2525 409 2770 889 
Q 3016 1369 3016 2328 
Q 3016 3291 2770 3770 
Q 2525 4250 2034 4250 
z
M 2034 4750 
Q 2819 4750 3233 4129 
Q 3647 3509 3647 2328 
Q 3647 1150 3233 529 
Q 2819 -91 2034 -91 
Q 1250 -91 836 529 
Q 422 1150 422 2328 
Q 422 3509 836 4129 
Q 1250 4750 2034 4750 
z
" transform="scale(0.015625)"/>
        <path id="DejaVuSans-2e" d="M 684 794 
L 1344 794 
L 1344 0 
L 684 0 
L 684 794 
z
" transform="scale(0.015625)"/>
       </defs>
       <use xlink:href="#DejaVuSans-30"/>
       <use xlink:href="#DejaVuSans-2e" x="63.623047"/>
       <use xlink:href="#DejaVuSans-30" x="95.410156"/>
      </g>
     </g>
    </g>
    <g id="xtick_2">
     <g id="line2d_3">
      <path d="M 111.526667 305.8 
L 111.526667 29.76 
" clip-path="url(#pfdb10462a4)" style="fill: none; stroke: #b0b0b0; stroke-width: 0.8; stroke-linecap: square"/>
     </g>
     <g id="line2d_4">
      <g>
       <use xlink:href="#m5657dbcbe2" x="111.526667" y="305.8" style="stroke: #000000; stroke-width: 0.8"/>
      </g>
     </g>
     <g id="text_2">
      <!-- 0.1 -->
      <g transform="translate(101.984792 321.918125) scale(0.12 -0.12)">
       <defs>
        <path id="DejaVuSans-31" d="M 794 531 
L 1825 531 
L 1825 4091 
L 703 3866 
L 703 4441 
L 1819 4666 
L 2450 4666 
L 2450 531 
L 3481 531 
L 3481 0 
L 794 0 
L 794 531 
z
" transform="scale(0.015625)"/>
       </defs>
       <use xlink:href="#DejaVuSans-30"/>
       <use xlink:href="#DejaVuSans-2e" x="63.623047"/>
       <use xlink:href="#DejaVuSans-31" x="95.410156"/>
      </g>
     </g>
    </g>
    <g id="xtick_3">
     <g id="line2d_5">
      <path d="M 171.553333 305.8 
L 171.553333 29.76 
" clip-path="url(#pfdb10462a4)" style="fill: none; stroke: #b0b0b0; stroke-width: 0.8; stroke-linecap: square"/>
     </g>
     <g id="line2d_6">
      <g>
       <use xlink:href="#m5657dbcbe2" x="171.553333" y="305.8" style="stroke: #000000; stroke-width: 0.8"/>
      </g>
     </g>
     <g id="text_3">
      <!-- 0.2 -->
      <g transform="translate(162.011458 321.918125) scale(0.12 -0.12)">
       <defs>
        <path id="DejaVuSans-32" d="M 1228 531 
L 3431 531 
L 3431 0 
L 469 0 
L 469 531 
Q 828 903 1448 1529 
Q 2069 2156 2228 2338 
Q 2531 2678 2651 2914 
Q 2772 3150 2772 3378 
Q 2772 3750 2511 3984 
Q 2250 4219 1831 4219 
Q 1534 4219 1204 4116 
Q 875 4013 500 3803 
L 500 4441 
Q 881 4594 1212 4672 
Q 1544 4750 1819 4750 
Q 2544 4750 2975 4387 
Q 3406 4025 3406 3419 
Q 3406 3131 3298 2873 
Q 3191 2616 2906 2266 
Q 2828 2175 2409 1742 
Q 1991 1309 1228 531 
z
" transform="scale(0.015625)"/>
       </defs>
       <use xlink:href="#DejaVuSans-30"/>
       <use xlink:href="#DejaVuSans-2e" x="63.623047"/>
       <use xlink:href="#DejaVuSans-32" x="95.410156"/>
      </g>
     </g>
    </g>
    <g id="xtick_4">
     <g id="line2d_7">
      <path d="M 231.58 305.8 
L 231.58 29.76 
" clip-path="url(#pfdb10462a4)" style="fill: none; stroke: #b0b0b0; stroke-width: 0.8; stroke-linecap: square"/>
     </g>
     <g id="line2d_8">
      <g>
       <use xlink:href="#m5657dbcbe2" x="231.58" y="305.8" style="stroke: #000000; stroke-width: 0.8"/>
      </g>
     </g>
     <g id="text_4">
      <!-- 0.3 -->
      <g transform="translate(222.038125 321.918125) scale(0.12 -0.12)">
       <defs>
        <path id="DejaVuSans-33" d="M 2597 2516 
Q 3050 2419 3304 2112 
Q 3559 1806 3559 1356 
Q 3559 666 3084 287 
Q 2609 -91 1734 -91 
Q 1441 -91 1130 -33 
Q 819 25 488 141 
L 488 750 
Q 750 597 1062 519 
Q 1375 441 1716 441 
Q 2309 441 2620 675 
Q 2931 909 2931 1356 
Q 2931 1769 2642 2001 
Q 2353 2234 1838 2234 
L 1294 2234 
L 1294 2753 
L 1863 2753 
Q 2328 2753 2575 2939 
Q 2822 3125 2822 3475 
Q 2822 3834 2567 4026 
Q 2313 4219 1838 4219 
Q 1578 4219 1281 4162 
Q 984 4106 628 3988 
L 628 4550 
Q 988 4650 1302 4700 
Q 1616 4750 1894 4750 
Q 2613 4750 3031 4423 
Q 3450 4097 3450 3541 
Q 3450 3153 3228 2886 
Q 3006 2619 2597 2516 
z
" transform="scale(0.015625)"/>
       </defs>
       <use xlink:href="#DejaVuSans-30"/>
       <use xlink:href="#DejaVuSans-2e" x="63.623047"/>
       <use xlink:href="#DejaVuSans-33" x="95.410156"/>
      </g>
     </g>
    </g>
    <g id="xtick_5">
     <g id="line2d_9">
      <path d="M 291.606667 305.8 
L 291.606667 29.76 
" clip-path="url(#pfdb10462a4)" style="fill: none; stroke: #b0b0b0; stroke-width: 0.8; stroke-linecap: square"/>
     </g>
     <g id="line2d_10">
      <g>
       <use xlink:href="#m5657dbcbe2" x="291.606667" y="305.8" style="stroke: #000000; stroke-width: 0.8"/>
      </g>
     </g>
     <g id="text_5">
      <!-- 0.4 -->
      <g transform="translate(282.064792 321.918125) scale(0.12 -0.12)">
       <defs>
        <path id="DejaVuSans-34" d="M 2419 4116 
L 825 1625 
L 2419 1625 
L 2419 4116 
z
M 2253 4666 
L 3047 4666 
L 3047 1625 
L 3713 1625 
L 3713 1100 
L 3047 1100 
L 3047 0 
L 2419 0 
L 2419 1100 
L 313 1100 
L 313 1709 
L 2253 4666 
z
" transform="scale(0.015625)"/>
       </defs>
       <use xlink:href="#DejaVuSans-30"/>
       <use xlink:href="#DejaVuSans-2e" x="63.623047"/>
       <use xlink:href="#DejaVuSans-34" x="95.410156"/>
      </g>
     </g>
    </g>
    <g id="xtick_6">
     <g id="line2d_11">
      <path d="M 351.633333 305.8 
L 351.633333 29.76 
" clip-path="url(#pfdb10462a4)" style="fill: none; stroke: #b0b0b0; stroke-width: 0.8; stroke-linecap: square"/>
     </g>
     <g id="line2d_12">
      <g>
       <use xlink:href="#m5657dbcbe2" x="351.633333" y="305.8" style="stroke: #000000; stroke-width: 0.8"/>
      </g>
     </g>
     <g id="text_6">
      <!-- 0.5 -->
      <g transform="translate(342.091458 321.918125) scale(0.12 -0.12)">
       <defs>
        <path id="DejaVuSans-35" d="M 691 4666 
L 3169 4666 
L 3169 4134 
L 1269 4134 
L 1269 2991 
Q 1406 3038 1543 3061 
Q 1681 3084 1819 3084 
Q 2600 3084 3056 2656 
Q 3513 2228 3513 1497 
Q 3513 744 3044 326 
Q 2575 -91 1722 -91 
Q 1428 -91 1123 -41 
Q 819 9 494 109 
L 494 744 
Q 775 591 1075 516 
Q 1375 441 1709 441 
Q 2250 441 2565 725 
Q 2881 1009 2881 1497 
Q 2881 1984 2565 2268 
Q 2250 2553 1709 2553 
Q 1456 2553 1204 2497 
Q 953 2441 691 2322 
L 691 4666 
z
" transform="scale(0.015625)"/>
       </defs>
       <use xlink:href="#DejaVuSans-30"/>
       <use xlink:href="#DejaVuSans-2e" x="63.623047"/>
       <use xlink:href="#DejaVuSans-35" x="95.410156"/>
      </g>
     </g>
    </g>
    <g id="xtick_7">
     <g id="line2d_13">
      <path d="M 411.66 305.8 
L 411.66 29.76 
" clip-path="url(#pfdb10462a4)" style="fill: none; stroke: #b0b0b0; stroke-width: 0.8; stroke-linecap: square"/>
     </g>
     <g id="line2d_14">
      <g>
       <use xlink:href="#m5657dbcbe2" x="411.66" y="305.8" style="stroke: #000000; stroke-width: 0.8"/>
      </g>
     </g>
     <g id="text_7">
      <!-- 0.6 -->
      <g transform="translate(402.118125 321.918125) scale(0.12 -0.12)">
       <defs>
        <path id="DejaVuSans-36" d="M 2113 2584 
Q 1688 2584 1439 2293 
Q 1191 2003 1191 1497 
Q 1191 994 1439 701 
Q 1688 409 2113 409 
Q 2538 409 2786 701 
Q 3034 994 3034 1497 
Q 3034 2003 2786 2293 
Q 2538 2584 2113 2584 
z
M 3366 4563 
L 3366 3988 
Q 3128 4100 2886 4159 
Q 2644 4219 2406 4219 
Q 1781 4219 1451 3797 
Q 1122 3375 1075 2522 
Q 1259 2794 1537 2939 
Q 1816 3084 2150 3084 
Q 2853 3084 3261 2657 
Q 3669 2231 3669 1497 
Q 3669 778 3244 343 
Q 2819 -91 2113 -91 
Q 1303 -91 875 529 
Q 447 1150 447 2328 
Q 447 3434 972 4092 
Q 1497 4750 2381 4750 
Q 2619 4750 2861 4703 
Q 3103 4656 3366 4563 
z
" transform="scale(0.015625)"/>
       </defs>
       <use xlink:href="#DejaVuSans-30"/>
       <use xlink:href="#DejaVuSans-2e" x="63.623047"/>
       <use xlink:href="#DejaVuSans-36" x="95.410156"/>
      </g>
     </g>
    </g>
    <g id="text_8">
     <!-- $\sigma_{f}^{max} (ev/Å)$ -->
     <g transform="translate(192.28 342.36375) scale(0.15 -0.15)">
      <defs>
       <path id="DejaVuSans-Oblique-3c3" d="M 2219 3044 
Q 1744 3044 1422 2700 
Q 1081 2341 969 1747 
Q 844 1119 1044 756 
Q 1241 397 1706 397 
Q 2166 397 2503 759 
Q 2844 1122 2966 1747 
Q 3075 2319 2881 2700 
Q 2700 3044 2219 3044 
z
M 2309 3503 
L 4219 3500 
L 4106 2925 
L 3463 2925 
Q 3706 2438 3575 1747 
Q 3406 888 2884 400 
Q 2359 -91 1609 -91 
Q 856 -91 525 400 
Q 194 888 363 1747 
Q 528 2609 1050 3097 
Q 1484 3503 2309 3503 
z
" transform="scale(0.015625)"/>
       <path id="DejaVuSans-Oblique-6d" d="M 5747 2113 
L 5338 0 
L 4763 0 
L 5166 2094 
Q 5191 2228 5203 2325 
Q 5216 2422 5216 2491 
Q 5216 2772 5059 2928 
Q 4903 3084 4622 3084 
Q 4203 3084 3875 2770 
Q 3547 2456 3450 1953 
L 3066 0 
L 2491 0 
L 2900 2094 
Q 2925 2209 2937 2307 
Q 2950 2406 2950 2484 
Q 2950 2769 2794 2926 
Q 2638 3084 2363 3084 
Q 1938 3084 1609 2770 
Q 1281 2456 1184 1953 
L 800 0 
L 225 0 
L 909 3500 
L 1484 3500 
L 1375 2956 
Q 1609 3263 1923 3423 
Q 2238 3584 2597 3584 
Q 2978 3584 3223 3384 
Q 3469 3184 3519 2828 
Q 3781 3197 4126 3390 
Q 4472 3584 4856 3584 
Q 5306 3584 5551 3325 
Q 5797 3066 5797 2591 
Q 5797 2488 5784 2364 
Q 5772 2241 5747 2113 
z
" transform="scale(0.015625)"/>
       <path id="DejaVuSans-Oblique-61" d="M 3438 1997 
L 3047 0 
L 2472 0 
L 2578 531 
Q 2325 219 2001 64 
Q 1678 -91 1281 -91 
Q 834 -91 548 182 
Q 263 456 263 884 
Q 263 1497 752 1853 
Q 1241 2209 2100 2209 
L 2900 2209 
L 2931 2363 
Q 2938 2388 2941 2417 
Q 2944 2447 2944 2509 
Q 2944 2788 2717 2942 
Q 2491 3097 2081 3097 
Q 1800 3097 1504 3025 
Q 1209 2953 897 2809 
L 997 3341 
Q 1322 3463 1633 3523 
Q 1944 3584 2234 3584 
Q 2853 3584 3176 3315 
Q 3500 3047 3500 2534 
Q 3500 2431 3484 2292 
Q 3469 2153 3438 1997 
z
M 2816 1759 
L 2241 1759 
Q 1534 1759 1195 1570 
Q 856 1381 856 984 
Q 856 709 1029 553 
Q 1203 397 1509 397 
Q 1978 397 2328 733 
Q 2678 1069 2791 1631 
L 2816 1759 
z
" transform="scale(0.015625)"/>
       <path id="DejaVuSans-Oblique-78" d="M 3841 3500 
L 2234 1784 
L 3219 0 
L 2559 0 
L 1819 1388 
L 531 0 
L -166 0 
L 1556 1844 
L 641 3500 
L 1300 3500 
L 1972 2234 
L 3144 3500 
L 3841 3500 
z
" transform="scale(0.015625)"/>
       <path id="DejaVuSans-Oblique-66" d="M 3059 4863 
L 2969 4384 
L 2419 4384 
Q 2106 4384 1964 4261 
Q 1822 4138 1753 3809 
L 1691 3500 
L 2638 3500 
L 2553 3053 
L 1606 3053 
L 1013 0 
L 434 0 
L 1031 3053 
L 481 3053 
L 563 3500 
L 1113 3500 
L 1159 3744 
Q 1278 4363 1576 4613 
Q 1875 4863 2516 4863 
L 3059 4863 
z
" transform="scale(0.015625)"/>
       <path id="DejaVuSans-28" d="M 1984 4856 
Q 1566 4138 1362 3434 
Q 1159 2731 1159 2009 
Q 1159 1288 1364 580 
Q 1569 -128 1984 -844 
L 1484 -844 
Q 1016 -109 783 600 
Q 550 1309 550 2009 
Q 550 2706 781 3412 
Q 1013 4119 1484 4856 
L 1984 4856 
z
" transform="scale(0.015625)"/>
       <path id="DejaVuSans-Oblique-65" d="M 3078 2063 
Q 3088 2113 3092 2166 
Q 3097 2219 3097 2272 
Q 3097 2653 2873 2875 
Q 2650 3097 2266 3097 
Q 1838 3097 1509 2826 
Q 1181 2556 1013 2059 
L 3078 2063 
z
M 3578 1613 
L 903 1613 
Q 884 1494 878 1425 
Q 872 1356 872 1306 
Q 872 872 1139 634 
Q 1406 397 1894 397 
Q 2269 397 2603 481 
Q 2938 566 3225 728 
L 3116 159 
Q 2806 34 2476 -28 
Q 2147 -91 1806 -91 
Q 1078 -91 686 257 
Q 294 606 294 1247 
Q 294 1794 489 2264 
Q 684 2734 1063 3103 
Q 1306 3334 1642 3459 
Q 1978 3584 2356 3584 
Q 2950 3584 3301 3228 
Q 3653 2872 3653 2272 
Q 3653 2128 3634 1964 
Q 3616 1800 3578 1613 
z
" transform="scale(0.015625)"/>
       <path id="DejaVuSans-Oblique-76" d="M 459 3500 
L 1069 3500 
L 1581 525 
L 3256 3500 
L 3866 3500 
L 1875 0 
L 1100 0 
L 459 3500 
z
" transform="scale(0.015625)"/>
       <path id="DejaVuSans-2f" d="M 1625 4666 
L 2156 4666 
L 531 -594 
L 0 -594 
L 1625 4666 
z
" transform="scale(0.015625)"/>
       <path id="DejaVuSans-Oblique-c5" d="M 3188 5081 
Q 3188 5278 3048 5417 
Q 2909 5556 2713 5556 
Q 2513 5556 2377 5420 
Q 2241 5284 2241 5081 
Q 2241 4884 2377 4746 
Q 2513 4609 2713 4609 
Q 2909 4609 3048 4746 
Q 3188 4884 3188 5081 
z
M 2203 4397 
Q 2034 4513 1945 4689 
Q 1856 4866 1856 5081 
Q 1856 5438 2106 5689 
Q 2356 5941 2713 5941 
Q 3069 5941 3320 5689 
Q 3572 5438 3572 5081 
Q 3572 4834 3458 4643 
Q 3344 4453 3128 4341 
L 3938 0 
L 3278 0 
L 3084 1197 
L 984 1197 
L 325 0 
L -341 0 
L 2203 4397 
z
M 2584 4044 
L 1275 1722 
L 2988 1722 
L 2584 4044 
z
" transform="scale(0.015625)"/>
       <path id="DejaVuSans-29" d="M 513 4856 
L 1013 4856 
Q 1481 4119 1714 3412 
Q 1947 2706 1947 2009 
Q 1947 1309 1714 600 
Q 1481 -109 1013 -844 
L 513 -844 
Q 928 -128 1133 580 
Q 1338 1288 1338 2009 
Q 1338 2731 1133 3434 
Q 928 4138 513 4856 
z
" transform="scale(0.015625)"/>
      </defs>
      <use xlink:href="#DejaVuSans-Oblique-3c3" transform="translate(0 0.171875)"/>
      <use xlink:href="#DejaVuSans-Oblique-6d" transform="translate(67.851615 39.5125) scale(0.7)"/>
      <use xlink:href="#DejaVuSans-Oblique-61" transform="translate(136.040091 39.5125) scale(0.7)"/>
      <use xlink:href="#DejaVuSans-Oblique-78" transform="translate(178.935599 39.5125) scale(0.7)"/>
      <use xlink:href="#DejaVuSans-Oblique-66" transform="translate(63.378906 -27.171875) scale(0.7)"/>
      <use xlink:href="#DejaVuSans-28" transform="translate(223.095755 0.171875)"/>
      <use xlink:href="#DejaVuSans-Oblique-65" transform="translate(262.109427 0.171875)"/>
      <use xlink:href="#DejaVuSans-Oblique-76" transform="translate(323.632865 0.171875)"/>
      <use xlink:href="#DejaVuSans-2f" transform="translate(382.812552 0.171875)"/>
      <use xlink:href="#DejaVuSans-Oblique-c5" transform="translate(416.503958 0.171875)"/>
      <use xlink:href="#DejaVuSans-29" transform="translate(484.912161 0.171875)"/>
     </g>
    </g>
   </g>
   <g id="matplotlib.axis_2">
    <g id="ytick_1">
     <g id="line2d_15">
      <path d="M 51.5 305.8 
L 411.66 305.8 
" clip-path="url(#pfdb10462a4)" style="fill: none; stroke: #b0b0b0; stroke-width: 0.8; stroke-linecap: square"/>
     </g>
     <g id="line2d_16">
      <defs>
       <path id="mee6f89fce0" d="M 0 0 
L -3.5 0 
" style="stroke: #000000; stroke-width: 0.8"/>
      </defs>
      <g>
       <use xlink:href="#mee6f89fce0" x="51.5" y="305.8" style="stroke: #000000; stroke-width: 0.8"/>
      </g>
     </g>
     <g id="text_9">
      <!-- 0 -->
      <g transform="translate(36.865 310.359062) scale(0.12 -0.12)">
       <use xlink:href="#DejaVuSans-30"/>
      </g>
     </g>
    </g>
    <g id="ytick_2">
     <g id="line2d_17">
      <path d="M 51.5 271.295 
L 411.66 271.295 
" clip-path="url(#pfdb10462a4)" style="fill: none; stroke: #b0b0b0; stroke-width: 0.8; stroke-linecap: square"/>
     </g>
     <g id="line2d_18">
      <g>
       <use xlink:href="#mee6f89fce0" x="51.5" y="271.295" style="stroke: #000000; stroke-width: 0.8"/>
      </g>
     </g>
     <g id="text_10">
      <!-- 5 -->
      <g transform="translate(36.865 275.854062) scale(0.12 -0.12)">
       <use xlink:href="#DejaVuSans-35"/>
      </g>
     </g>
    </g>
    <g id="ytick_3">
     <g id="line2d_19">
      <path d="M 51.5 236.79 
L 411.66 236.79 
" clip-path="url(#pfdb10462a4)" style="fill: none; stroke: #b0b0b0; stroke-width: 0.8; stroke-linecap: square"/>
     </g>
     <g id="line2d_20">
      <g>
       <use xlink:href="#mee6f89fce0" x="51.5" y="236.79" style="stroke: #000000; stroke-width: 0.8"/>
      </g>
     </g>
     <g id="text_11">
      <!-- 10 -->
      <g transform="translate(29.23 241.349063) scale(0.12 -0.12)">
       <use xlink:href="#DejaVuSans-31"/>
       <use xlink:href="#DejaVuSans-30" x="63.623047"/>
      </g>
     </g>
    </g>
    <g id="ytick_4">
     <g id="line2d_21">
      <path d="M 51.5 202.285 
L 411.66 202.285 
" clip-path="url(#pfdb10462a4)" style="fill: none; stroke: #b0b0b0; stroke-width: 0.8; stroke-linecap: square"/>
     </g>
     <g id="line2d_22">
      <g>
       <use xlink:href="#mee6f89fce0" x="51.5" y="202.285" style="stroke: #000000; stroke-width: 0.8"/>
      </g>
     </g>
     <g id="text_12">
      <!-- 15 -->
      <g transform="translate(29.23 206.844062) scale(0.12 -0.12)">
       <use xlink:href="#DejaVuSans-31"/>
       <use xlink:href="#DejaVuSans-35" x="63.623047"/>
      </g>
     </g>
    </g>
    <g id="ytick_5">
     <g id="line2d_23">
      <path d="M 51.5 167.78 
L 411.66 167.78 
" clip-path="url(#pfdb10462a4)" style="fill: none; stroke: #b0b0b0; stroke-width: 0.8; stroke-linecap: square"/>
     </g>
     <g id="line2d_24">
      <g>
       <use xlink:href="#mee6f89fce0" x="51.5" y="167.78" style="stroke: #000000; stroke-width: 0.8"/>
      </g>
     </g>
     <g id="text_13">
      <!-- 20 -->
      <g transform="translate(29.23 172.339062) scale(0.12 -0.12)">
       <use xlink:href="#DejaVuSans-32"/>
       <use xlink:href="#DejaVuSans-30" x="63.623047"/>
      </g>
     </g>
    </g>
    <g id="ytick_6">
     <g id="line2d_25">
      <path d="M 51.5 133.275 
L 411.66 133.275 
" clip-path="url(#pfdb10462a4)" style="fill: none; stroke: #b0b0b0; stroke-width: 0.8; stroke-linecap: square"/>
     </g>
     <g id="line2d_26">
      <g>
       <use xlink:href="#mee6f89fce0" x="51.5" y="133.275" style="stroke: #000000; stroke-width: 0.8"/>
      </g>
     </g>
     <g id="text_14">
      <!-- 25 -->
      <g transform="translate(29.23 137.834062) scale(0.12 -0.12)">
       <use xlink:href="#DejaVuSans-32"/>
       <use xlink:href="#DejaVuSans-35" x="63.623047"/>
      </g>
     </g>
    </g>
    <g id="ytick_7">
     <g id="line2d_27">
      <path d="M 51.5 98.77 
L 411.66 98.77 
" clip-path="url(#pfdb10462a4)" style="fill: none; stroke: #b0b0b0; stroke-width: 0.8; stroke-linecap: square"/>
     </g>
     <g id="line2d_28">
      <g>
       <use xlink:href="#mee6f89fce0" x="51.5" y="98.77" style="stroke: #000000; stroke-width: 0.8"/>
      </g>
     </g>
     <g id="text_15">
      <!-- 30 -->
      <g transform="translate(29.23 103.329062) scale(0.12 -0.12)">
       <use xlink:href="#DejaVuSans-33"/>
       <use xlink:href="#DejaVuSans-30" x="63.623047"/>
      </g>
     </g>
    </g>
    <g id="ytick_8">
     <g id="line2d_29">
      <path d="M 51.5 64.265 
L 411.66 64.265 
" clip-path="url(#pfdb10462a4)" style="fill: none; stroke: #b0b0b0; stroke-width: 0.8; stroke-linecap: square"/>
     </g>
     <g id="line2d_30">
      <g>
       <use xlink:href="#mee6f89fce0" x="51.5" y="64.265" style="stroke: #000000; stroke-width: 0.8"/>
      </g>
     </g>
     <g id="text_16">
      <!-- 35 -->
      <g transform="translate(29.23 68.824062) scale(0.12 -0.12)">
       <use xlink:href="#DejaVuSans-33"/>
       <use xlink:href="#DejaVuSans-35" x="63.623047"/>
      </g>
     </g>
    </g>
    <g id="ytick_9">
     <g id="line2d_31">
      <path d="M 51.5 29.76 
L 411.66 29.76 
" clip-path="url(#pfdb10462a4)" style="fill: none; stroke: #b0b0b0; stroke-width: 0.8; stroke-linecap: square"/>
     </g>
     <g id="line2d_32">
      <g>
       <use xlink:href="#mee6f89fce0" x="51.5" y="29.76" style="stroke: #000000; stroke-width: 0.8"/>
      </g>
     </g>
     <g id="text_17">
      <!-- 40 -->
      <g transform="translate(29.23 34.319062) scale(0.12 -0.12)">
       <use xlink:href="#DejaVuSans-34"/>
       <use xlink:href="#DejaVuSans-30" x="63.623047"/>
      </g>
     </g>
    </g>
    <g id="text_18">
     <!-- Distribution(%) -->
     <g transform="translate(22.110469 224.511641) rotate(-90) scale(0.15 -0.15)">
      <defs>
       <path id="DejaVuSans-44" d="M 1259 4147 
L 1259 519 
L 2022 519 
Q 2988 519 3436 956 
Q 3884 1394 3884 2338 
Q 3884 3275 3436 3711 
Q 2988 4147 2022 4147 
L 1259 4147 
z
M 628 4666 
L 1925 4666 
Q 3281 4666 3915 4102 
Q 4550 3538 4550 2338 
Q 4550 1131 3912 565 
Q 3275 0 1925 0 
L 628 0 
L 628 4666 
z
" transform="scale(0.015625)"/>
       <path id="DejaVuSans-69" d="M 603 3500 
L 1178 3500 
L 1178 0 
L 603 0 
L 603 3500 
z
M 603 4863 
L 1178 4863 
L 1178 4134 
L 603 4134 
L 603 4863 
z
" transform="scale(0.015625)"/>
       <path id="DejaVuSans-73" d="M 2834 3397 
L 2834 2853 
Q 2591 2978 2328 3040 
Q 2066 3103 1784 3103 
Q 1356 3103 1142 2972 
Q 928 2841 928 2578 
Q 928 2378 1081 2264 
Q 1234 2150 1697 2047 
L 1894 2003 
Q 2506 1872 2764 1633 
Q 3022 1394 3022 966 
Q 3022 478 2636 193 
Q 2250 -91 1575 -91 
Q 1294 -91 989 -36 
Q 684 19 347 128 
L 347 722 
Q 666 556 975 473 
Q 1284 391 1588 391 
Q 1994 391 2212 530 
Q 2431 669 2431 922 
Q 2431 1156 2273 1281 
Q 2116 1406 1581 1522 
L 1381 1569 
Q 847 1681 609 1914 
Q 372 2147 372 2553 
Q 372 3047 722 3315 
Q 1072 3584 1716 3584 
Q 2034 3584 2315 3537 
Q 2597 3491 2834 3397 
z
" transform="scale(0.015625)"/>
       <path id="DejaVuSans-74" d="M 1172 4494 
L 1172 3500 
L 2356 3500 
L 2356 3053 
L 1172 3053 
L 1172 1153 
Q 1172 725 1289 603 
Q 1406 481 1766 481 
L 2356 481 
L 2356 0 
L 1766 0 
Q 1100 0 847 248 
Q 594 497 594 1153 
L 594 3053 
L 172 3053 
L 172 3500 
L 594 3500 
L 594 4494 
L 1172 4494 
z
" transform="scale(0.015625)"/>
       <path id="DejaVuSans-72" d="M 2631 2963 
Q 2534 3019 2420 3045 
Q 2306 3072 2169 3072 
Q 1681 3072 1420 2755 
Q 1159 2438 1159 1844 
L 1159 0 
L 581 0 
L 581 3500 
L 1159 3500 
L 1159 2956 
Q 1341 3275 1631 3429 
Q 1922 3584 2338 3584 
Q 2397 3584 2469 3576 
Q 2541 3569 2628 3553 
L 2631 2963 
z
" transform="scale(0.015625)"/>
       <path id="DejaVuSans-62" d="M 3116 1747 
Q 3116 2381 2855 2742 
Q 2594 3103 2138 3103 
Q 1681 3103 1420 2742 
Q 1159 2381 1159 1747 
Q 1159 1113 1420 752 
Q 1681 391 2138 391 
Q 2594 391 2855 752 
Q 3116 1113 3116 1747 
z
M 1159 2969 
Q 1341 3281 1617 3432 
Q 1894 3584 2278 3584 
Q 2916 3584 3314 3078 
Q 3713 2572 3713 1747 
Q 3713 922 3314 415 
Q 2916 -91 2278 -91 
Q 1894 -91 1617 61 
Q 1341 213 1159 525 
L 1159 0 
L 581 0 
L 581 4863 
L 1159 4863 
L 1159 2969 
z
" transform="scale(0.015625)"/>
       <path id="DejaVuSans-75" d="M 544 1381 
L 544 3500 
L 1119 3500 
L 1119 1403 
Q 1119 906 1312 657 
Q 1506 409 1894 409 
Q 2359 409 2629 706 
Q 2900 1003 2900 1516 
L 2900 3500 
L 3475 3500 
L 3475 0 
L 2900 0 
L 2900 538 
Q 2691 219 2414 64 
Q 2138 -91 1772 -91 
Q 1169 -91 856 284 
Q 544 659 544 1381 
z
M 1991 3584 
L 1991 3584 
z
" transform="scale(0.015625)"/>
       <path id="DejaVuSans-6f" d="M 1959 3097 
Q 1497 3097 1228 2736 
Q 959 2375 959 1747 
Q 959 1119 1226 758 
Q 1494 397 1959 397 
Q 2419 397 2687 759 
Q 2956 1122 2956 1747 
Q 2956 2369 2687 2733 
Q 2419 3097 1959 3097 
z
M 1959 3584 
Q 2709 3584 3137 3096 
Q 3566 2609 3566 1747 
Q 3566 888 3137 398 
Q 2709 -91 1959 -91 
Q 1206 -91 779 398 
Q 353 888 353 1747 
Q 353 2609 779 3096 
Q 1206 3584 1959 3584 
z
" transform="scale(0.015625)"/>
       <path id="DejaVuSans-6e" d="M 3513 2113 
L 3513 0 
L 2938 0 
L 2938 2094 
Q 2938 2591 2744 2837 
Q 2550 3084 2163 3084 
Q 1697 3084 1428 2787 
Q 1159 2491 1159 1978 
L 1159 0 
L 581 0 
L 581 3500 
L 1159 3500 
L 1159 2956 
Q 1366 3272 1645 3428 
Q 1925 3584 2291 3584 
Q 2894 3584 3203 3211 
Q 3513 2838 3513 2113 
z
" transform="scale(0.015625)"/>
       <path id="DejaVuSans-25" d="M 4653 2053 
Q 4381 2053 4226 1822 
Q 4072 1591 4072 1178 
Q 4072 772 4226 539 
Q 4381 306 4653 306 
Q 4919 306 5073 539 
Q 5228 772 5228 1178 
Q 5228 1588 5073 1820 
Q 4919 2053 4653 2053 
z
M 4653 2450 
Q 5147 2450 5437 2106 
Q 5728 1763 5728 1178 
Q 5728 594 5436 251 
Q 5144 -91 4653 -91 
Q 4153 -91 3862 251 
Q 3572 594 3572 1178 
Q 3572 1766 3864 2108 
Q 4156 2450 4653 2450 
z
M 1428 4353 
Q 1159 4353 1004 4120 
Q 850 3888 850 3481 
Q 850 3069 1003 2837 
Q 1156 2606 1428 2606 
Q 1700 2606 1854 2837 
Q 2009 3069 2009 3481 
Q 2009 3884 1853 4118 
Q 1697 4353 1428 4353 
z
M 4250 4750 
L 4750 4750 
L 1831 -91 
L 1331 -91 
L 4250 4750 
z
M 1428 4750 
Q 1922 4750 2215 4408 
Q 2509 4066 2509 3481 
Q 2509 2891 2217 2550 
Q 1925 2209 1428 2209 
Q 931 2209 642 2551 
Q 353 2894 353 3481 
Q 353 4063 643 4406 
Q 934 4750 1428 4750 
z
" transform="scale(0.015625)"/>
      </defs>
      <use xlink:href="#DejaVuSans-44"/>
      <use xlink:href="#DejaVuSans-69" x="77.001953"/>
      <use xlink:href="#DejaVuSans-73" x="104.785156"/>
      <use xlink:href="#DejaVuSans-74" x="156.884766"/>
      <use xlink:href="#DejaVuSans-72" x="196.09375"/>
      <use xlink:href="#DejaVuSans-69" x="237.207031"/>
      <use xlink:href="#DejaVuSans-62" x="264.990234"/>
      <use xlink:href="#DejaVuSans-75" x="328.466797"/>
      <use xlink:href="#DejaVuSans-74" x="391.845703"/>
      <use xlink:href="#DejaVuSans-69" x="431.054688"/>
      <use xlink:href="#DejaVuSans-6f" x="458.837891"/>
      <use xlink:href="#DejaVuSans-6e" x="520.019531"/>
      <use xlink:href="#DejaVuSans-28" x="583.398438"/>
      <use xlink:href="#DejaVuSans-25" x="622.412109"/>
      <use xlink:href="#DejaVuSans-29" x="717.431641"/>
     </g>
    </g>
   </g>
   <g id="line2d_33">
    <path d="M 79.627264 305.7191 
L 87.95974 305.513116 
L 93.514723 305.190626 
L 97.680961 304.776669 
L 101.847199 304.147607 
L 106.013437 303.232447 
L 108.790928 302.42677 
L 111.56842 301.440215 
L 114.345912 300.254712 
L 117.123404 298.856397 
L 119.900896 297.237046 
L 122.678387 295.395248 
L 125.455879 293.337201 
L 129.622117 289.877639 
L 133.788355 286.044243 
L 139.343338 280.546841 
L 149.064559 270.779182 
L 153.230797 266.90838 
L 156.008289 264.536919 
L 158.785781 262.379721 
L 161.563273 260.47649 
L 164.340764 258.866282 
L 167.118256 257.586853 
L 169.895748 256.673341 
L 172.67324 256.156251 
L 175.450732 256.058861 
L 178.228223 256.39432 
L 181.005715 257.162819 
L 183.783207 258.349328 
L 186.560699 259.922358 
L 189.338191 261.834144 
L 192.115682 264.022466 
L 196.28192 267.661428 
L 206.003141 276.453982 
L 210.169379 279.830752 
L 212.946871 281.859931 
L 217.113109 284.561754 
L 221.279346 286.902919 
L 225.445584 288.97998 
L 232.389314 292.133719 
L 243.499281 296.893228 
L 249.054264 299.034137 
L 253.220502 300.41029 
L 257.38674 301.521126 
L 261.552978 302.329009 
L 265.719215 302.825619 
L 269.885453 303.032502 
L 274.051691 302.997496 
L 279.606674 302.693697 
L 292.105387 301.85819 
L 297.660371 301.784838 
L 303.215355 301.999433 
L 308.770338 302.469483 
L 318.491559 303.612542 
L 326.824035 304.542343 
L 333.767764 305.10821 
L 340.711494 305.463893 
L 350.432715 305.700687 
L 355.987699 305.755639 
L 355.987699 305.755639 
" clip-path="url(#pfdb10462a4)" style="fill: none; stroke: #b40426; stroke-width: 2; stroke-linecap: square"/>
   </g>
   <g id="line2d_34">
    <path d="M 92.90602 305.745219 
L 94.576287 305.636086 
L 96.246554 305.35418 
L 97.916821 304.695483 
L 99.587088 303.301277 
L 101.257355 300.623639 
L 102.927622 295.948867 
L 104.597889 288.515686 
L 106.268156 277.732502 
L 107.938423 263.44301 
L 109.60869 246.140113 
L 112.949224 207.793212 
L 114.619491 190.327086 
L 116.289758 176.159076 
L 117.960025 166.152325 
L 119.630292 160.400149 
L 121.300558 158.426018 
L 122.970825 159.546586 
L 124.641092 163.189119 
L 126.311359 169.016225 
L 127.981626 176.855018 
L 129.651893 186.535352 
L 131.32216 197.748593 
L 136.332961 234.639569 
L 138.003228 245.564325 
L 139.673495 254.831421 
L 141.343762 262.291662 
L 143.014029 268.121327 
L 144.684296 272.71075 
L 146.354563 276.511978 
L 149.695097 283.188475 
L 154.705898 292.935921 
L 156.376165 295.85787 
L 158.046432 298.322326 
L 159.716699 300.191473 
L 161.386966 301.427641 
L 163.057233 302.100968 
L 164.7275 302.357555 
L 168.068034 302.284807 
L 171.408568 302.218361 
L 173.078835 302.333183 
L 174.749102 302.575008 
L 178.089635 303.416598 
L 181.430169 304.429326 
L 183.100436 304.823718 
L 184.770703 305.077497 
L 188.111237 305.197467 
L 193.122038 305.149076 
L 198.132839 305.476111 
L 203.14364 305.739552 
L 211.494975 305.799593 
L 398.564876 305.754509 
L 403.575677 305.523669 
L 408.586478 305.177047 
L 411.927011 305.182481 
L 423.61888 305.781351 
L 425.289147 305.792719 
L 425.289147 305.792719 
" clip-path="url(#pfdb10462a4)" style="fill: none; stroke: #e26953; stroke-width: 2; stroke-linecap: square"/>
   </g>
   <g id="line2d_35">
    <path d="M 96.513634 305.789852 
L 97.528163 305.748687 
L 98.542692 305.595272 
L 99.55722 305.142349 
L 100.571749 304.057087 
L 101.586278 301.879906 
L 102.600807 298.077338 
L 103.615336 292.04278 
L 104.629864 283.081325 
L 105.644393 270.607791 
L 106.658922 254.516603 
L 107.673451 235.21286 
L 109.702508 189.159202 
L 111.731566 139.836633 
L 112.746094 118.991964 
L 113.760623 103.526381 
L 114.775152 94.114149 
L 115.789681 90.289369 
L 116.804209 91.293268 
L 117.818738 96.250883 
L 118.833267 103.845464 
L 119.847796 112.856528 
L 120.862324 123.197313 
L 121.876853 135.665005 
L 123.905911 166.626765 
L 125.934968 196.647677 
L 126.949497 208.762914 
L 128.978555 229.237819 
L 131.007612 247.258695 
L 132.022141 254.578536 
L 133.03667 260.781467 
L 134.051198 266.073755 
L 135.065727 270.43702 
L 136.080256 273.897245 
L 139.123842 282.969992 
L 141.1529 289.381032 
L 142.167428 291.996395 
L 143.181957 293.880391 
L 144.196486 295.135512 
L 148.254601 298.954081 
L 149.26913 299.96909 
L 150.283659 300.694382 
L 151.298187 301.020188 
L 154.341774 300.985458 
L 155.356302 301.315677 
L 160.428946 304.002889 
L 161.443475 304.418948 
L 162.458004 304.674477 
L 169.559705 305.324853 
L 171.588763 305.366881 
L 176.661406 305.119541 
L 180.719521 305.560343 
L 183.763108 305.481545 
L 186.806694 305.684595 
L 190.864809 305.658718 
L 193.908395 305.656995 
L 198.981039 305.278965 
L 201.010097 305.199436 
L 206.08274 305.784696 
L 209.126327 305.740046 
L 212.169913 305.626103 
L 220.286143 305.799992 
L 233.475017 305.69853 
L 235.504075 305.624156 
L 245.649362 305.8 
L 290.288628 305.726478 
L 293.332214 305.631782 
L 298.404858 305.798046 
L 298.404858 305.798046 
" clip-path="url(#pfdb10462a4)" style="fill: none; stroke: #f7a789; stroke-width: 2; stroke-linecap: square"/>
   </g>
   <g id="line2d_36">
    <path d="M 92.4957 305.799469 
L 96.853552 305.732232 
L 98.30617 305.577063 
L 99.758787 304.929965 
L 101.211405 302.769934 
L 102.664022 297.396653 
L 104.11664 287.055679 
L 105.569257 270.388832 
L 107.021875 246.667592 
L 111.379728 157.547523 
L 112.832345 136.196099 
L 114.284963 122.36475 
L 115.73758 116.146426 
L 117.190198 117.295912 
L 118.642815 124.431225 
L 120.095433 135.16834 
L 121.54805 148.050918 
L 125.905903 195.134881 
L 128.811138 220.407741 
L 130.263756 231.764532 
L 131.716373 241.616815 
L 133.168991 250.056541 
L 136.074226 265.061554 
L 137.526843 271.288966 
L 138.979461 275.859044 
L 141.884696 283.495334 
L 143.337313 286.918566 
L 144.789931 289.330872 
L 147.695166 292.440285 
L 149.147784 293.708757 
L 150.600401 294.749575 
L 152.053019 296.101458 
L 153.505636 297.678991 
L 154.958254 298.748642 
L 157.863489 299.675155 
L 160.768724 301.665767 
L 162.221341 302.18124 
L 165.126577 302.534675 
L 170.937047 304.214801 
L 188.368457 305.466393 
L 201.442015 305.454492 
L 204.34725 305.70797 
L 207.252485 305.670305 
L 211.610338 305.645695 
L 217.420808 305.746659 
L 221.778661 305.761694 
L 226.136513 305.700098 
L 381.56659 305.799472 
L 381.56659 305.799472 
" clip-path="url(#pfdb10462a4)" style="fill: none; stroke: #edd1c2; stroke-width: 2; stroke-linecap: square"/>
   </g>
   <g id="line2d_37">
    <path d="M 93.121152 305.798146 
L 95.837563 305.749438 
L 97.195769 305.624617 
L 98.553974 305.303604 
L 99.91218 304.595438 
L 101.270386 303.21438 
L 102.628592 300.785412 
L 103.986797 296.823358 
L 105.345003 290.744002 
L 106.703209 282.074066 
L 108.061414 270.728056 
L 109.41962 257.075236 
L 112.136032 226.90718 
L 113.494237 213.748096 
L 114.852443 203.488113 
L 116.210649 195.523982 
L 117.568854 188.62841 
L 118.92706 182.546121 
L 120.285266 178.093038 
L 121.643472 175.838338 
L 123.001677 175.584477 
L 124.359883 177.076782 
L 125.718089 180.116089 
L 128.4345 187.577695 
L 129.792706 190.880543 
L 131.150912 194.835572 
L 132.509117 200.352781 
L 136.583734 220.299336 
L 140.658352 237.161649 
L 142.016557 243.766425 
L 144.732969 258.264029 
L 146.091174 264.456987 
L 147.44938 269.410142 
L 148.807586 273.433499 
L 150.165792 276.875843 
L 154.240409 285.91453 
L 155.598614 288.699061 
L 156.95682 291.087191 
L 158.315026 293.042119 
L 161.031437 296.172152 
L 162.389643 297.652977 
L 163.747849 298.95718 
L 165.106054 299.909981 
L 166.46426 300.53468 
L 173.255289 302.640774 
L 182.762729 304.851646 
L 185.47914 305.089333 
L 190.911963 305.131606 
L 197.702992 305.2485 
L 201.777609 305.326712 
L 208.568637 305.68856 
L 212.643255 305.777994 
L 220.792489 305.733165 
L 224.867106 305.739363 
L 230.299929 305.784281 
L 238.449163 305.775339 
L 243.881986 305.752223 
L 249.314809 305.737069 
L 254.747632 305.786824 
L 265.613277 305.753602 
L 269.687895 305.748759 
L 277.837129 305.799997 
L 363.404089 305.799175 
L 363.404089 305.799175 
" clip-path="url(#pfdb10462a4)" style="fill: none; stroke: #c9d8ef; stroke-width: 2; stroke-linecap: square"/>
   </g>
   <g id="line2d_38">
    <path d="M 92.168157 305.796942 
L 94.970698 305.73008 
L 96.839059 305.447769 
L 97.77324 305.097262 
L 98.70742 304.487857 
L 99.641601 303.484911 
L 100.575781 301.905504 
L 101.509962 299.50835 
L 102.444142 295.994294 
L 103.378322 291.031565 
L 104.312503 284.313481 
L 105.246683 275.638627 
L 106.180864 264.986947 
L 108.049225 238.803324 
L 110.851766 195.863915 
L 112.720127 171.366448 
L 113.654308 161.126348 
L 114.588488 152.41629 
L 115.522669 145.530795 
L 116.456849 140.830269 
L 117.39103 138.562167 
L 118.32521 138.71839 
L 119.259391 141.024984 
L 120.193571 145.044511 
L 121.127751 150.301785 
L 122.996112 162.913035 
L 125.798654 184.147789 
L 130.469556 222.118067 
L 131.403737 228.103685 
L 133.272098 238.084509 
L 137.00882 255.675201 
L 138.87718 263.245561 
L 140.745541 269.672712 
L 142.613902 275.297359 
L 144.482263 279.957529 
L 146.350624 283.685457 
L 149.153166 289.001785 
L 151.021527 292.715054 
L 151.955707 294.348599 
L 152.889888 295.675302 
L 153.824068 296.632657 
L 154.758248 297.225628 
L 155.692429 297.524924 
L 158.49497 297.868867 
L 159.429151 298.164252 
L 160.363331 298.645387 
L 162.231692 300.041497 
L 164.100053 301.430359 
L 165.968414 302.326022 
L 167.836775 302.877567 
L 170.639317 303.420036 
L 173.441858 303.987196 
L 177.17858 304.899144 
L 179.046941 305.039801 
L 180.915302 304.86708 
L 183.717843 304.486395 
L 185.586204 304.479661 
L 190.257106 304.934039 
L 193.059648 305.176152 
L 195.862189 305.132492 
L 198.664731 305.114726 
L 204.269814 305.414721 
L 207.072355 305.496788 
L 211.743257 305.437559 
L 221.085062 305.798437 
L 235.097769 305.737274 
L 239.768672 305.654446 
L 247.242115 305.799409 
L 255.64974 305.707312 
L 259.386462 305.651855 
L 265.925725 305.761769 
L 272.464988 305.68494 
L 278.070071 305.798214 
L 278.070071 305.798214 
" clip-path="url(#pfdb10462a4)" style="fill: none; stroke: #9abaff; stroke-width: 2; stroke-linecap: square"/>
   </g>
   <g id="line2d_39">
    <path d="M 92.803703 305.794805 
L 94.817427 305.702562 
L 95.824289 305.481457 
L 96.831151 304.9214 
L 97.838014 303.721596 
L 98.844876 301.502188 
L 99.851738 297.86476 
L 100.8586 292.42073 
L 101.865462 284.744915 
L 102.872324 274.307619 
L 103.879186 260.534871 
L 104.886048 243.109337 
L 106.899772 199.663752 
L 108.913497 155.300907 
L 109.920359 136.314548 
L 110.927221 120.212663 
L 111.934083 107.701196 
L 112.940945 100.149179 
L 113.947807 98.837227 
L 114.954669 103.721066 
L 115.961531 113.054194 
L 118.982118 146.393063 
L 120.995842 166.780234 
L 125.02329 203.577957 
L 128.043877 236.242178 
L 129.050739 245.023619 
L 130.057601 252.163612 
L 132.071325 263.575549 
L 134.085049 273.308399 
L 135.091911 276.94389 
L 136.098773 279.546465 
L 137.105635 281.449938 
L 139.11936 284.869625 
L 143.146808 292.528072 
L 145.160532 295.641715 
L 146.167394 297.008045 
L 147.174256 298.078842 
L 148.181119 298.833544 
L 150.194843 299.803732 
L 153.215429 301.084702 
L 156.236015 302.947925 
L 157.242877 303.253229 
L 158.24974 303.251016 
L 160.263464 303.092012 
L 161.270326 303.272411 
L 164.290912 304.369153 
L 165.297774 304.524682 
L 169.325223 304.605763 
L 171.338947 304.808237 
L 173.352671 304.888681 
L 177.380119 305.398487 
L 182.41443 304.873189 
L 185.435016 305.21274 
L 188.455602 305.567072 
L 190.469327 305.47745 
L 192.483051 305.344646 
L 195.503637 305.505584 
L 199.531086 305.643321 
L 202.551672 305.52984 
L 206.57912 305.335019 
L 213.627155 305.798758 
L 283.10064 305.774349 
L 288.13495 305.660565 
L 293.169261 305.798207 
L 293.169261 305.798207 
" clip-path="url(#pfdb10462a4)" style="fill: none; stroke: #6889ee; stroke-width: 2; stroke-linecap: square"/>
   </g>
   <g id="line2d_40">
    <path d="M 89.084096 305.795618 
L 90.522249 305.763237 
L 91.960401 305.58723 
L 93.398554 304.897583 
L 94.836707 302.829717 
L 96.274859 297.891194 
L 97.713012 288.262186 
L 99.151165 272.520268 
L 100.589317 250.302673 
L 103.465623 193.481987 
L 104.903775 165.642311 
L 106.341928 140.968124 
L 107.780081 119.705143 
L 109.218233 103.889557 
L 110.656386 97.835867 
L 112.094539 103.463625 
L 113.532691 116.69094 
L 116.408996 148.15455 
L 122.161607 217.32547 
L 123.59976 231.265187 
L 125.037912 243.387408 
L 126.476065 253.232423 
L 127.914218 260.980559 
L 130.790523 274.269232 
L 132.228676 280.350304 
L 133.666828 285.605131 
L 135.104981 289.373811 
L 136.543134 291.470423 
L 137.981286 292.772893 
L 139.419439 294.376747 
L 140.857592 296.490099 
L 142.295744 298.305349 
L 143.733897 299.194083 
L 146.610202 299.884461 
L 148.048355 300.438609 
L 150.92466 301.843274 
L 152.362813 302.367842 
L 155.239118 303.001594 
L 160.991729 303.837218 
L 166.744339 304.313214 
L 169.620644 305.040479 
L 171.058797 305.201587 
L 175.373255 305.304458 
L 178.24956 305.467901 
L 204.136308 305.654833 
L 207.012613 305.695037 
L 211.327071 305.798513 
L 330.693741 305.8 
L 366.647557 305.725799 
L 369.523863 305.639256 
L 375.276473 305.79819 
L 375.276473 305.79819 
" clip-path="url(#pfdb10462a4)" style="fill: none; stroke: #3b4cc0; stroke-width: 2; stroke-linecap: square"/>
   </g>
   <g id="line2d_41">
    <path d="M 171.553333 305.8 
L 171.553333 29.76 
" clip-path="url(#pfdb10462a4)" style="fill: none; stroke-dasharray: 5.55,2.4; stroke-dashoffset: 0; stroke: #000000; stroke-width: 1.5"/>
   </g>
   <g id="line2d_42">
    <path d="M 291.606667 305.8 
L 291.606667 29.76 
" clip-path="url(#pfdb10462a4)" style="fill: none; stroke-dasharray: 5.55,2.4; stroke-dashoffset: 0; stroke: #000000; stroke-width: 1.5"/>
   </g>
   <g id="patch_3">
    <path d="M 51.5 305.8 
L 51.5 29.76 
" style="fill: none; stroke: #000000; stroke-width: 0.8; stroke-linejoin: miter; stroke-linecap: square"/>
   </g>
   <g id="patch_4">
    <path d="M 411.66 305.8 
L 411.66 29.76 
" style="fill: none; stroke: #000000; stroke-width: 0.8; stroke-linejoin: miter; stroke-linecap: square"/>
   </g>
   <g id="patch_5">
    <path d="M 51.5 305.8 
L 411.66 305.8 
" style="fill: none; stroke: #000000; stroke-width: 0.8; stroke-linejoin: miter; stroke-linecap: square"/>
   </g>
   <g id="patch_6">
    <path d="M 51.5 29.76 
L 411.66 29.76 
" style="fill: none; stroke: #000000; stroke-width: 0.8; stroke-linejoin: miter; stroke-linecap: square"/>
   </g>
   <g id="text_19">
    <!-- Active Learning in 300K for CNT(7,7) in Water -->
    <g transform="translate(49.12875 23.76) scale(0.16 -0.16)">
     <defs>
      <path id="DejaVuSans-41" d="M 2188 4044 
L 1331 1722 
L 3047 1722 
L 2188 4044 
z
M 1831 4666 
L 2547 4666 
L 4325 0 
L 3669 0 
L 3244 1197 
L 1141 1197 
L 716 0 
L 50 0 
L 1831 4666 
z
" transform="scale(0.015625)"/>
      <path id="DejaVuSans-63" d="M 3122 3366 
L 3122 2828 
Q 2878 2963 2633 3030 
Q 2388 3097 2138 3097 
Q 1578 3097 1268 2742 
Q 959 2388 959 1747 
Q 959 1106 1268 751 
Q 1578 397 2138 397 
Q 2388 397 2633 464 
Q 2878 531 3122 666 
L 3122 134 
Q 2881 22 2623 -34 
Q 2366 -91 2075 -91 
Q 1284 -91 818 406 
Q 353 903 353 1747 
Q 353 2603 823 3093 
Q 1294 3584 2113 3584 
Q 2378 3584 2631 3529 
Q 2884 3475 3122 3366 
z
" transform="scale(0.015625)"/>
      <path id="DejaVuSans-76" d="M 191 3500 
L 800 3500 
L 1894 563 
L 2988 3500 
L 3597 3500 
L 2284 0 
L 1503 0 
L 191 3500 
z
" transform="scale(0.015625)"/>
      <path id="DejaVuSans-65" d="M 3597 1894 
L 3597 1613 
L 953 1613 
Q 991 1019 1311 708 
Q 1631 397 2203 397 
Q 2534 397 2845 478 
Q 3156 559 3463 722 
L 3463 178 
Q 3153 47 2828 -22 
Q 2503 -91 2169 -91 
Q 1331 -91 842 396 
Q 353 884 353 1716 
Q 353 2575 817 3079 
Q 1281 3584 2069 3584 
Q 2775 3584 3186 3129 
Q 3597 2675 3597 1894 
z
M 3022 2063 
Q 3016 2534 2758 2815 
Q 2500 3097 2075 3097 
Q 1594 3097 1305 2825 
Q 1016 2553 972 2059 
L 3022 2063 
z
" transform="scale(0.015625)"/>
      <path id="DejaVuSans-20" transform="scale(0.015625)"/>
      <path id="DejaVuSans-4c" d="M 628 4666 
L 1259 4666 
L 1259 531 
L 3531 531 
L 3531 0 
L 628 0 
L 628 4666 
z
" transform="scale(0.015625)"/>
      <path id="DejaVuSans-61" d="M 2194 1759 
Q 1497 1759 1228 1600 
Q 959 1441 959 1056 
Q 959 750 1161 570 
Q 1363 391 1709 391 
Q 2188 391 2477 730 
Q 2766 1069 2766 1631 
L 2766 1759 
L 2194 1759 
z
M 3341 1997 
L 3341 0 
L 2766 0 
L 2766 531 
Q 2569 213 2275 61 
Q 1981 -91 1556 -91 
Q 1019 -91 701 211 
Q 384 513 384 1019 
Q 384 1609 779 1909 
Q 1175 2209 1959 2209 
L 2766 2209 
L 2766 2266 
Q 2766 2663 2505 2880 
Q 2244 3097 1772 3097 
Q 1472 3097 1187 3025 
Q 903 2953 641 2809 
L 641 3341 
Q 956 3463 1253 3523 
Q 1550 3584 1831 3584 
Q 2591 3584 2966 3190 
Q 3341 2797 3341 1997 
z
" transform="scale(0.015625)"/>
      <path id="DejaVuSans-67" d="M 2906 1791 
Q 2906 2416 2648 2759 
Q 2391 3103 1925 3103 
Q 1463 3103 1205 2759 
Q 947 2416 947 1791 
Q 947 1169 1205 825 
Q 1463 481 1925 481 
Q 2391 481 2648 825 
Q 2906 1169 2906 1791 
z
M 3481 434 
Q 3481 -459 3084 -895 
Q 2688 -1331 1869 -1331 
Q 1566 -1331 1297 -1286 
Q 1028 -1241 775 -1147 
L 775 -588 
Q 1028 -725 1275 -790 
Q 1522 -856 1778 -856 
Q 2344 -856 2625 -561 
Q 2906 -266 2906 331 
L 2906 616 
Q 2728 306 2450 153 
Q 2172 0 1784 0 
Q 1141 0 747 490 
Q 353 981 353 1791 
Q 353 2603 747 3093 
Q 1141 3584 1784 3584 
Q 2172 3584 2450 3431 
Q 2728 3278 2906 2969 
L 2906 3500 
L 3481 3500 
L 3481 434 
z
" transform="scale(0.015625)"/>
      <path id="DejaVuSans-4b" d="M 628 4666 
L 1259 4666 
L 1259 2694 
L 3353 4666 
L 4166 4666 
L 1850 2491 
L 4331 0 
L 3500 0 
L 1259 2247 
L 1259 0 
L 628 0 
L 628 4666 
z
" transform="scale(0.015625)"/>
      <path id="DejaVuSans-66" d="M 2375 4863 
L 2375 4384 
L 1825 4384 
Q 1516 4384 1395 4259 
Q 1275 4134 1275 3809 
L 1275 3500 
L 2222 3500 
L 2222 3053 
L 1275 3053 
L 1275 0 
L 697 0 
L 697 3053 
L 147 3053 
L 147 3500 
L 697 3500 
L 697 3744 
Q 697 4328 969 4595 
Q 1241 4863 1831 4863 
L 2375 4863 
z
" transform="scale(0.015625)"/>
      <path id="DejaVuSans-43" d="M 4122 4306 
L 4122 3641 
Q 3803 3938 3442 4084 
Q 3081 4231 2675 4231 
Q 1875 4231 1450 3742 
Q 1025 3253 1025 2328 
Q 1025 1406 1450 917 
Q 1875 428 2675 428 
Q 3081 428 3442 575 
Q 3803 722 4122 1019 
L 4122 359 
Q 3791 134 3420 21 
Q 3050 -91 2638 -91 
Q 1578 -91 968 557 
Q 359 1206 359 2328 
Q 359 3453 968 4101 
Q 1578 4750 2638 4750 
Q 3056 4750 3426 4639 
Q 3797 4528 4122 4306 
z
" transform="scale(0.015625)"/>
      <path id="DejaVuSans-4e" d="M 628 4666 
L 1478 4666 
L 3547 763 
L 3547 4666 
L 4159 4666 
L 4159 0 
L 3309 0 
L 1241 3903 
L 1241 0 
L 628 0 
L 628 4666 
z
" transform="scale(0.015625)"/>
      <path id="DejaVuSans-54" d="M -19 4666 
L 3928 4666 
L 3928 4134 
L 2272 4134 
L 2272 0 
L 1638 0 
L 1638 4134 
L -19 4134 
L -19 4666 
z
" transform="scale(0.015625)"/>
      <path id="DejaVuSans-37" d="M 525 4666 
L 3525 4666 
L 3525 4397 
L 1831 0 
L 1172 0 
L 2766 4134 
L 525 4134 
L 525 4666 
z
" transform="scale(0.015625)"/>
      <path id="DejaVuSans-2c" d="M 750 794 
L 1409 794 
L 1409 256 
L 897 -744 
L 494 -744 
L 750 256 
L 750 794 
z
" transform="scale(0.015625)"/>
      <path id="DejaVuSans-57" d="M 213 4666 
L 850 4666 
L 1831 722 
L 2809 4666 
L 3519 4666 
L 4500 722 
L 5478 4666 
L 6119 4666 
L 4947 0 
L 4153 0 
L 3169 4050 
L 2175 0 
L 1381 0 
L 213 4666 
z
" transform="scale(0.015625)"/>
     </defs>
     <use xlink:href="#DejaVuSans-41"/>
     <use xlink:href="#DejaVuSans-63" x="66.658203"/>
     <use xlink:href="#DejaVuSans-74" x="121.638672"/>
     <use xlink:href="#DejaVuSans-69" x="160.847656"/>
     <use xlink:href="#DejaVuSans-76" x="188.630859"/>
     <use xlink:href="#DejaVuSans-65" x="247.810547"/>
     <use xlink:href="#DejaVuSans-20" x="309.333984"/>
     <use xlink:href="#DejaVuSans-4c" x="341.121094"/>
     <use xlink:href="#DejaVuSans-65" x="395.083984"/>
     <use xlink:href="#DejaVuSans-61" x="456.607422"/>
     <use xlink:href="#DejaVuSans-72" x="517.886719"/>
     <use xlink:href="#DejaVuSans-6e" x="557.25"/>
     <use xlink:href="#DejaVuSans-69" x="620.628906"/>
     <use xlink:href="#DejaVuSans-6e" x="648.412109"/>
     <use xlink:href="#DejaVuSans-67" x="711.791016"/>
     <use xlink:href="#DejaVuSans-20" x="775.267578"/>
     <use xlink:href="#DejaVuSans-69" x="807.054688"/>
     <use xlink:href="#DejaVuSans-6e" x="834.837891"/>
     <use xlink:href="#DejaVuSans-20" x="898.216797"/>
     <use xlink:href="#DejaVuSans-33" x="930.003906"/>
     <use xlink:href="#DejaVuSans-30" x="993.626953"/>
     <use xlink:href="#DejaVuSans-30" x="1057.25"/>
     <use xlink:href="#DejaVuSans-4b" x="1120.873047"/>
     <use xlink:href="#DejaVuSans-20" x="1186.449219"/>
     <use xlink:href="#DejaVuSans-66" x="1218.236328"/>
     <use xlink:href="#DejaVuSans-6f" x="1253.441406"/>
     <use xlink:href="#DejaVuSans-72" x="1314.623047"/>
     <use xlink:href="#DejaVuSans-20" x="1355.736328"/>
     <use xlink:href="#DejaVuSans-43" x="1387.523438"/>
     <use xlink:href="#DejaVuSans-4e" x="1457.347656"/>
     <use xlink:href="#DejaVuSans-54" x="1532.152344"/>
     <use xlink:href="#DejaVuSans-28" x="1593.236328"/>
     <use xlink:href="#DejaVuSans-37" x="1632.25"/>
     <use xlink:href="#DejaVuSans-2c" x="1695.873047"/>
     <use xlink:href="#DejaVuSans-37" x="1727.660156"/>
     <use xlink:href="#DejaVuSans-29" x="1791.283203"/>
     <use xlink:href="#DejaVuSans-20" x="1830.296875"/>
     <use xlink:href="#DejaVuSans-69" x="1862.083984"/>
     <use xlink:href="#DejaVuSans-6e" x="1889.867188"/>
     <use xlink:href="#DejaVuSans-20" x="1953.246094"/>
     <use xlink:href="#DejaVuSans-57" x="1985.033203"/>
     <use xlink:href="#DejaVuSans-61" x="2077.535156"/>
     <use xlink:href="#DejaVuSans-74" x="2138.814453"/>
     <use xlink:href="#DejaVuSans-65" x="2178.023438"/>
     <use xlink:href="#DejaVuSans-72" x="2239.546875"/>
    </g>
   </g>
   <g id="legend_1">
    <g id="patch_7">
     <path d="M 314.339687 155.185 
L 404.66 155.185 
Q 406.66 155.185 406.66 153.185 
L 406.66 36.76 
Q 406.66 34.76 404.66 34.76 
L 314.339687 34.76 
Q 312.339687 34.76 312.339687 36.76 
L 312.339687 153.185 
Q 312.339687 155.185 314.339687 155.185 
z
" style="fill: #ffffff; opacity: 0.8; stroke: #cccccc; stroke-linejoin: miter"/>
    </g>
    <g id="line2d_43">
     <path d="M 316.339687 42.858437 
L 326.339687 42.858437 
L 336.339687 42.858437 
" style="fill: none; stroke: #b40426; stroke-width: 2; stroke-linecap: square"/>
    </g>
    <g id="text_20">
     <!-- Iteration 28 -->
     <g transform="translate(344.339687 46.358437) scale(0.1 -0.1)">
      <defs>
       <path id="DejaVuSans-49" d="M 628 4666 
L 1259 4666 
L 1259 0 
L 628 0 
L 628 4666 
z
" transform="scale(0.015625)"/>
       <path id="DejaVuSans-38" d="M 2034 2216 
Q 1584 2216 1326 1975 
Q 1069 1734 1069 1313 
Q 1069 891 1326 650 
Q 1584 409 2034 409 
Q 2484 409 2743 651 
Q 3003 894 3003 1313 
Q 3003 1734 2745 1975 
Q 2488 2216 2034 2216 
z
M 1403 2484 
Q 997 2584 770 2862 
Q 544 3141 544 3541 
Q 544 4100 942 4425 
Q 1341 4750 2034 4750 
Q 2731 4750 3128 4425 
Q 3525 4100 3525 3541 
Q 3525 3141 3298 2862 
Q 3072 2584 2669 2484 
Q 3125 2378 3379 2068 
Q 3634 1759 3634 1313 
Q 3634 634 3220 271 
Q 2806 -91 2034 -91 
Q 1263 -91 848 271 
Q 434 634 434 1313 
Q 434 1759 690 2068 
Q 947 2378 1403 2484 
z
M 1172 3481 
Q 1172 3119 1398 2916 
Q 1625 2713 2034 2713 
Q 2441 2713 2670 2916 
Q 2900 3119 2900 3481 
Q 2900 3844 2670 4047 
Q 2441 4250 2034 4250 
Q 1625 4250 1398 4047 
Q 1172 3844 1172 3481 
z
" transform="scale(0.015625)"/>
      </defs>
      <use xlink:href="#DejaVuSans-49"/>
      <use xlink:href="#DejaVuSans-74" x="29.492188"/>
      <use xlink:href="#DejaVuSans-65" x="68.701172"/>
      <use xlink:href="#DejaVuSans-72" x="130.224609"/>
      <use xlink:href="#DejaVuSans-61" x="171.337891"/>
      <use xlink:href="#DejaVuSans-74" x="232.617188"/>
      <use xlink:href="#DejaVuSans-69" x="271.826172"/>
      <use xlink:href="#DejaVuSans-6f" x="299.609375"/>
      <use xlink:href="#DejaVuSans-6e" x="360.791016"/>
      <use xlink:href="#DejaVuSans-20" x="424.169922"/>
      <use xlink:href="#DejaVuSans-32" x="455.957031"/>
      <use xlink:href="#DejaVuSans-38" x="519.580078"/>
     </g>
    </g>
    <g id="line2d_44">
     <path d="M 316.339687 57.536563 
L 326.339687 57.536563 
L 336.339687 57.536563 
" style="fill: none; stroke: #e26953; stroke-width: 2; stroke-linecap: square"/>
    </g>
    <g id="text_21">
     <!-- Iteration 30 -->
     <g transform="translate(344.339687 61.036563) scale(0.1 -0.1)">
      <use xlink:href="#DejaVuSans-49"/>
      <use xlink:href="#DejaVuSans-74" x="29.492188"/>
      <use xlink:href="#DejaVuSans-65" x="68.701172"/>
      <use xlink:href="#DejaVuSans-72" x="130.224609"/>
      <use xlink:href="#DejaVuSans-61" x="171.337891"/>
      <use xlink:href="#DejaVuSans-74" x="232.617188"/>
      <use xlink:href="#DejaVuSans-69" x="271.826172"/>
      <use xlink:href="#DejaVuSans-6f" x="299.609375"/>
      <use xlink:href="#DejaVuSans-6e" x="360.791016"/>
      <use xlink:href="#DejaVuSans-20" x="424.169922"/>
      <use xlink:href="#DejaVuSans-33" x="455.957031"/>
      <use xlink:href="#DejaVuSans-30" x="519.580078"/>
     </g>
    </g>
    <g id="line2d_45">
     <path d="M 316.339687 72.214687 
L 326.339687 72.214687 
L 336.339687 72.214687 
" style="fill: none; stroke: #f7a789; stroke-width: 2; stroke-linecap: square"/>
    </g>
    <g id="text_22">
     <!-- Iteration 32 -->
     <g transform="translate(344.339687 75.714687) scale(0.1 -0.1)">
      <use xlink:href="#DejaVuSans-49"/>
      <use xlink:href="#DejaVuSans-74" x="29.492188"/>
      <use xlink:href="#DejaVuSans-65" x="68.701172"/>
      <use xlink:href="#DejaVuSans-72" x="130.224609"/>
      <use xlink:href="#DejaVuSans-61" x="171.337891"/>
      <use xlink:href="#DejaVuSans-74" x="232.617188"/>
      <use xlink:href="#DejaVuSans-69" x="271.826172"/>
      <use xlink:href="#DejaVuSans-6f" x="299.609375"/>
      <use xlink:href="#DejaVuSans-6e" x="360.791016"/>
      <use xlink:href="#DejaVuSans-20" x="424.169922"/>
      <use xlink:href="#DejaVuSans-33" x="455.957031"/>
      <use xlink:href="#DejaVuSans-32" x="519.580078"/>
     </g>
    </g>
    <g id="line2d_46">
     <path d="M 316.339687 86.892812 
L 326.339687 86.892812 
L 336.339687 86.892812 
" style="fill: none; stroke: #edd1c2; stroke-width: 2; stroke-linecap: square"/>
    </g>
    <g id="text_23">
     <!-- Iteration 34 -->
     <g transform="translate(344.339687 90.392812) scale(0.1 -0.1)">
      <use xlink:href="#DejaVuSans-49"/>
      <use xlink:href="#DejaVuSans-74" x="29.492188"/>
      <use xlink:href="#DejaVuSans-65" x="68.701172"/>
      <use xlink:href="#DejaVuSans-72" x="130.224609"/>
      <use xlink:href="#DejaVuSans-61" x="171.337891"/>
      <use xlink:href="#DejaVuSans-74" x="232.617188"/>
      <use xlink:href="#DejaVuSans-69" x="271.826172"/>
      <use xlink:href="#DejaVuSans-6f" x="299.609375"/>
      <use xlink:href="#DejaVuSans-6e" x="360.791016"/>
      <use xlink:href="#DejaVuSans-20" x="424.169922"/>
      <use xlink:href="#DejaVuSans-33" x="455.957031"/>
      <use xlink:href="#DejaVuSans-34" x="519.580078"/>
     </g>
    </g>
    <g id="line2d_47">
     <path d="M 316.339687 101.570937 
L 326.339687 101.570937 
L 336.339687 101.570937 
" style="fill: none; stroke: #c9d8ef; stroke-width: 2; stroke-linecap: square"/>
    </g>
    <g id="text_24">
     <!-- Iteration 36 -->
     <g transform="translate(344.339687 105.070937) scale(0.1 -0.1)">
      <use xlink:href="#DejaVuSans-49"/>
      <use xlink:href="#DejaVuSans-74" x="29.492188"/>
      <use xlink:href="#DejaVuSans-65" x="68.701172"/>
      <use xlink:href="#DejaVuSans-72" x="130.224609"/>
      <use xlink:href="#DejaVuSans-61" x="171.337891"/>
      <use xlink:href="#DejaVuSans-74" x="232.617188"/>
      <use xlink:href="#DejaVuSans-69" x="271.826172"/>
      <use xlink:href="#DejaVuSans-6f" x="299.609375"/>
      <use xlink:href="#DejaVuSans-6e" x="360.791016"/>
      <use xlink:href="#DejaVuSans-20" x="424.169922"/>
      <use xlink:href="#DejaVuSans-33" x="455.957031"/>
      <use xlink:href="#DejaVuSans-36" x="519.580078"/>
     </g>
    </g>
    <g id="line2d_48">
     <path d="M 316.339687 116.249062 
L 326.339687 116.249062 
L 336.339687 116.249062 
" style="fill: none; stroke: #9abaff; stroke-width: 2; stroke-linecap: square"/>
    </g>
    <g id="text_25">
     <!-- Iteration 38 -->
     <g transform="translate(344.339687 119.749062) scale(0.1 -0.1)">
      <use xlink:href="#DejaVuSans-49"/>
      <use xlink:href="#DejaVuSans-74" x="29.492188"/>
      <use xlink:href="#DejaVuSans-65" x="68.701172"/>
      <use xlink:href="#DejaVuSans-72" x="130.224609"/>
      <use xlink:href="#DejaVuSans-61" x="171.337891"/>
      <use xlink:href="#DejaVuSans-74" x="232.617188"/>
      <use xlink:href="#DejaVuSans-69" x="271.826172"/>
      <use xlink:href="#DejaVuSans-6f" x="299.609375"/>
      <use xlink:href="#DejaVuSans-6e" x="360.791016"/>
      <use xlink:href="#DejaVuSans-20" x="424.169922"/>
      <use xlink:href="#DejaVuSans-33" x="455.957031"/>
      <use xlink:href="#DejaVuSans-38" x="519.580078"/>
     </g>
    </g>
    <g id="line2d_49">
     <path d="M 316.339687 130.927187 
L 326.339687 130.927187 
L 336.339687 130.927187 
" style="fill: none; stroke: #6889ee; stroke-width: 2; stroke-linecap: square"/>
    </g>
    <g id="text_26">
     <!-- Iteration 40 -->
     <g transform="translate(344.339687 134.427187) scale(0.1 -0.1)">
      <use xlink:href="#DejaVuSans-49"/>
      <use xlink:href="#DejaVuSans-74" x="29.492188"/>
      <use xlink:href="#DejaVuSans-65" x="68.701172"/>
      <use xlink:href="#DejaVuSans-72" x="130.224609"/>
      <use xlink:href="#DejaVuSans-61" x="171.337891"/>
      <use xlink:href="#DejaVuSans-74" x="232.617188"/>
      <use xlink:href="#DejaVuSans-69" x="271.826172"/>
      <use xlink:href="#DejaVuSans-6f" x="299.609375"/>
      <use xlink:href="#DejaVuSans-6e" x="360.791016"/>
      <use xlink:href="#DejaVuSans-20" x="424.169922"/>
      <use xlink:href="#DejaVuSans-34" x="455.957031"/>
      <use xlink:href="#DejaVuSans-30" x="519.580078"/>
     </g>
    </g>
    <g id="line2d_50">
     <path d="M 316.339687 145.605312 
L 326.339687 145.605312 
L 336.339687 145.605312 
" style="fill: none; stroke: #3b4cc0; stroke-width: 2; stroke-linecap: square"/>
    </g>
    <g id="text_27">
     <!-- Iteration 42 -->
     <g transform="translate(344.339687 149.105312) scale(0.1 -0.1)">
      <use xlink:href="#DejaVuSans-49"/>
      <use xlink:href="#DejaVuSans-74" x="29.492188"/>
      <use xlink:href="#DejaVuSans-65" x="68.701172"/>
      <use xlink:href="#DejaVuSans-72" x="130.224609"/>
      <use xlink:href="#DejaVuSans-61" x="171.337891"/>
      <use xlink:href="#DejaVuSans-74" x="232.617188"/>
      <use xlink:href="#DejaVuSans-69" x="271.826172"/>
      <use xlink:href="#DejaVuSans-6f" x="299.609375"/>
      <use xlink:href="#DejaVuSans-6e" x="360.791016"/>
      <use xlink:href="#DejaVuSans-20" x="424.169922"/>
      <use xlink:href="#DejaVuSans-34" x="455.957031"/>
      <use xlink:href="#DejaVuSans-32" x="519.580078"/>
     </g>
    </g>
   </g>
  </g>
 </g>
 <defs>
  <clipPath id="pfdb10462a4">
   <rect x="51.5" y="29.76" width="360.16" height="276.04"/>
  </clipPath>
 </defs>
</svg>
